<svg width="492.333" height="472.573" viewBox="0 0 369.25 354.43" class="displayed_equation" xmlns="http://www.w3.org/2000/svg" xmlns:xlink="http://www.w3.org/1999/xlink">
  <defs>
    <clipPath id="svg156130842403tikz_00005b">
      <path d="M 1 0.152344 L 8 0.152344 L 8 6 L 1 6 Z M 1 0.152344" />
    </clipPath>
    <clipPath id="svg156130842403tikz_00005a">
      <path d="M0 0H9V7H0z" />
    </clipPath>
    <g id="svg156130842403tikz_00005i" clip-path="url(#svg156130842403tikz_00005a)">
      <path d="M 1.53125 3.148438 L 7 5.214844 L 5.195313 3.148438 L 7 1.085938" />
      <g clip-path="url(#svg156130842403tikz_00005b)">
        <path d="M 135.3125 1682.815625 L 190 1662.151562 L 171.953125 1682.815625 L 190 1703.440625 Z M 135.3125 1682.815625" transform="matrix(.1 0 0 -.1 -12 171.43)" fill="none" stroke-width="7.97" stroke-linecap="round" stroke-linejoin="round" stroke="#000" stroke-miterlimit="10" />
      </g>
    </g>
    <clipPath id="svg156130842403tikz_00005d">
      <path d="M 1 0.152344 L 8 0.152344 L 8 6 L 1 6 Z M 1 0.152344" />
    </clipPath>
    <clipPath id="svg156130842403tikz_00005c">
      <path d="M0 0H9V7H0z" />
    </clipPath>
    <g id="svg156130842403tikz_00005j" clip-path="url(#svg156130842403tikz_00005c)">
      <path d="M 7.03125 3.148438 L 1.5625 1.085938 L 3.367188 3.148438 L 1.5625 5.214844" />
      <g clip-path="url(#svg156130842403tikz_00005d)">
        <path d="M 3230.3125 1682.815625 L 3175.625 1703.440625 L 3193.671875 1682.815625 L 3175.625 1662.151562 Z M 3230.3125 1682.815625" transform="matrix(.1 0 0 -.1 -316 171.43)" fill="none" stroke-width="7.97" stroke-linecap="round" stroke-linejoin="round" stroke="#000" stroke-miterlimit="10" />
      </g>
    </g>
    <clipPath id="svg156130842403tikz_00005f">
      <path d="M 0.285156 1 L 6 1 L 6 8 L 0.285156 8 Z M 0.285156 1" />
    </clipPath>
    <clipPath id="svg156130842403tikz_00005e">
      <path d="M0 0H7V9H0z" />
    </clipPath>
    <g id="svg156130842403tikz_00005k" clip-path="url(#svg156130842403tikz_00005e)">
      <path d="M 3.28125 6.898438 L 5.34375 1.429688 L 3.28125 3.234375 L 1.21875 1.429688" />
      <g clip-path="url(#svg156130842403tikz_00005f)">
        <path d="M 1682.8125 135.315625 L 1703.4375 190.003125 L 1682.8125 171.95625 L 1662.1875 190.003125 Z M 1682.8125 135.315625" transform="matrix(.1 0 0 -.1 -165 20.43)" fill="none" stroke-width="7.97" stroke-linecap="round" stroke-linejoin="round" stroke="#000" stroke-miterlimit="10" />
      </g>
    </g>
    <clipPath id="svg156130842403tikz_00005h">
      <path d="M 0.285156 1 L 6 1 L 6 8 L 0.285156 8 Z M 0.285156 1" />
    </clipPath>
    <clipPath id="svg156130842403tikz_00005g">
      <path d="M0 0H7V9H0z" />
    </clipPath>
    <g id="svg156130842403tikz_00005l" clip-path="url(#svg156130842403tikz_00005g)">
      <path d="M 3.28125 1.398438 L 1.21875 6.867188 L 3.28125 5.0625 L 5.34375 6.867188" />
      <g clip-path="url(#svg156130842403tikz_00005h)">
        <path d="M 1682.8125 3230.315625 L 1662.1875 3175.628125 L 1682.8125 3193.675 L 1703.4375 3175.628125 Z M 1682.8125 3230.315625" transform="matrix(.1 0 0 -.1 -165 324.43)" fill="none" stroke-width="7.97" stroke-linecap="round" stroke-linejoin="round" stroke="#000" stroke-miterlimit="10" />
      </g>
    </g>
  </defs>
  <path d="M 123.984375 123.9875 L 3241.640625 123.9875 M 123.984375 186.33125 L 3241.640625 186.33125 M 123.984375 248.714062 L 3241.640625 248.714062 M 123.984375 311.057812 L 3241.640625 311.057812 M 123.984375 373.401562 L 3241.640625 373.401562 M 123.984375 435.745312 L 3241.640625 435.745312 M 123.984375 498.089062 L 3241.640625 498.089062 M 123.984375 560.471875 L 3241.640625 560.471875 M 123.984375 622.815625 L 3241.640625 622.815625 M 123.984375 685.159375 L 3241.640625 685.159375 M 123.984375 747.503125 L 3241.640625 747.503125 M 123.984375 809.885937 L 3241.640625 809.885937 M 123.984375 872.229687 L 3241.640625 872.229687 M 123.984375 934.573437 L 3241.640625 934.573437 M 123.984375 996.917187 L 3241.640625 996.917187 M 123.984375 1059.260937 L 3241.640625 1059.260937 M 123.984375 1121.64375 L 3241.640625 1121.64375 M 123.984375 1183.9875 L 3241.640625 1183.9875 M 123.984375 1246.33125 L 3241.640625 1246.33125 M 123.984375 1308.675 L 3241.640625 1308.675 M 123.984375 1371.057812 L 3241.640625 1371.057812 M 123.984375 1433.401562 L 3241.640625 1433.401562 M 123.984375 1495.745312 L 3241.640625 1495.745312 M 123.984375 1558.128125 L 3241.640625 1558.128125 M 123.984375 1620.471875 L 3241.640625 1620.471875 M 123.984375 1682.815625 L 3241.640625 1682.815625 M 123.984375 1745.159375 L 3241.640625 1745.159375 M 123.984375 1807.503125 L 3241.640625 1807.503125 M 123.984375 1869.885937 L 3241.640625 1869.885937 M 123.984375 1932.229687 L 3241.640625 1932.229687 M 123.984375 1994.573437 L 3241.640625 1994.573437 M 123.984375 2056.917187 L 3241.640625 2056.917187 M 123.984375 2119.260937 L 3241.640625 2119.260937 M 123.984375 2181.64375 L 3241.640625 2181.64375 M 123.984375 2243.9875 L 3241.640625 2243.9875 M 123.984375 2306.33125 L 3241.640625 2306.33125 M 123.984375 2368.675 L 3241.640625 2368.675 M 123.984375 2431.057812 L 3241.640625 2431.057812 M 123.984375 2493.401562 L 3241.640625 2493.401562 M 123.984375 2555.745312 L 3241.640625 2555.745312 M 123.984375 2618.089062 L 3241.640625 2618.089062 M 123.984375 2680.471875 L 3241.640625 2680.471875 M 123.984375 2742.815625 L 3241.640625 2742.815625 M 123.984375 2805.159375 L 3241.640625 2805.159375 M 123.984375 2867.503125 L 3241.640625 2867.503125 M 123.984375 2929.885937 L 3241.640625 2929.885937 M 123.984375 2992.229687 L 3241.640625 2992.229687 M 123.984375 3054.573437 L 3241.640625 3054.573437 M 123.984375 3116.917187 L 3241.640625 3116.917187 M 123.984375 3179.260937 L 3241.640625 3179.260937 M 123.984375 3241.64375 L 3241.640625 3241.64375 M 123.984375 123.948437 L 123.984375 3241.64375 M 186.328125 123.948437 L 186.328125 3241.64375 M 248.710938 123.948437 L 248.710938 3241.64375 M 311.054688 123.948437 L 311.054688 3241.64375 M 373.398438 123.948437 L 373.398438 3241.64375 M 435.742188 123.948437 L 435.742188 3241.64375 M 498.085938 123.948437 L 498.085938 3241.64375 M 560.46875 123.948437 L 560.46875 3241.64375 M 622.8125 123.948437 L 622.8125 3241.64375 M 685.15625 123.948437 L 685.15625 3241.64375 M 747.539063 123.948437 L 747.539063 3241.64375 M 809.882813 123.948437 L 809.882813 3241.64375 M 872.226563 123.948437 L 872.226563 3241.64375 M 934.570313 123.948437 L 934.570313 3241.64375 M 996.914063 123.948437 L 996.914063 3241.64375 M 1059.296875 123.948437 L 1059.296875 3241.64375 M 1121.640625 123.948437 L 1121.640625 3241.64375 M 1183.984375 123.948437 L 1183.984375 3241.64375 M 1246.328125 123.948437 L 1246.328125 3241.64375 M 1308.671875 123.948437 L 1308.671875 3241.64375 M 1371.054688 123.948437 L 1371.054688 3241.64375 M 1433.398438 123.948437 L 1433.398438 3241.64375 M 1495.742188 123.948437 L 1495.742188 3241.64375 M 1558.125 123.948437 L 1558.125 3241.64375 M 1620.46875 123.948437 L 1620.46875 3241.64375 M 1682.8125 123.948437 L 1682.8125 3241.64375 M 1745.15625 123.948437 L 1745.15625 3241.64375 M 1807.539063 123.948437 L 1807.539063 3241.64375 M 1869.882813 123.948437 L 1869.882813 3241.64375 M 1932.226563 123.948437 L 1932.226563 3241.64375 M 1994.570313 123.948437 L 1994.570313 3241.64375 M 2056.914063 123.948437 L 2056.914063 3241.64375 M 2119.296875 123.948437 L 2119.296875 3241.64375 M 2181.640625 123.948437 L 2181.640625 3241.64375 M 2243.984375 123.948437 L 2243.984375 3241.64375 M 2306.328125 123.948437 L 2306.328125 3241.64375 M 2368.671875 123.948437 L 2368.671875 3241.64375 M 2431.054688 123.948437 L 2431.054688 3241.64375 M 2493.398438 123.948437 L 2493.398438 3241.64375 M 2555.742188 123.948437 L 2555.742188 3241.64375 M 2618.085938 123.948437 L 2618.085938 3241.64375 M 2680.46875 123.948437 L 2680.46875 3241.64375 M 2742.8125 123.948437 L 2742.8125 3241.64375 M 2805.15625 123.948437 L 2805.15625 3241.64375 M 2867.539063 123.948437 L 2867.539063 3241.64375 M 2929.882813 123.948437 L 2929.882813 3241.64375 M 2992.226563 123.948437 L 2992.226563 3241.64375 M 3054.570313 123.948437 L 3054.570313 3241.64375 M 3116.914063 123.948437 L 3116.914063 3241.64375 M 3179.296875 123.948437 L 3179.296875 3241.64375 M 3241.640625 123.948437 L 3241.640625 3241.64375" transform="matrix(.1 0 0 -.1 0 354.43)" fill="none" stroke-width="3.985" stroke-linecap="round" stroke-linejoin="round" stroke="#dbdbdc" stroke-miterlimit="10" />
  <path d="M 123.984375 123.948437 L 3241.640625 123.948437 M 123.984375 435.745312 L 3241.640625 435.745312 M 123.984375 747.503125 L 3241.640625 747.503125 M 123.984375 1059.260937 L 3241.640625 1059.260937 M 123.984375 1371.057812 L 3241.640625 1371.057812 M 123.984375 1682.815625 L 3241.640625 1682.815625 M 123.984375 1994.573437 L 3241.640625 1994.573437 M 123.984375 2306.33125 L 3241.640625 2306.33125 M 123.984375 2618.128125 L 3241.640625 2618.128125 M 123.984375 2929.885937 L 3241.640625 2929.885937 M 123.984375 3241.565625 L 3241.640625 3241.565625 M 123.984375 123.948437 L 123.984375 3241.64375 M 435.742188 123.948437 L 435.742188 3241.64375 M 747.5 123.948437 L 747.5 3241.64375 M 1059.257813 123.948437 L 1059.257813 3241.64375 M 1371.054688 123.948437 L 1371.054688 3241.64375 M 1682.8125 123.948437 L 1682.8125 3241.64375 M 1994.570313 123.948437 L 1994.570313 3241.64375 M 2306.367188 123.948437 L 2306.367188 3241.64375 M 2618.125 123.948437 L 2618.125 3241.64375 M 2929.882813 123.948437 L 2929.882813 3241.64375 M 3241.5625 123.948437 L 3241.5625 3241.64375" transform="matrix(.1 0 0 -.1 0 354.43)" fill="none" stroke-width="3.985" stroke-linecap="round" stroke-linejoin="round" stroke="#a5a5a6" stroke-miterlimit="10" />
  <path d="M 173.945313 1682.815625 L 3191.679688 1682.815625" transform="matrix(.1 0 0 -.1 0 354.43)" fill="none" stroke-width="7.97" stroke-linecap="round" stroke-linejoin="round" stroke="#000" stroke-miterlimit="10" />
  <use xlink:href="#svg156130842403tikz_00005i" transform="translate(12 183)" />
  <use xlink:href="#svg156130842403tikz_00005j" transform="translate(316 183)" />
  <path d="M334.402344 184.53125C334.402344 183.113281 333.195313 182.699219 331.523438 182.699219L328.78125 182.699219 328.78125 183.035156C329.671875 183.035156 329.773438 183.246094 329.773438 183.859375L329.773438 188.648438C329.773438 189.582031 329.617188 189.695313 328.78125 189.695313L328.78125 190.03125 331.914063 190.03125 331.914063 189.695313C330.953125 189.695313 330.8125 189.570313 330.8125 188.648438L330.8125 186.671875 331.121094 186.671875C331.523438 186.671875 331.648438 186.703125 331.871094 187.039063 332.328125 187.710938 332.652344 188.1875 333.867188 190.03125L335.707031 190.03125 335.707031 189.695313C335.195313 189.695313 334.914063 189.617188 334.558594 189.128906 333.332031 187.375 332.898438 186.75 332.515625 186.527344L332.515625 186.480469C333.421875 186.269531 334.402344 185.78125 334.402344 184.53125zM330.8125 183.167969C331.042969 183.148438 331.300781 183.136719 331.546875 183.136719 332.753906 183.136719 333.273438 183.683594 333.273438 184.574219 333.273438 185.757813 332.460938 186.191406 331.234375 186.25L330.8125 186.234375 330.8125 183.167969M340.128906 188.433594C339.773438 188.902344 339.425781 189.304688 338.523438 189.304688 337.632813 189.304688 336.78125 188.601563 336.78125 187.0625L340.308594 187.0625C340.253906 185.5 339.449219 184.617188 338.234375 184.617188 336.929688 184.617188 335.878906 185.511719 335.878906 187.375 335.878906 189.171875 336.917969 190.140625 338.257813 190.140625 339.40625 190.140625 339.941406 189.4375 340.34375 188.589844zM336.773438 186.648438C336.859375 185.613281 337.308594 185.066406 338.066406 185.066406 338.859375 185.066406 339.226563 185.824219 339.257813 186.648438zM337.597656 184.21875L338.03125 184.21875 339.414063 182.710938 339.414063 182.511719 338.378906 182.511719 337.597656 184.21875M345.328125 188.433594C344.972656 188.902344 344.628906 189.304688 343.722656 189.304688 342.832031 189.304688 341.984375 188.601563 341.984375 187.0625L345.507813 187.0625C345.453125 185.5 344.648438 184.617188 343.433594 184.617188 342.128906 184.617188 341.078125 185.511719 341.078125 187.375 341.078125 189.171875 342.117188 190.140625 343.457031 190.140625 344.605469 190.140625 345.140625 189.4375 345.542969 188.589844zM341.972656 186.648438C342.0625 185.613281 342.507813 185.066406 343.265625 185.066406 344.058594 185.066406 344.425781 185.824219 344.460938 186.648438L341.972656 186.648438M348.800781 189.707031C347.996094 189.707031 347.941406 189.550781 347.941406 188.902344L347.941406 182.152344 347.664063 182.152344 346.191406 182.542969 346.191406 182.847656C346.191406 182.847656 346.359375 182.824219 346.546875 182.824219 346.828125 182.824219 347.015625 182.847656 347.015625 183.304688L347.015625 188.902344C347.015625 189.527344 346.96875 189.707031 346.234375 189.707031L346.234375 190.03125 348.800781 190.03125 348.800781 189.707031M349.535156 188.199219L349.570313 190.117188 349.804688 190.117188 350.039063 189.863281 350.058594 189.863281C350.351563 189.984375 350.683594 190.152344 351.332031 190.152344 352.335938 190.152344 353.207031 189.75 353.207031 188.703125 353.207031 187.878906 352.660156 187.464844 351.644531 186.929688 350.707031 186.449219 350.339844 186.171875 350.339844 185.734375 350.339844 185.234375 350.726563 185 351.242188 185 351.921875 185 352.335938 185.320313 352.582031 186.382813L352.882813 186.382813 352.847656 184.675781 352.625 184.675781 352.4375 184.910156 352.425781 184.910156C352.144531 184.773438 351.8125 184.617188 351.253906 184.617188 350.292969 184.617188 349.546875 185.109375 349.546875 186.023438 349.546875 186.851563 350.003906 187.242188 351.019531 187.753906 352.054688 188.265625 352.269531 188.480469 352.269531 189.003906 352.269531 189.527344 351.867188 189.738281 351.308594 189.738281 350.484375 189.738281 350.058594 189.347656 349.824219 188.199219L349.535156 188.199219" />
  <path d="M 1682.8125 173.948437 L 1682.8125 3191.682812" transform="matrix(.1 0 0 -.1 0 354.43)" fill="none" stroke-width="7.97" stroke-linecap="round" stroke-linejoin="round" stroke="#000" stroke-miterlimit="10" />
  <use xlink:href="#svg156130842403tikz_00005k" transform="translate(165 334)" />
  <use xlink:href="#svg156130842403tikz_00005l" transform="translate(165 30)" />
  <path d="M129.683594 22.070313C129.683594 23.027344 129.582031 23.195313 128.578125 23.195313L128.578125 23.53125 131.792969 23.53125 131.792969 23.195313C130.800781 23.195313 130.699219 23.027344 130.699219 22.070313L130.699219 17.671875C130.699219 16.804688 130.734375 16.535156 131.792969 16.535156L131.792969 16.199219 128.578125 16.199219 128.578125 16.535156C129.640625 16.535156 129.683594 16.804688 129.683594 17.671875L129.683594 22.070313M134.265625 19.546875C134.589844 19.246094 135.078125 18.832031 135.65625 18.832031 136.171875 18.832031 136.550781 19.078125 136.550781 20.027344L136.550781 22.234375C136.550781 23.015625 136.484375 23.207031 135.691406 23.207031L135.691406 23.53125 138.335938 23.53125 138.335938 23.207031C137.53125 23.207031 137.476563 23.003906 137.476563 22.234375L137.476563 19.523438C137.84375 19.214844 138.304688 18.832031 138.757813 18.832031 139.285156 18.832031 139.71875 19.078125 139.71875 20.09375L139.71875 22.234375C139.71875 22.914063 139.6875 23.207031 138.925781 23.207031L138.925781 23.53125 141.449219 23.53125 141.449219 23.207031C140.679688 23.207031 140.644531 22.9375 140.644531 22.234375L140.644531 19.960938C140.644531 18.609375 140.078125 18.117188 139.207031 18.117188 138.617188 18.117188 138.046875 18.441406 137.433594 19.046875L137.386719 19.046875C137.164063 18.511719 136.785156 18.117188 136.148438 18.117188 135.390625 18.117188 134.878906 18.53125 134.273438 19.058594L134.230469 19.058594 134.230469 18.152344 133.964844 18.152344 132.570313 18.476563 132.570313 18.800781C132.570313 18.800781 132.703125 18.777344 132.867188 18.777344 133.179688 18.777344 133.339844 18.878906 133.339844 19.28125L133.339844 22.402344C133.339844 23.070313 133.257813 23.207031 132.554688 23.207031L132.554688 23.53125 135.101563 23.53125 135.101563 23.207031C134.410156 23.207031 134.265625 23.070313 134.265625 22.445313L134.265625 19.546875M145.234375 22.839844C145.304688 23.328125 145.414063 23.585938 145.90625 23.585938 146.476563 23.585938 146.742188 23.351563 147.109375 22.816406L146.945313 22.636719C146.789063 22.804688 146.632813 22.914063 146.417969 22.914063 146.183594 22.914063 146.085938 22.828125 146.085938 22.367188L146.085938 19.839844C146.085938 18.675781 145.628906 18.117188 144.410156 18.117188 143.195313 18.117188 142.445313 18.722656 142.445313 19.347656 142.445313 19.714844 142.691406 19.882813 142.914063 19.882813 143.226563 19.882813 143.40625 19.714844 143.40625 19.367188 143.40625 18.699219 143.519531 18.464844 144.15625 18.464844 144.824219 18.464844 145.15625 18.832031 145.15625 19.804688L145.15625 20.292969C144.199219 20.597656 142.222656 20.886719 142.222656 22.359375 142.222656 23.070313 142.691406 23.609375 143.550781 23.609375 144.265625 23.609375 144.667969 23.296875 145.191406 22.839844zM145.15625 22.503906C144.777344 22.816406 144.378906 22.992188 144.007813 22.992188 143.53125 22.992188 143.207031 22.648438 143.207031 22.089844 143.207031 21.222656 144.140625 20.917969 145.15625 20.664063L145.15625 22.503906M148.628906 21.476563C148.101563 21.878906 147.714844 22.347656 147.714844 22.75 147.714844 23.0625 147.960938 23.363281 148.339844 23.550781L148.339844 23.597656C147.734375 24.175781 147.433594 24.558594 147.433594 24.925781 147.433594 25.539063 147.867188 26.152344 149.332031 26.152344 150.734375 26.152344 152.386719 25.636719 152.386719 24.144531 152.386719 22.859375 151.316406 22.816406 149.910156 22.816406 148.882813 22.816406 148.59375 22.703125 148.59375 22.367188 148.59375 22.179688 148.773438 21.777344 148.882813 21.621094 149.175781 21.722656 149.488281 21.789063 149.84375 21.789063 151.015625 21.789063 151.820313 21.132813 151.820313 20.09375 151.820313 19.535156 151.574219 19.167969 151.417969 18.945313L151.417969 18.890625 152.464844 18.921875 152.464844 18.320313 151.027344 18.398438C151.027344 18.398438 150.523438 18.117188 149.789063 18.117188 148.605469 18.117188 147.769531 18.820313 147.769531 19.9375 147.769531 20.664063 148.09375 21.140625 148.628906 21.453125zM149.710938 18.519531C150.421875 18.519531 150.828125 19.125 150.828125 20.027344 150.828125 21.085938 150.414063 21.398438 149.855469 21.398438 149.128906 21.398438 148.75 20.851563 148.75 19.890625 148.75 18.957031 149.128906 18.519531 149.710938 18.519531zM148.617188 23.640625C148.773438 23.640625 148.984375 23.652344 149.878906 23.664063 150.625 23.675781 151.820313 23.652344 151.820313 24.457031 151.820313 24.9375 151.292969 25.515625 149.976563 25.515625 148.839844 25.515625 148.304688 25.191406 148.304688 24.546875 148.304688 24.3125 148.382813 24.054688 148.617188 23.640625M154.21875 15.800781C153.828125 15.800781 153.582031 16.089844 153.582031 16.425781 153.582031 16.769531 153.839844 17.058594 154.21875 17.058594 154.609375 17.058594 154.851563 16.769531 154.851563 16.425781 154.851563 16.089844 154.609375 15.800781 154.21875 15.800781zM155.46875 23.21875C154.71875 23.21875 154.664063 23.050781 154.664063 22.402344L154.664063 18.152344 154.371094 18.152344 152.96875 18.464844 152.96875 18.789063C152.96875 18.789063 153.089844 18.765625 153.246094 18.765625 153.570313 18.765625 153.738281 18.8125 153.738281 19.289063L153.738281 22.402344C153.738281 23.039063 153.703125 23.21875 152.957031 23.21875L152.957031 23.53125 155.46875 23.53125 155.46875 23.21875M161.164063 20.105469C161.164063 18.820313 160.6875 18.117188 159.671875 18.117188 158.96875 18.117188 158.476563 18.519531 157.875 19.058594L157.828125 19.058594 157.84375 18.152344 157.585938 18.152344 156.167969 18.476563 156.167969 18.800781C156.167969 18.800781 156.28125 18.777344 156.46875 18.777344 156.769531 18.777344 156.9375 18.867188 156.9375 19.269531L156.9375 22.402344C156.9375 23.027344 156.90625 23.21875 156.15625 23.21875L156.15625 23.53125 158.714844 23.53125 158.714844 23.21875C157.90625 23.21875 157.863281 23.027344 157.863281 22.402344L157.863281 19.535156C158.199219 19.234375 158.609375 18.832031 159.214844 18.832031 159.714844 18.832031 160.242188 19.046875 160.242188 20.386719L160.242188 22.402344C160.242188 23.027344 160.207031 23.21875 159.414063 23.21875L159.414063 23.53125 161.992188 23.53125 161.992188 23.21875C161.242188 23.21875 161.164063 23.027344 161.164063 22.402344L161.164063 20.105469M165.636719 22.839844C165.703125 23.328125 165.8125 23.585938 166.304688 23.585938 166.875 23.585938 167.140625 23.351563 167.511719 22.816406L167.34375 22.636719C167.1875 22.804688 167.03125 22.914063 166.820313 22.914063 166.585938 22.914063 166.484375 22.828125 166.484375 22.367188L166.484375 19.839844C166.484375 18.675781 166.027344 18.117188 164.8125 18.117188 163.59375 18.117188 162.847656 18.722656 162.847656 19.347656 162.847656 19.714844 163.09375 19.882813 163.316406 19.882813 163.628906 19.882813 163.804688 19.714844 163.804688 19.367188 163.804688 18.699219 163.917969 18.464844 164.554688 18.464844 165.222656 18.464844 165.558594 18.832031 165.558594 19.804688L165.558594 20.292969C164.597656 20.597656 162.621094 20.886719 162.621094 22.359375 162.621094 23.070313 163.09375 23.609375 163.953125 23.609375 164.664063 23.609375 165.066406 23.296875 165.59375 22.839844zM165.558594 22.503906C165.179688 22.816406 164.777344 22.992188 164.410156 22.992188 163.929688 22.992188 163.605469 22.648438 163.605469 22.089844 163.605469 21.222656 164.542969 20.917969 165.558594 20.664063L165.558594 22.503906M169.21875 15.800781C168.828125 15.800781 168.582031 16.089844 168.582031 16.425781 168.582031 16.769531 168.839844 17.058594 169.21875 17.058594 169.609375 17.058594 169.851563 16.769531 169.851563 16.425781 169.851563 16.089844 169.609375 15.800781 169.21875 15.800781zM170.46875 23.21875C169.71875 23.21875 169.664063 23.050781 169.664063 22.402344L169.664063 18.152344 169.371094 18.152344 167.96875 18.464844 167.96875 18.789063C167.96875 18.789063 168.089844 18.765625 168.246094 18.765625 168.570313 18.765625 168.738281 18.8125 168.738281 19.289063L168.738281 22.402344C168.738281 23.039063 168.703125 23.21875 167.957031 23.21875L167.957031 23.53125 170.46875 23.53125 170.46875 23.21875M172.84375 18.152344L172.574219 18.152344 171.191406 18.488281 171.191406 18.800781C171.191406 18.800781 171.3125 18.777344 171.535156 18.777344 171.9375 18.777344 171.9375 18.976563 171.9375 19.378906L171.9375 22.445313C171.9375 23.070313 171.859375 23.207031 171.121094 23.207031L171.121094 23.53125 173.914063 23.53125 173.914063 23.207031C173.078125 23.207031 172.863281 23.097656 172.863281 22.390625L172.863281 19.847656C173.132813 19.402344 173.488281 18.933594 173.746094 18.933594 173.878906 18.933594 174.101563 19.3125 174.46875 19.3125 174.714844 19.3125 174.960938 19.136719 174.960938 18.710938 174.960938 18.332031 174.75 18.085938 174.3125 18.085938 173.777344 18.085938 173.445313 18.476563 172.875 19.300781L172.84375 19.300781 172.84375 18.152344M179.628906 21.933594C179.273438 22.402344 178.925781 22.804688 178.023438 22.804688 177.132813 22.804688 176.28125 22.101563 176.28125 20.5625L179.808594 20.5625C179.753906 19 178.949219 18.117188 177.734375 18.117188 176.429688 18.117188 175.378906 19.011719 175.378906 20.875 175.378906 22.671875 176.417969 23.640625 177.757813 23.640625 178.90625 23.640625 179.441406 22.9375 179.84375 22.089844zM176.273438 20.148438C176.359375 19.113281 176.808594 18.566406 177.566406 18.566406 178.359375 18.566406 178.726563 19.324219 178.757813 20.148438L176.273438 20.148438M180.632813 21.699219L180.667969 23.617188 180.902344 23.617188 181.136719 23.363281 181.160156 23.363281C181.449219 23.484375 181.785156 23.652344 182.429688 23.652344 183.4375 23.652344 184.304688 23.25 184.304688 22.203125 184.304688 21.378906 183.757813 20.964844 182.742188 20.429688 181.804688 19.949219 181.4375 19.671875 181.4375 19.234375 181.4375 18.734375 181.828125 18.5 182.34375 18.5 183.023438 18.5 183.4375 18.820313 183.679688 19.882813L183.980469 19.882813 183.949219 18.175781 183.726563 18.175781 183.535156 18.410156 183.523438 18.410156C183.246094 18.273438 182.910156 18.117188 182.351563 18.117188 181.394531 18.117188 180.648438 18.609375 180.648438 19.523438 180.648438 20.351563 181.101563 20.742188 182.117188 21.253906 183.15625 21.765625 183.367188 21.980469 183.367188 22.503906 183.367188 23.027344 182.96875 23.238281 182.410156 23.238281 181.582031 23.238281 181.160156 22.847656 180.925781 21.699219L180.632813 21.699219M189.164063 18.152344L188.882813 18.152344 187.480469 18.464844 187.480469 18.789063C187.480469 18.789063 187.691406 18.765625 187.835938 18.765625 188.203125 18.765625 188.257813 18.910156 188.257813 19.335938L188.257813 24.859375C188.257813 25.484375 188.148438 25.671875 187.445313 25.671875L187.445313 25.984375 190.269531 25.984375 190.269531 25.660156C189.398438 25.660156 189.1875 25.515625 189.1875 24.789063L189.1875 23.328125 189.230469 23.328125C189.554688 23.550781 189.933594 23.640625 190.359375 23.640625 191.695313 23.640625 192.800781 22.515625 192.800781 20.617188 192.800781 19.15625 192.03125 18.117188 190.925781 18.117188 190.269531 18.117188 189.734375 18.464844 189.195313 19.089844L189.164063 19.089844zM189.1875 19.558594C189.398438 19.28125 189.878906 18.878906 190.46875 18.878906 191.292969 18.878906 191.785156 19.523438 191.785156 20.929688 191.785156 22.480469 191.195313 23.207031 190.414063 23.207031 189.789063 23.207031 189.398438 22.703125 189.1875 22.472656L189.1875 19.558594M199.226563 23.027344L199.113281 23.027344C198.578125 23.027344 198.445313 22.949219 198.445313 22.289063L198.445313 18.195313 198.175781 18.195313 196.613281 18.363281 196.613281 18.675781C197.328125 18.675781 197.515625 18.734375 197.515625 19.324219L197.515625 22.257813C197.070313 22.648438 196.714844 22.925781 196.144531 22.925781 195.566406 22.925781 195.140625 22.59375 195.140625 21.453125L195.140625 18.195313 194.894531 18.195313 193.457031 18.363281 193.457031 18.675781C194.058594 18.6875 194.214844 18.734375 194.214844 19.335938L194.214844 21.601563C194.214844 23.117188 194.75 23.640625 195.675781 23.640625 196.390625 23.640625 196.914063 23.308594 197.507813 22.726563L197.5625 22.726563 197.5625 23.585938 197.808594 23.585938 199.226563 23.328125 199.226563 23.027344M201.640625 18.152344L201.371094 18.152344 199.992188 18.488281 199.992188 18.800781C199.992188 18.800781 200.113281 18.777344 200.335938 18.777344 200.738281 18.777344 200.738281 18.976563 200.738281 19.378906L200.738281 22.445313C200.738281 23.070313 200.660156 23.207031 199.921875 23.207031L199.921875 23.53125 202.714844 23.53125 202.714844 23.207031C201.878906 23.207031 201.664063 23.097656 201.664063 22.390625L201.664063 19.847656C201.929688 19.402344 202.289063 18.933594 202.546875 18.933594 202.679688 18.933594 202.902344 19.3125 203.269531 19.3125 203.515625 19.3125 203.761719 19.136719 203.761719 18.710938 203.761719 18.332031 203.550781 18.085938 203.113281 18.085938 202.578125 18.085938 202.242188 18.476563 201.675781 19.300781L201.640625 19.300781 201.640625 18.152344M204.335938 21.699219L204.367188 23.617188 204.601563 23.617188 204.839844 23.363281 204.859375 23.363281C205.148438 23.484375 205.484375 23.652344 206.132813 23.652344 207.136719 23.652344 208.007813 23.25 208.007813 22.203125 208.007813 21.378906 207.460938 20.964844 206.445313 20.429688 205.507813 19.949219 205.140625 19.671875 205.140625 19.234375 205.140625 18.734375 205.527344 18.5 206.042969 18.5 206.722656 18.5 207.136719 18.820313 207.382813 19.882813L207.679688 19.882813 207.648438 18.175781 207.425781 18.175781 207.234375 18.410156 207.226563 18.410156C206.945313 18.273438 206.609375 18.117188 206.054688 18.117188 205.09375 18.117188 204.347656 18.609375 204.347656 19.523438 204.347656 20.351563 204.804688 20.742188 205.820313 21.253906 206.855469 21.765625 207.070313 21.980469 207.070313 22.503906 207.070313 23.027344 206.667969 23.238281 206.109375 23.238281 205.28125 23.238281 204.859375 22.847656 204.625 21.699219L204.335938 21.699219" />
  <path d="M 2618.125 2929.885937 L 1682.8125 1682.815625" transform="matrix(.1 0 0 -.1 0 354.43)" fill="none" stroke-width="7.97" stroke-linecap="round" stroke-linejoin="round" stroke="#109e24" stroke-miterlimit="10" />
  <path d="M 264.363281 61.441406 C 264.363281 60.03125 263.222656 58.890625 261.8125 58.890625 C 260.402344 58.890625 259.261719 60.03125 259.261719 61.441406 C 259.261719 62.851563 260.402344 63.992188 261.8125 63.992188 C 263.222656 63.992188 264.363281 62.851563 264.363281 61.441406 Z M 264.363281 61.441406" fill="#828283" fill-opacity=".7" />
  <path d="M 747.5 2929.885937 L 1682.8125 1682.815625" transform="matrix(.1 0 0 -.1 0 354.43)" fill="none" stroke-width="7.97" stroke-linecap="round" stroke-linejoin="round" stroke="#109e24" stroke-miterlimit="10" />
  <path d="M 77.300781 61.441406 C 77.300781 60.03125 76.160156 58.890625 74.75 58.890625 C 73.339844 58.890625 72.199219 60.03125 72.199219 61.441406 C 72.199219 62.851563 73.339844 63.992188 74.75 63.992188 C 76.160156 63.992188 77.300781 62.851563 77.300781 61.441406 Z M 77.300781 61.441406" fill="#828283" fill-opacity=".7" />
  <path d="M 2618.125 435.745312 L 1682.8125 1682.815625" transform="matrix(.1 0 0 -.1 0 354.43)" fill="none" stroke-width="7.97" stroke-linecap="round" stroke-linejoin="round" stroke="#109e24" stroke-miterlimit="10" />
  <path d="M 77.300781 310.855469 C 77.300781 309.449219 76.160156 308.304688 74.75 308.304688 C 73.339844 308.304688 72.199219 309.449219 72.199219 310.855469 C 72.199219 312.265625 73.339844 313.40625 74.75 313.40625 C 76.160156 313.40625 77.300781 312.265625 77.300781 310.855469 Z M 77.300781 310.855469" fill="#828283" fill-opacity=".7" />
  <path d="M 747.5 435.745312 L 1682.8125 1682.815625" transform="matrix(.1 0 0 -.1 0 354.43)" fill="none" stroke-width="7.97" stroke-linecap="round" stroke-linejoin="round" stroke="#109e24" stroke-miterlimit="10" />
  <path d="M 264.363281 310.855469 C 264.363281 309.449219 263.222656 308.304688 261.8125 308.304688 C 260.402344 308.304688 259.261719 309.449219 259.261719 310.855469 C 259.261719 312.265625 260.402344 313.40625 261.8125 313.40625 C 263.222656 313.40625 264.363281 312.265625 264.363281 310.855469 Z M 264.363281 310.855469" fill="#828283" fill-opacity=".7" />
  <path d="M220.335938 328.4375C220.402344 328.929688 220.515625 329.1875 221.007813 329.1875 221.574219 329.1875 221.84375 328.953125 222.210938 328.414063L222.042969 328.238281C221.886719 328.40625 221.730469 328.515625 221.519531 328.515625 221.285156 328.515625 221.183594 328.425781 221.183594 327.96875L221.183594 325.4375C221.183594 324.277344 220.726563 323.71875 219.511719 323.71875 218.296875 323.71875 217.546875 324.320313 217.546875 324.945313 217.546875 325.3125 217.792969 325.480469 218.015625 325.480469 218.328125 325.480469 218.507813 325.3125 218.507813 324.96875 218.507813 324.296875 218.617188 324.0625 219.253906 324.0625 219.921875 324.0625 220.257813 324.433594 220.257813 325.402344L220.257813 325.894531C219.296875 326.195313 217.324219 326.484375 217.324219 327.957031 217.324219 328.671875 217.792969 329.207031 218.652344 329.207031 219.367188 329.207031 219.765625 328.894531 220.292969 328.4375zM220.257813 328.101563C219.878906 328.414063 219.476563 328.59375 219.109375 328.59375 218.628906 328.59375 218.304688 328.25 218.304688 327.691406 218.304688 326.820313 219.242188 326.519531 220.257813 326.261719L220.257813 328.101563M224.34375 323.75L224.074219 323.75 222.691406 324.085938 222.691406 324.398438C222.691406 324.398438 222.8125 324.375 223.035156 324.375 223.4375 324.375 223.4375 324.578125 223.4375 324.980469L223.4375 328.046875C223.4375 328.671875 223.359375 328.804688 222.621094 328.804688L222.621094 329.128906 225.414063 329.128906 225.414063 328.804688C224.578125 328.804688 224.363281 328.695313 224.363281 327.992188L224.363281 325.449219C224.632813 325 224.988281 324.53125 225.246094 324.53125 225.378906 324.53125 225.601563 324.914063 225.96875 324.914063 226.214844 324.914063 226.460938 324.734375 226.460938 324.3125 226.460938 323.929688 226.25 323.6875 225.8125 323.6875 225.277344 323.6875 224.945313 324.078125 224.375 324.902344L224.34375 324.902344 224.34375 323.75M228.027344 327.078125C227.503906 327.476563 227.113281 327.945313 227.113281 328.347656 227.113281 328.660156 227.359375 328.960938 227.738281 329.152344L227.738281 329.195313C227.136719 329.777344 226.835938 330.15625 226.835938 330.523438 226.835938 331.136719 227.269531 331.75 228.730469 331.75 230.136719 331.75 231.789063 331.238281 231.789063 329.742188 231.789063 328.460938 230.71875 328.414063 229.3125 328.414063 228.285156 328.414063 227.996094 328.304688 227.996094 327.96875 227.996094 327.78125 228.171875 327.378906 228.285156 327.222656 228.574219 327.320313 228.886719 327.390625 229.242188 327.390625 230.414063 327.390625 231.21875 326.730469 231.21875 325.695313 231.21875 325.136719 230.972656 324.765625 230.816406 324.542969L230.816406 324.488281 231.867188 324.523438 231.867188 323.921875 230.425781 324C230.425781 324 229.925781 323.71875 229.1875 323.71875 228.007813 323.71875 227.167969 324.421875 227.167969 325.539063 227.167969 326.261719 227.492188 326.742188 228.027344 327.054688zM229.109375 324.121094C229.824219 324.121094 230.226563 324.722656 230.226563 325.625 230.226563 326.6875 229.8125 327 229.253906 327 228.53125 327 228.148438 326.453125 228.148438 325.492188 228.148438 324.554688 228.53125 324.121094 229.109375 324.121094zM228.015625 329.242188C228.171875 329.242188 228.382813 329.253906 229.277344 329.265625 230.023438 329.273438 231.21875 329.253906 231.21875 330.054688 231.21875 330.535156 230.695313 331.117188 229.378906 331.117188 228.242188 331.117188 227.703125 330.792969 227.703125 330.144531 227.703125 329.910156 227.78125 329.65625 228.015625 329.242188M234.378906 326.273438C234.378906 328.726563 235.550781 330.476563 237.347656 331.40625L237.527344 331.09375C235.898438 330.023438 235.296875 328.515625 235.296875 326.273438 235.296875 324.054688 235.898438 322.558594 237.527344 321.476563L237.347656 321.1875C235.550781 322.101563 234.378906 323.839844 234.378906 326.273438M242.785156 327.210938L242.417969 327.210938C242.0625 328.148438 241.828125 328.316406 241.035156 328.316406L239.316406 328.316406 239.316406 328.28125 243.234375 324.15625 243.277344 323.851563 239.195313 323.851563 238.78125 325.617188 239.128906 325.617188C239.351563 324.867188 239.472656 324.667969 240.1875 324.667969L241.992188 324.667969 241.992188 324.699219 238.089844 328.804688 238.046875 329.128906 242.285156 329.128906 242.785156 327.210938M246.890625 326.273438C246.890625 323.839844 245.71875 322.101563 243.925781 321.1875L243.746094 321.476563C245.375 322.558594 245.976563 324.054688 245.976563 326.273438 245.976563 328.515625 245.375 330.023438 243.746094 331.09375L243.925781 331.40625C245.71875 330.476563 246.890625 328.726563 246.890625 326.273438M257.839844 325.480469L257.839844 324.722656 251.191406 324.722656 251.191406 325.480469zM257.839844 327.757813L257.839844 327.007813 251.191406 327.007813 251.191406 327.757813 257.839844 327.757813M262.390625 326.617188L269.039063 326.617188 269.039063 325.859375 262.390625 325.859375zM275.023438 323.84375C275.023438 322.222656 274.53125 321.132813 273.46875 321.132813 271.652344 321.132813 270.089844 323.75 270.089844 326.808594 270.089844 328.539063 270.828125 329.285156 271.820313 329.285156 273.558594 329.285156 275.023438 327.234375 275.023438 323.84375zM272.042969 328.316406C271.453125 328.316406 270.691406 327.914063 270.691406 326.339844 270.691406 326.050781 270.714844 325.636719 270.746094 325.359375L274.375 325.359375C274.074219 327.46875 273.113281 328.316406 272.042969 328.316406zM273.246094 322.101563C274.117188 322.101563 274.476563 323.0625 274.476563 324.109375 274.476563 324.3125 274.464844 324.554688 274.453125 324.765625L270.859375 324.765625C271.25 323.09375 272.300781 322.101563 273.246094 322.101563M58.234375 328.4375C58.304688 328.929688 58.414063 329.1875 58.90625 329.1875 59.476563 329.1875 59.742188 328.953125 60.109375 328.414063L59.945313 328.238281C59.789063 328.40625 59.632813 328.515625 59.417969 328.515625 59.183594 328.515625 59.085938 328.425781 59.085938 327.96875L59.085938 325.4375C59.085938 324.277344 58.625 323.71875 57.410156 323.71875 56.195313 323.71875 55.445313 324.320313 55.445313 324.945313 55.445313 325.3125 55.691406 325.480469 55.914063 325.480469 56.226563 325.480469 56.40625 325.3125 56.40625 324.96875 56.40625 324.296875 56.519531 324.0625 57.15625 324.0625 57.824219 324.0625 58.15625 324.433594 58.15625 325.402344L58.15625 325.894531C57.199219 326.195313 55.222656 326.484375 55.222656 327.957031 55.222656 328.671875 55.691406 329.207031 56.550781 329.207031 57.265625 329.207031 57.667969 328.894531 58.191406 328.4375zM58.15625 328.101563C57.777344 328.414063 57.375 328.59375 57.007813 328.59375 56.53125 328.59375 56.207031 328.25 56.207031 327.691406 56.207031 326.820313 57.140625 326.519531 58.15625 326.261719L58.15625 328.101563M62.242188 323.75L61.972656 323.75 60.589844 324.085938 60.589844 324.398438C60.589844 324.398438 60.710938 324.375 60.9375 324.375 61.335938 324.375 61.335938 324.578125 61.335938 324.980469L61.335938 328.046875C61.335938 328.671875 61.257813 328.804688 60.523438 328.804688L60.523438 329.128906 63.3125 329.128906 63.3125 328.804688C62.476563 328.804688 62.265625 328.695313 62.265625 327.992188L62.265625 325.449219C62.53125 325 62.890625 324.53125 63.144531 324.53125 63.28125 324.53125 63.5 324.914063 63.871094 324.914063 64.117188 324.914063 64.359375 324.734375 64.359375 324.3125 64.359375 323.929688 64.148438 323.6875 63.714844 323.6875 63.179688 323.6875 62.84375 324.078125 62.273438 324.902344L62.242188 324.902344 62.242188 323.75M65.929688 327.078125C65.402344 327.476563 65.011719 327.945313 65.011719 328.347656 65.011719 328.660156 65.257813 328.960938 65.636719 329.152344L65.636719 329.195313C65.035156 329.777344 64.734375 330.15625 64.734375 330.523438 64.734375 331.136719 65.167969 331.75 66.632813 331.75 68.035156 331.75 69.6875 331.238281 69.6875 329.742188 69.6875 328.460938 68.617188 328.414063 67.210938 328.414063 66.183594 328.414063 65.894531 328.304688 65.894531 327.96875 65.894531 327.78125 66.074219 327.378906 66.183594 327.222656 66.476563 327.320313 66.789063 327.390625 67.144531 327.390625 68.316406 327.390625 69.117188 326.730469 69.117188 325.695313 69.117188 325.136719 68.875 324.765625 68.71875 324.542969L68.71875 324.488281 69.765625 324.523438 69.765625 323.921875 68.328125 324C68.328125 324 67.824219 323.71875 67.085938 323.71875 65.90625 323.71875 65.070313 324.421875 65.070313 325.539063 65.070313 326.261719 65.390625 326.742188 65.929688 327.054688zM67.011719 324.121094C67.722656 324.121094 68.125 324.722656 68.125 325.625 68.125 326.6875 67.710938 327 67.15625 327 66.429688 327 66.050781 326.453125 66.050781 325.492188 66.050781 324.554688 66.429688 324.121094 67.011719 324.121094zM65.917969 329.242188C66.074219 329.242188 66.285156 329.253906 67.179688 329.265625 67.925781 329.273438 69.117188 329.253906 69.117188 330.054688 69.117188 330.535156 68.59375 331.117188 67.277344 331.117188 66.140625 331.117188 65.605469 330.792969 65.605469 330.144531 65.605469 329.910156 65.683594 329.65625 65.917969 329.242188M72.28125 326.273438C72.28125 328.726563 73.453125 330.476563 75.246094 331.40625L75.425781 331.09375C73.796875 330.023438 73.195313 328.515625 73.195313 326.273438 73.195313 324.054688 73.796875 322.558594 75.425781 321.476563L75.246094 321.1875C73.453125 322.101563 72.28125 323.839844 72.28125 326.273438M80.6875 327.210938L80.320313 327.210938C79.960938 328.148438 79.726563 328.316406 78.933594 328.316406L77.21875 328.316406 77.21875 328.28125 81.132813 324.15625 81.179688 323.851563 77.09375 323.851563 76.679688 325.617188 77.027344 325.617188C77.25 324.867188 77.375 324.667969 78.085938 324.667969L79.894531 324.667969 79.894531 324.699219 75.988281 328.804688 75.945313 329.128906 80.183594 329.128906 80.6875 327.210938M84.792969 326.273438C84.792969 323.839844 83.621094 322.101563 81.824219 321.1875L81.644531 321.476563C83.273438 322.558594 83.875 324.054688 83.875 326.273438 83.875 328.515625 83.273438 330.023438 81.644531 331.09375L81.824219 331.40625C83.621094 330.476563 84.792969 328.726563 84.792969 326.273438M95.742188 325.480469L95.742188 324.722656 89.09375 324.722656 89.09375 325.480469zM95.742188 327.757813L95.742188 327.007813 89.09375 327.007813 89.09375 327.757813 95.742188 327.757813M104.921875 323.84375C104.921875 322.222656 104.429688 321.132813 103.371094 321.132813 101.554688 321.132813 99.992188 323.75 99.992188 326.808594 99.992188 328.539063 100.726563 329.285156 101.71875 329.285156 103.460938 329.285156 104.921875 327.234375 104.921875 323.84375zM101.941406 328.316406C101.351563 328.316406 100.59375 327.914063 100.59375 326.339844 100.59375 326.050781 100.617188 325.636719 100.648438 325.359375L104.273438 325.359375C103.972656 327.46875 103.015625 328.316406 101.941406 328.316406zM103.148438 322.101563C104.015625 322.101563 104.375 323.0625 104.375 324.109375 104.375 324.3125 104.363281 324.554688 104.351563 324.765625L100.761719 324.765625C101.148438 323.09375 102.199219 322.101563 103.148438 322.101563M108.890625 326.617188L115.539063 326.617188 115.539063 325.859375 108.890625 325.859375zM125.671875 323.851563C125.070313 323.898438 124.421875 323.921875 123.730469 323.921875 122.9375 323.90625 122.3125 323.863281 121.511719 323.863281 120.453125 323.863281 119.703125 324.199219 119.234375 325.179688L119.480469 325.347656C119.960938 324.765625 120.207031 324.757813 121.398438 324.757813 121.132813 325.703125 120.808594 326.351563 120.226563 327.242188 119.679688 328.09375 119.546875 328.269531 119.046875 328.972656L119.046875 329.128906 120.105469 329.128906C120.5625 328.371094 121.578125 325.949219 121.835938 324.765625 122.382813 324.765625 122.882813 324.789063 123.429688 324.800781 122.972656 326.039063 122.339844 327.410156 122.339844 328.371094 122.339844 328.839844 122.527344 329.230469 123.0625 329.230469 123.742188 329.230469 124.210938 328.90625 124.578125 328.359375L124.433594 328.171875C124.246094 328.316406 124.042969 328.449219 123.652344 328.449219 123.296875 328.449219 123.21875 328.082031 123.21875 327.78125 123.21875 326.929688 123.742188 325.347656 123.921875 324.8125 124.199219 324.824219 124.355469 324.824219 124.523438 324.824219 125.269531 324.824219 125.640625 324.265625 125.695313 323.984375L125.671875 323.851563M224.4375 47.839844C224.503906 48.328125 224.613281 48.585938 225.105469 48.585938 225.675781 48.585938 225.941406 48.351563 226.3125 47.816406L226.144531 47.636719C225.988281 47.804688 225.832031 47.914063 225.617188 47.914063 225.382813 47.914063 225.285156 47.828125 225.285156 47.367188L225.285156 44.839844C225.285156 43.675781 224.828125 43.117188 223.609375 43.117188 222.394531 43.117188 221.648438 43.722656 221.648438 44.347656 221.648438 44.714844 221.890625 44.882813 222.117188 44.882813 222.429688 44.882813 222.605469 44.714844 222.605469 44.367188 222.605469 43.699219 222.71875 43.464844 223.355469 43.464844 224.023438 43.464844 224.359375 43.832031 224.359375 44.804688L224.359375 45.292969C223.398438 45.597656 221.421875 45.886719 221.421875 47.359375 221.421875 48.070313 221.890625 48.609375 222.753906 48.609375 223.464844 48.609375 223.867188 48.296875 224.390625 47.839844zM224.359375 47.503906C223.976563 47.816406 223.578125 47.992188 223.210938 47.992188 222.730469 47.992188 222.40625 47.648438 222.40625 47.089844 222.40625 46.222656 223.34375 45.917969 224.359375 45.664063L224.359375 47.503906M228.441406 43.152344L228.171875 43.152344 226.789063 43.488281 226.789063 43.800781C226.789063 43.800781 226.914063 43.777344 227.136719 43.777344 227.539063 43.777344 227.539063 43.976563 227.539063 44.378906L227.539063 47.445313C227.539063 48.070313 227.460938 48.207031 226.722656 48.207031L226.722656 48.53125 229.511719 48.53125 229.511719 48.207031C228.675781 48.207031 228.464844 48.097656 228.464844 47.390625L228.464844 44.847656C228.730469 44.402344 229.089844 43.933594 229.34375 43.933594 229.480469 43.933594 229.703125 44.3125 230.070313 44.3125 230.316406 44.3125 230.5625 44.136719 230.5625 43.710938 230.5625 43.332031 230.351563 43.085938 229.914063 43.085938 229.378906 43.085938 229.042969 43.476563 228.476563 44.300781L228.441406 44.300781 228.441406 43.152344M232.027344 46.476563C231.503906 46.878906 231.113281 47.347656 231.113281 47.75 231.113281 48.0625 231.359375 48.363281 231.738281 48.550781L231.738281 48.597656C231.136719 49.175781 230.835938 49.558594 230.835938 49.925781 230.835938 50.539063 231.269531 51.152344 232.730469 51.152344 234.136719 51.152344 235.789063 50.636719 235.789063 49.144531 235.789063 47.859375 234.71875 47.816406 233.3125 47.816406 232.285156 47.816406 231.996094 47.703125 231.996094 47.367188 231.996094 47.179688 232.171875 46.777344 232.285156 46.621094 232.574219 46.722656 232.886719 46.789063 233.242188 46.789063 234.414063 46.789063 235.21875 46.132813 235.21875 45.09375 235.21875 44.535156 234.972656 44.167969 234.816406 43.945313L234.816406 43.890625 235.867188 43.921875 235.867188 43.320313 234.425781 43.398438C234.425781 43.398438 233.925781 43.117188 233.1875 43.117188 232.007813 43.117188 231.167969 43.820313 231.167969 44.9375 231.167969 45.664063 231.492188 46.140625 232.027344 46.453125zM233.109375 43.519531C233.824219 43.519531 234.226563 44.125 234.226563 45.027344 234.226563 46.085938 233.8125 46.398438 233.253906 46.398438 232.53125 46.398438 232.148438 45.851563 232.148438 44.890625 232.148438 43.957031 232.53125 43.519531 233.109375 43.519531zM232.015625 48.640625C232.171875 48.640625 232.382813 48.652344 233.277344 48.664063 234.023438 48.675781 235.21875 48.652344 235.21875 49.457031 235.21875 49.9375 234.695313 50.515625 233.378906 50.515625 232.242188 50.515625 231.703125 50.191406 231.703125 49.546875 231.703125 49.3125 231.78125 49.054688 232.015625 48.640625M238.378906 45.675781C238.378906 48.128906 239.550781 49.878906 241.347656 50.804688L241.527344 50.492188C239.898438 49.421875 239.296875 47.914063 239.296875 45.675781 239.296875 43.453125 239.898438 41.957031 241.527344 40.875L241.347656 40.585938C239.550781 41.5 238.378906 43.242188 238.378906 45.675781M246.785156 46.609375L246.417969 46.609375C246.0625 47.550781 245.828125 47.714844 245.035156 47.714844L243.316406 47.714844 243.316406 47.683594 247.234375 43.554688 247.277344 43.253906 243.195313 43.253906 242.78125 45.015625 243.128906 45.015625C243.351563 44.269531 243.472656 44.066406 244.1875 44.066406L245.992188 44.066406 245.992188 44.101563 242.089844 48.207031 242.046875 48.53125 246.285156 48.53125 246.785156 46.609375M250.890625 45.675781C250.890625 43.242188 249.71875 41.5 247.925781 40.585938L247.746094 40.875C249.375 41.957031 249.976563 43.453125 249.976563 45.675781 249.976563 47.914063 249.375 49.421875 247.746094 50.492188L247.925781 50.804688C249.71875 49.878906 250.890625 48.128906 250.890625 45.675781M261.839844 44.882813L261.839844 44.125 255.191406 44.125 255.191406 44.882813zM261.839844 47.15625L261.839844 46.410156 255.191406 46.410156 255.191406 47.15625 261.839844 47.15625M271.023438 43.242188C271.023438 41.625 270.53125 40.53125 269.46875 40.53125 267.652344 40.53125 266.089844 43.152344 266.089844 46.210938 266.089844 47.9375 266.828125 48.6875 267.820313 48.6875 269.558594 48.6875 271.023438 46.632813 271.023438 43.242188zM268.042969 47.714844C267.453125 47.714844 266.691406 47.3125 266.691406 45.742188 266.691406 45.449219 266.714844 45.039063 266.746094 44.761719L270.375 44.761719C270.074219 46.867188 269.113281 47.714844 268.042969 47.714844zM269.246094 41.503906C270.117188 41.503906 270.476563 42.460938 270.476563 43.511719 270.476563 43.710938 270.464844 43.957031 270.453125 44.167969L266.859375 44.167969C267.25 42.492188 268.300781 41.503906 269.246094 41.503906M58.335938 47.839844C58.402344 48.328125 58.515625 48.585938 59.007813 48.585938 59.574219 48.585938 59.84375 48.351563 60.210938 47.816406L60.042969 47.636719C59.886719 47.804688 59.730469 47.914063 59.519531 47.914063 59.285156 47.914063 59.183594 47.828125 59.183594 47.367188L59.183594 44.839844C59.183594 43.675781 58.726563 43.117188 57.511719 43.117188 56.296875 43.117188 55.546875 43.722656 55.546875 44.347656 55.546875 44.714844 55.792969 44.882813 56.015625 44.882813 56.328125 44.882813 56.507813 44.714844 56.507813 44.367188 56.507813 43.699219 56.617188 43.464844 57.253906 43.464844 57.921875 43.464844 58.257813 43.832031 58.257813 44.804688L58.257813 45.292969C57.296875 45.597656 55.324219 45.886719 55.324219 47.359375 55.324219 48.070313 55.792969 48.609375 56.652344 48.609375 57.367188 48.609375 57.765625 48.296875 58.292969 47.839844zM58.257813 47.503906C57.878906 47.816406 57.476563 47.992188 57.109375 47.992188 56.628906 47.992188 56.304688 47.648438 56.304688 47.089844 56.304688 46.222656 57.242188 45.917969 58.257813 45.664063L58.257813 47.503906M62.34375 43.152344L62.074219 43.152344 60.691406 43.488281 60.691406 43.800781C60.691406 43.800781 60.8125 43.777344 61.035156 43.777344 61.4375 43.777344 61.4375 43.976563 61.4375 44.378906L61.4375 47.445313C61.4375 48.070313 61.359375 48.207031 60.625 48.207031L60.625 48.53125 63.414063 48.53125 63.414063 48.207031C62.578125 48.207031 62.363281 48.097656 62.363281 47.390625L62.363281 44.847656C62.632813 44.402344 62.988281 43.933594 63.246094 43.933594 63.378906 43.933594 63.601563 44.3125 63.96875 44.3125 64.214844 44.3125 64.460938 44.136719 64.460938 43.710938 64.460938 43.332031 64.25 43.085938 63.8125 43.085938 63.277344 43.085938 62.945313 43.476563 62.375 44.300781L62.34375 44.300781 62.34375 43.152344M65.929688 46.476563C65.402344 46.878906 65.011719 47.347656 65.011719 47.75 65.011719 48.0625 65.257813 48.363281 65.636719 48.550781L65.636719 48.597656C65.035156 49.175781 64.734375 49.558594 64.734375 49.925781 64.734375 50.539063 65.167969 51.152344 66.632813 51.152344 68.035156 51.152344 69.6875 50.636719 69.6875 49.144531 69.6875 47.859375 68.617188 47.816406 67.210938 47.816406 66.183594 47.816406 65.894531 47.703125 65.894531 47.367188 65.894531 47.179688 66.074219 46.777344 66.183594 46.621094 66.476563 46.722656 66.789063 46.789063 67.144531 46.789063 68.316406 46.789063 69.117188 46.132813 69.117188 45.09375 69.117188 44.535156 68.875 44.167969 68.71875 43.945313L68.71875 43.890625 69.765625 43.921875 69.765625 43.320313 68.328125 43.398438C68.328125 43.398438 67.824219 43.117188 67.085938 43.117188 65.90625 43.117188 65.070313 43.820313 65.070313 44.9375 65.070313 45.664063 65.390625 46.140625 65.929688 46.453125zM67.011719 43.519531C67.722656 43.519531 68.125 44.125 68.125 45.027344 68.125 46.085938 67.710938 46.398438 67.15625 46.398438 66.429688 46.398438 66.050781 45.851563 66.050781 44.890625 66.050781 43.957031 66.429688 43.519531 67.011719 43.519531zM65.917969 48.640625C66.074219 48.640625 66.285156 48.652344 67.179688 48.664063 67.925781 48.675781 69.117188 48.652344 69.117188 49.457031 69.117188 49.9375 68.59375 50.515625 67.277344 50.515625 66.140625 50.515625 65.605469 50.191406 65.605469 49.546875 65.605469 49.3125 65.683594 49.054688 65.917969 48.640625M72.28125 45.675781C72.28125 48.128906 73.453125 49.878906 75.246094 50.804688L75.425781 50.492188C73.796875 49.421875 73.195313 47.914063 73.195313 45.675781 73.195313 43.453125 73.796875 41.957031 75.425781 40.875L75.246094 40.585938C73.453125 41.5 72.28125 43.242188 72.28125 45.675781M80.6875 46.609375L80.320313 46.609375C79.960938 47.550781 79.726563 47.714844 78.933594 47.714844L77.21875 47.714844 77.21875 47.683594 81.132813 43.554688 81.179688 43.253906 77.09375 43.253906 76.679688 45.015625 77.027344 45.015625C77.25 44.269531 77.375 44.066406 78.085938 44.066406L79.894531 44.066406 79.894531 44.101563 75.988281 48.207031 75.945313 48.53125 80.183594 48.53125 80.6875 46.609375M84.792969 45.675781C84.792969 43.242188 83.621094 41.5 81.824219 40.585938L81.644531 40.875C83.273438 41.957031 83.875 43.453125 83.875 45.675781 83.875 47.914063 83.273438 49.421875 81.644531 50.492188L81.824219 50.804688C83.621094 49.878906 84.792969 48.128906 84.792969 45.675781M95.742188 44.882813L95.742188 44.125 89.09375 44.125 89.09375 44.882813zM95.742188 47.15625L95.742188 46.410156 89.09375 46.410156 89.09375 47.15625 95.742188 47.15625M106.574219 43.253906C105.96875 43.296875 105.324219 43.320313 104.632813 43.320313 103.839844 43.308594 103.214844 43.265625 102.410156 43.265625 101.351563 43.265625 100.605469 43.597656 100.136719 44.578125L100.382813 44.75C100.859375 44.167969 101.105469 44.15625 102.300781 44.15625 102.03125 45.105469 101.707031 45.753906 101.128906 46.644531 100.582031 47.492188 100.449219 47.671875 99.945313 48.375L99.945313 48.53125 101.007813 48.53125C101.464844 47.769531 102.476563 45.351563 102.734375 44.167969 103.28125 44.167969 103.785156 44.191406 104.328125 44.203125 103.871094 45.4375 103.238281 46.8125 103.238281 47.769531 103.238281 48.238281 103.425781 48.628906 103.964844 48.628906 104.640625 48.628906 105.109375 48.308594 105.480469 47.761719L105.335938 47.570313C105.144531 47.714844 104.945313 47.847656 104.554688 47.847656 104.195313 47.847656 104.117188 47.480469 104.117188 47.179688 104.117188 46.332031 104.640625 44.75 104.820313 44.214844 105.101563 44.222656 105.257813 44.222656 105.421875 44.222656 106.171875 44.222656 106.539063 43.664063 106.59375 43.386719L106.574219 43.253906M110.191406 46.019531L116.839844 46.019531 116.839844 45.261719 110.191406 45.261719zM125.320313 43.242188C125.320313 41.625 124.832031 40.53125 123.769531 40.53125 121.953125 40.53125 120.390625 43.152344 120.390625 46.210938 120.390625 47.9375 121.128906 48.6875 122.121094 48.6875 123.859375 48.6875 125.320313 46.632813 125.320313 43.242188zM122.34375 47.714844C121.753906 47.714844 120.992188 47.3125 120.992188 45.742188 120.992188 45.449219 121.015625 45.039063 121.046875 44.761719L124.675781 44.761719C124.371094 46.867188 123.414063 47.714844 122.34375 47.714844zM123.546875 41.503906C124.417969 41.503906 124.773438 42.460938 124.773438 43.511719 124.773438 43.710938 124.765625 43.957031 124.753906 44.167969L121.160156 44.167969C121.550781 42.492188 122.601563 41.503906 123.546875 41.503906" />
  <path d="M1784.84375 1546.760937C1833.476563 1583.20625 1858.945313 1642.815625 1851.679688 1703.167187 1846.132813 1749.221875 1821.992188 1791.01875 1784.84375 1818.870312M1580.742188 1818.870312C1532.148438 1782.425 1506.679688 1722.776562 1513.945313 1662.464062 1519.492188 1616.409375 1543.632813 1574.573437 1580.742188 1546.760937" transform="matrix(.1 0 0 -.1 0 354.43)" fill="none" stroke-width="7.97" stroke-linecap="round" stroke-linejoin="round" stroke="#e14b3b" stroke-miterlimit="10" />
  <path d="M194.121094 175.441406C194.121094 173.824219 193.632813 172.730469 192.570313 172.730469 190.753906 172.730469 189.191406 175.351563 189.191406 178.410156 189.191406 180.140625 189.925781 180.886719 190.921875 180.886719 192.660156 180.886719 194.121094 178.832031 194.121094 175.441406zM191.140625 179.914063C190.550781 179.914063 189.792969 179.515625 189.792969 177.941406 189.792969 177.648438 189.816406 177.238281 189.847656 176.960938L193.476563 176.960938C193.171875 179.066406 192.214844 179.914063 191.140625 179.914063zM192.347656 173.703125C193.21875 173.703125 193.574219 174.660156 193.574219 175.710938 193.574219 175.910156 193.5625 176.15625 193.554688 176.367188L189.960938 176.367188C190.351563 174.695313 191.398438 173.703125 192.347656 173.703125M194.121094 194.140625C194.121094 192.523438 193.632813 191.433594 192.570313 191.433594 190.753906 191.433594 189.191406 194.050781 189.191406 197.109375 189.191406 198.839844 189.925781 199.585938 190.921875 199.585938 192.660156 199.585938 194.121094 197.53125 194.121094 194.140625zM191.140625 198.617188C190.550781 198.617188 189.792969 198.214844 189.792969 196.640625 189.792969 196.351563 189.816406 195.9375 189.847656 195.660156L193.476563 195.660156C193.171875 197.765625 192.214844 198.617188 191.140625 198.617188zM192.347656 192.402344C193.21875 192.402344 193.574219 193.359375 193.574219 194.410156 193.574219 194.609375 193.5625 194.855469 193.554688 195.066406L189.960938 195.066406C190.351563 193.394531 191.398438 192.402344 192.347656 192.402344M147.320313 175.441406C147.320313 173.824219 146.832031 172.730469 145.769531 172.730469 143.953125 172.730469 142.390625 175.351563 142.390625 178.410156 142.390625 180.140625 143.128906 180.886719 144.121094 180.886719 145.859375 180.886719 147.320313 178.832031 147.320313 175.441406zM144.34375 179.914063C143.753906 179.914063 142.992188 179.515625 142.992188 177.941406 142.992188 177.648438 143.015625 177.238281 143.046875 176.960938L146.675781 176.960938C146.371094 179.066406 145.414063 179.914063 144.34375 179.914063zM145.546875 173.703125C146.417969 173.703125 146.773438 174.660156 146.773438 175.710938 146.773438 175.910156 146.765625 176.15625 146.753906 176.367188L143.160156 176.367188C143.550781 174.695313 144.601563 173.703125 145.546875 173.703125M147.320313 194.140625C147.320313 192.523438 146.832031 191.433594 145.769531 191.433594 143.953125 191.433594 142.390625 194.050781 142.390625 197.109375 142.390625 198.839844 143.128906 199.585938 144.121094 199.585938 145.859375 199.585938 147.320313 197.53125 147.320313 194.140625zM144.34375 198.617188C143.753906 198.617188 142.992188 198.214844 142.992188 196.640625 142.992188 196.351563 143.015625 195.9375 143.046875 195.660156L146.675781 195.660156C146.371094 197.765625 145.414063 198.617188 144.34375 198.617188zM145.546875 192.402344C146.417969 192.402344 146.773438 193.359375 146.773438 194.410156 146.773438 194.609375 146.765625 194.855469 146.753906 195.066406L143.160156 195.066406C143.550781 193.394531 144.601563 192.402344 145.546875 192.402344" fill="#e14b3b" />
</svg>