<?xml version="1.0" encoding="UTF-8" standalone="no"?>
<!-- Created with Inkscape (http://www.inkscape.org/) -->

<svg
   width="429.14917mm"
   height="16.658873mm"
   viewBox="0 0 429.14918 16.658872"
   version="1.1"
   id="svg193"
   inkscape:version="1.2.2 (732a01da63, 2022-12-09)"
   sodipodi:docname="fondec_ectro.svg"
   xmlns:inkscape="http://www.inkscape.org/namespaces/inkscape"
   xmlns:sodipodi="http://sodipodi.sourceforge.net/DTD/sodipodi-0.dtd"
   xmlns="http://www.w3.org/2000/svg"
   xmlns:svg="http://www.w3.org/2000/svg">
  <sodipodi:namedview
     id="namedview195"
     pagecolor="#ffffff"
     bordercolor="#000000"
     borderopacity="0.25"
     inkscape:showpageshadow="2"
     inkscape:pageopacity="0.0"
     inkscape:pagecheckerboard="0"
     inkscape:deskcolor="#d1d1d1"
     inkscape:document-units="mm"
     showgrid="false"
     inkscape:zoom="1.8241869"
     inkscape:cx="1373.2146"
     inkscape:cy="92.644016"
     inkscape:window-width="1680"
     inkscape:window-height="1027"
     inkscape:window-x="1672"
     inkscape:window-y="-8"
     inkscape:window-maximized="1"
     inkscape:current-layer="layer1" />
  <defs
     id="defs190" />
  <g
     inkscape:label="Calque 1"
     inkscape:groupmode="layer"
     id="layer1"
     transform="translate(129.70505,-106.77714)">
    <rect
       style="fill:#d7f4d7;stroke-width:0.26449"
       id="rect376"
       width="429.14917"
       height="16.658873"
       x="-129.70505"
       y="106.77714" />
    <path
       class="st1"
       d="m 292.10603,122.07962 c 0,0.45476 -0.37295,0.82683 -0.82878,0.82683 h -14.91786 c -0.45582,0 -0.82877,-0.37207 -0.82877,-0.82683 v -12.40234 c 0,-0.45475 0.37295,-0.82682 0.82877,-0.82682 h 14.91786 c 0.45583,0 0.82878,0.37207 0.82878,0.82682 z"
       id="path6"
       style="opacity:0.2;fill:#231f20;stroke-width:0.413896"
       inkscape:connector-curvature="0" />
    <path
       class="st2"
       d="m 292.10603,121.2528 c 0,0.45476 -0.37295,0.82682 -0.82878,0.82682 h -14.91786 c -0.45582,0 -0.82877,-0.37206 -0.82877,-0.82682 v -12.40234 c 0,-0.45476 0.37295,-0.82683 0.82877,-0.82683 h 14.91786 c 0.45583,0 0.82878,0.37207 0.82878,0.82683 z"
       id="path8"
       style="fill:#4f5d73;stroke-width:0.413896"
       inkscape:connector-curvature="0" />
    <path
       class="st3"
       d="m 290.44848,117.11869 c 0,0.45475 -0.37294,0.82682 -0.82877,0.82682 h -11.60278 c -0.45582,0 -0.82877,-0.37207 -0.82877,-0.82682 v -6.65593 c 0,-0.45475 0.37295,-0.82682 0.82877,-0.82682 h 11.60278 c 0.45583,0 0.82877,0.37207 0.82877,0.82682 z"
       id="path10"
       style="fill:#e0e0d1;stroke-width:0.413896"
       inkscape:connector-curvature="0" />
    <g
       class="st4"
       id="g14"
       transform="matrix(0.41438266,0,0,0.41341145,270.558,101.82246)"
       style="opacity:0.2">
      <path
         class="st5"
         d="M 46,18.9 H 18 c -1.1,0 -2,0.9 -2,2 V 22 c 0,-1.1 0.9,-2 2,-2 h 28 c 1.1,0 2,0.9 2,2 v -1.1 c 0,-1.1 -0.9,-2 -2,-2 z"
         id="path12"
         inkscape:connector-curvature="0"
         style="fill:#231f20" />
    </g>
    <path
       class="st1"
       d="m 278.8457,120.42598 c 0,0.45475 -0.37294,0.82682 -0.82877,0.82682 v 0 c -0.45582,0 -0.82877,-0.37207 -0.82877,-0.82682 v 0 c 0,-0.45475 0.37295,-0.82682 0.82877,-0.82682 v 0 c 0.45583,0 0.82877,0.37207 0.82877,0.82682 z"
       id="path16"
       style="opacity:0.2;fill:#231f20;stroke-width:0.413896"
       inkscape:connector-curvature="0" />
    <path
       class="st1"
       d="m 290.44848,120.42598 c 0,0.45475 -0.37294,0.82682 -0.82877,0.82682 v 0 c -0.45582,0 -0.82877,-0.37207 -0.82877,-0.82682 v 0 c 0,-0.45475 0.37295,-0.82682 0.82877,-0.82682 v 0 c 0.45583,0 0.82877,0.37207 0.82877,0.82682 z"
       id="path18"
       style="opacity:0.2;fill:#231f20;stroke-width:0.413896"
       inkscape:connector-curvature="0" />
    <path
       class="st6"
       d="m 278.8457,120.01257 c 0,0.45475 -0.37294,0.82682 -0.82877,0.82682 v 0 c -0.45582,0 -0.82877,-0.37207 -0.82877,-0.82682 v 0 c 0,-0.45475 0.37295,-0.82683 0.82877,-0.82683 v 0 c 0.45583,0 0.82877,0.37208 0.82877,0.82683 z"
       id="path20"
       style="fill:#76c2af;stroke-width:0.413896"
       inkscape:connector-curvature="0" />
    <path
       class="st6"
       d="m 290.44848,120.01257 c 0,0.45475 -0.37294,0.82682 -0.82877,0.82682 v 0 c -0.45582,0 -0.82877,-0.37207 -0.82877,-0.82682 v 0 c 0,-0.45475 0.37295,-0.82683 0.82877,-0.82683 v 0 c 0.45583,0 0.82877,0.37208 0.82877,0.82683 z"
       id="path22"
       style="fill:#76c2af;stroke-width:0.413896"
       inkscape:connector-curvature="0" />
    <path
       class="st0"
       d="m 280.91763,120.42598 c 0,0.24805 -0.16576,0.41341 -0.41438,0.41341 v 0 c -0.24864,0 -0.41439,-0.16536 -0.41439,-0.41341 v -0.82682 c 0,-0.24805 0.16575,-0.41342 0.41439,-0.41342 v 0 c 0.24862,0 0.41438,0.16537 0.41438,0.41342 z"
       id="path24"
       style="fill:#f5cf87;stroke-width:0.413896"
       inkscape:connector-curvature="0" />
    <path
       class="st0"
       d="m 282.57517,120.42598 c 0,0.24805 -0.16576,0.41341 -0.41438,0.41341 v 0 c -0.24864,0 -0.41439,-0.16536 -0.41439,-0.41341 v -0.82682 c 0,-0.24805 0.16575,-0.41342 0.41439,-0.41342 v 0 c 0.24862,0 0.41438,0.16537 0.41438,0.41342 z"
       id="path26"
       style="fill:#f5cf87;stroke-width:0.413896"
       inkscape:connector-curvature="0" />
    <path
       class="st0"
       d="m 285.89025,120.42598 c 0,0.24805 -0.16576,0.41341 -0.41439,0.41341 v 0 c -0.24863,0 -0.41438,-0.16536 -0.41438,-0.41341 v -0.82682 c 0,-0.24805 0.16575,-0.41342 0.41438,-0.41342 v 0 c 0.24863,0 0.41439,0.16537 0.41439,0.41342 z"
       id="path28"
       style="fill:#f5cf87;stroke-width:0.413896"
       inkscape:connector-curvature="0" />
    <path
       class="st0"
       d="m 287.54779,120.42598 c 0,0.24805 -0.16575,0.41341 -0.41439,0.41341 v 0 c -0.24863,0 -0.41438,-0.16536 -0.41438,-0.41341 v -0.82682 c 0,-0.24805 0.16575,-0.41342 0.41438,-0.41342 v 0 c 0.24864,0 0.41439,0.16537 0.41439,0.41342 z"
       id="path30"
       style="fill:#f5cf87;stroke-width:0.413896"
       inkscape:connector-curvature="0" />
    <path
       class="st0"
       d="m 284.23271,120.42598 c 0,0.24805 -0.16576,0.41341 -0.41439,0.41341 v 0 c -0.24863,0 -0.41438,-0.16536 -0.41438,-0.41341 v -0.82682 c 0,-0.24805 0.16575,-0.41342 0.41438,-0.41342 v 0 c 0.24863,0 0.41439,0.16537 0.41439,0.41342 z"
       id="path32"
       style="fill:#f5cf87;stroke-width:0.413896"
       inkscape:connector-curvature="0" />
    <g
       class="st4"
       id="g44"
       transform="matrix(0.41438266,0,0,0.41341145,270.558,101.82246)"
       style="opacity:0.2">
      <path
         class="st5"
         d="m 24,42 c -0.6,0 -1,0.4 -1,1 v 1 c 0,-0.6 0.4,-1 1,-1 0.6,0 1,0.4 1,1 v -1 c 0,-0.6 -0.4,-1 -1,-1 z"
         id="path34"
         inkscape:connector-curvature="0"
         style="fill:#231f20" />
      <path
         class="st5"
         d="m 28,42 c -0.6,0 -1,0.4 -1,1 v 1 c 0,-0.6 0.4,-1 1,-1 0.6,0 1,0.4 1,1 v -1 c 0,-0.6 -0.4,-1 -1,-1 z"
         id="path36"
         inkscape:connector-curvature="0"
         style="fill:#231f20" />
      <path
         class="st5"
         d="m 36,42 c -0.6,0 -1,0.4 -1,1 v 1 c 0,-0.6 0.4,-1 1,-1 0.6,0 1,0.4 1,1 v -1 c 0,-0.6 -0.4,-1 -1,-1 z"
         id="path38"
         inkscape:connector-curvature="0"
         style="fill:#231f20" />
      <path
         class="st5"
         d="m 40,42 c -0.6,0 -1,0.4 -1,1 v 1 c 0,-0.6 0.4,-1 1,-1 0.6,0 1,0.4 1,1 v -1 c 0,-0.6 -0.4,-1 -1,-1 z"
         id="path40"
         inkscape:connector-curvature="0"
         style="fill:#231f20" />
      <path
         class="st5"
         d="m 32,42 c -0.6,0 -1,0.4 -1,1 v 1 c 0,-0.6 0.4,-1 1,-1 0.6,0 1,0.4 1,1 v -1 c 0,-0.6 -0.4,-1 -1,-1 z"
         id="path42"
         inkscape:connector-curvature="0"
         style="fill:#231f20" />
    </g>
    <g
       id="g48"
       transform="matrix(0.41438266,0,0,0.41341145,270.558,101.82246)">
      <path
         class="st7"
         d="M 48,37 V 20.9 c 0,-1.1 -0.9,-2 -2,-2 H 25.5 L 37.1,39 H 46 c 1.1,0 2,-0.9 2,-2 z"
         id="path46"
         inkscape:connector-curvature="0"
         style="opacity:0.2;fill:#ffffff" />
    </g>
  </g>
</svg>
