<?xml version="1.0" encoding="UTF-8" standalone="no"?>
<!-- Generator: Adobe Illustrator 19.0.0, SVG Export Plug-In . SVG Version: 6.00 Build 0)  -->

<svg
   xmlns:dc="http://purl.org/dc/elements/1.1/"
   xmlns:cc="http://creativecommons.org/ns#"
   xmlns:rdf="http://www.w3.org/1999/02/22-rdf-syntax-ns#"
   xmlns:svg="http://www.w3.org/2000/svg"
   xmlns="http://www.w3.org/2000/svg"
   xmlns:sodipodi="http://sodipodi.sourceforge.net/DTD/sodipodi-0.dtd"
   xmlns:inkscape="http://www.inkscape.org/namespaces/inkscape"
   version="1.1"
   id="Capa_1"
   x="0px"
   y="0px"
   viewBox="0 0 90 90"
   xml:space="preserve"
   sodipodi:docname="foottwitter.svg"
   width="90"
   height="90"
   inkscape:version="0.92.3 (2405546, 2018-03-11)"><metadata
   id="metadata75"><rdf:RDF><cc:Work
       rdf:about=""><dc:format>image/svg+xml</dc:format><dc:type
         rdf:resource="http://purl.org/dc/dcmitype/StillImage" /><dc:title></dc:title></cc:Work></rdf:RDF></metadata><defs
   id="defs73" /><sodipodi:namedview
   pagecolor="#ffffff"
   bordercolor="#666666"
   borderopacity="1"
   objecttolerance="10"
   gridtolerance="10"
   guidetolerance="10"
   inkscape:pageopacity="0"
   inkscape:pageshadow="2"
   inkscape:window-width="726"
   inkscape:window-height="480"
   id="namedview71"
   showgrid="false"
   fit-margin-top="0"
   fit-margin-left="0"
   fit-margin-right="0"
   fit-margin-bottom="0"
   inkscape:zoom="0.57049535"
   inkscape:cx="243.196"
   inkscape:cy="243.19502"
   inkscape:window-x="0"
   inkscape:window-y="0"
   inkscape:window-maximized="0"
   inkscape:current-layer="Capa_1"
   units="px" />
<g
   id="g38"
   transform="scale(0.18503632)">
	<g
   id="g6">
		<g
   id="g4">
			<path
   style="fill:#010002"
   d="M 395.193,0 H 91.198 C 40.826,0 0,40.826 0,91.198 v 303.995 c 0,50.372 40.826,91.198 91.198,91.198 h 303.995 c 50.372,0 91.198,-40.827 91.198,-91.198 V 91.198 C 486.392,40.826 445.565,0 395.193,0 Z m -31.007,188.598 0.182,7.752 c 0,79.16 -60.221,170.359 -170.359,170.359 -33.804,0 -65.268,-9.91 -91.776,-26.904 4.682,0.547 9.454,0.851 14.288,0.851 28.059,0 53.868,-9.576 74.357,-25.627 -26.204,-0.486 -48.305,-17.814 -55.935,-41.586 3.678,0.669 7.387,1.034 11.278,1.034 5.472,0 10.761,-0.699 15.777,-2.067 -27.39,-5.533 -48.031,-29.7 -48.031,-58.701 v -0.76 c 8.086,4.499 17.297,7.174 27.116,7.509 -16.051,-10.731 -26.63,-29.062 -26.63,-49.825 0,-10.974 2.949,-21.249 8.086,-30.095 29.518,36.236 73.658,60.069 123.422,62.562 -1.034,-4.378 -1.55,-8.968 -1.55,-13.649 0,-33.044 26.812,-59.857 59.887,-59.857 17.206,0 32.771,7.265 43.714,18.908 13.619,-2.706 26.448,-7.691 38.03,-14.531 -4.469,13.984 -13.953,25.718 -26.326,33.135 12.069,-1.429 23.651,-4.682 34.382,-9.424 -8.025,11.977 -18.209,22.526 -29.912,30.916 z"
   id="path2"
   inkscape:connector-curvature="0" />
		</g>
	</g>
	<g
   id="g8">
	</g>
	<g
   id="g10">
	</g>
	<g
   id="g12">
	</g>
	<g
   id="g14">
	</g>
	<g
   id="g16">
	</g>
	<g
   id="g18">
	</g>
	<g
   id="g20">
	</g>
	<g
   id="g22">
	</g>
	<g
   id="g24">
	</g>
	<g
   id="g26">
	</g>
	<g
   id="g28">
	</g>
	<g
   id="g30">
	</g>
	<g
   id="g32">
	</g>
	<g
   id="g34">
	</g>
	<g
   id="g36">
	</g>
</g>
<g
   id="g40"
   transform="translate(0,-396.391)">
</g>
<g
   id="g42"
   transform="translate(0,-396.391)">
</g>
<g
   id="g44"
   transform="translate(0,-396.391)">
</g>
<g
   id="g46"
   transform="translate(0,-396.391)">
</g>
<g
   id="g48"
   transform="translate(0,-396.391)">
</g>
<g
   id="g50"
   transform="translate(0,-396.391)">
</g>
<g
   id="g52"
   transform="translate(0,-396.391)">
</g>
<g
   id="g54"
   transform="translate(0,-396.391)">
</g>
<g
   id="g56"
   transform="translate(0,-396.391)">
</g>
<g
   id="g58"
   transform="translate(0,-396.391)">
</g>
<g
   id="g60"
   transform="translate(0,-396.391)">
</g>
<g
   id="g62"
   transform="translate(0,-396.391)">
</g>
<g
   id="g64"
   transform="translate(0,-396.391)">
</g>
<g
   id="g66"
   transform="translate(0,-396.391)">
</g>
<g
   id="g68"
   transform="translate(0,-396.391)">
</g>
</svg>