<?xml version="1.0" encoding="UTF-8" standalone="no"?>
<!-- Created with Inkscape (http://www.inkscape.org/) -->

<svg
   xmlns:dc="http://purl.org/dc/elements/1.1/"
   xmlns:cc="http://creativecommons.org/ns#"
   xmlns:rdf="http://www.w3.org/1999/02/22-rdf-syntax-ns#"
   xmlns:svg="http://www.w3.org/2000/svg"
   xmlns="http://www.w3.org/2000/svg"
   xmlns:sodipodi="http://sodipodi.sourceforge.net/DTD/sodipodi-0.dtd"
   xmlns:inkscape="http://www.inkscape.org/namespaces/inkscape"
   version="1.1"
   id="svg2"
   width="89.80735"
   height="89.71376"
   viewBox="0 0 89.80735 89.71376"
   sodipodi:docname="footwiki.svg"
   inkscape:version="0.92.3 (2405546, 2018-03-11)">
  <sodipodi:namedview
     pagecolor="#ffffff"
     bordercolor="#666666"
     borderopacity="1"
     objecttolerance="10"
     gridtolerance="10"
     guidetolerance="10"
     inkscape:pageopacity="0"
     inkscape:pageshadow="2"
     inkscape:window-width="686"
     inkscape:window-height="986"
     id="namedview4"
     showgrid="false"
     inkscape:zoom="1.9687094"
     inkscape:cx="108.58427"
     inkscape:cy="50.117606"
     inkscape:window-x="0"
     inkscape:window-y="0"
     inkscape:window-maximized="0"
     inkscape:current-layer="svg2"
     fit-margin-top="0"
     fit-margin-left="0"
     fit-margin-right="0"
     fit-margin-bottom="0"
     inkscape:pagecheckerboard="true" />
  <metadata
     id="metadata8">
    <rdf:RDF>
      <cc:Work
         rdf:about="">
        <dc:format>image/svg+xml</dc:format>
        <dc:type
           rdf:resource="http://purl.org/dc/dcmitype/StillImage" />
        <dc:title></dc:title>
      </cc:Work>
    </rdf:RDF>
  </metadata>
  <defs
     id="defs6" />
  <path
     style="opacity:1;fill:#000000;fill-opacity:1;fill-rule:evenodd;stroke:#dbd6d1;stroke-width:0.10468515;stroke-linecap:round;stroke-miterlimit:4;stroke-dasharray:none;stroke-dashoffset:0;stroke-opacity:1"
     d="M 0.04296875 0.064453125 L 0.04296875 89.648438 L 89.765625 89.648438 L 89.765625 0.064453125 L 0.04296875 0.064453125 z M 85.558594 1.046875 C 89.733596 1.1150657 89.126953 1.6028251 89.126953 4.4023438 C 89.126953 6.6759882 89.103788 6.8692264 88.761719 7.3984375 C 88.39955 7.9587374 88.367043 7.9649035 85.59375 7.96875 L 82.792969 7.9726562 L 80.123047 16.785156 C 77.167783 26.539234 68.23159 55.966772 67.015625 59.947266 C 66.589587 61.341918 64.533386 68.12147 62.447266 75.013672 C 59.824361 83.679333 58.548422 87.656401 58.308594 87.904297 C 58.056124 88.165262 57.859375 88.204462 57.587891 88.050781 C 57.164046 87.81085 56.736471 86.553285 49.839844 65.28125 C 47.502566 58.072119 45.538876 52.262007 45.476562 52.371094 C 45.414253 52.48018 42.598787 60.45407 39.220703 70.089844 C 35.84262 79.725619 32.97078 87.738 32.837891 87.896484 C 32.545325 88.245395 32.225491 88.254799 31.857422 87.923828 C 31.706052 87.787712 31.261166 86.624267 30.869141 85.337891 C 29.674808 81.418851 28.933587 79.002119 25.875 69.052734 C 22.937057 59.495796 19.420117 48.042014 15.152344 34.128906 C 13.90783 30.071737 11.593145 22.523972 10.007812 17.357422 L 7.125 7.9648438 L 4.2636719 7.9648438 C 0.51667958 7.9648438 0.6171875 8.0606365 0.6171875 4.4902344 C 0.6171875 2.2785969 0.65436646 1.9145531 0.91601562 1.5097656 C 1.2082135 1.0577187 1.4113502 1.0488281 11.396484 1.0488281 C 21.073157 1.0488281 21.593804 1.0701328 21.828125 1.4707031 C 22.027796 1.8120362 22.074219 2.4005079 22.074219 4.5683594 C 22.074219 8.0765247 22.169012 7.9648437 19.191406 7.9648438 C 17.149845 7.9648438 16.979078 7.9960858 17.044922 8.3671875 C 17.084292 8.5890638 19.079162 15.773941 21.478516 24.332031 C 28.90762 50.830385 30.373591 56.062732 32.089844 62.197266 C 33.003688 65.463683 33.798062 68.057692 33.855469 67.960938 C 33.952489 67.797426 36.127465 61.531183 40.4375 48.996094 C 41.418365 46.143398 42.313566 43.58127 42.427734 43.300781 C 42.620686 42.826741 42.280604 41.681278 37.601562 27.048828 C 34.832991 18.390869 32.336786 10.553937 32.052734 9.6347656 L 31.535156 7.9648438 L 30.007812 7.9648438 C 27.914217 7.9647683 27.884766 7.9155168 27.884766 4.4277344 C 27.884766 2.1868698 27.92472 1.7565802 28.158203 1.4296875 C 28.404288 1.0851513 29.168817 1.0488281 36.054688 1.0488281 C 45.145729 1.0488281 44.275391 0.69710396 44.275391 4.3652344 C 44.275391 7.684845 44.202972 7.811241 42.212891 7.9648438 L 40.720703 8.0800781 L 43.849609 18.683594 C 45.57039 24.515773 47.029473 29.368199 47.091797 29.466797 C 47.190367 29.622746 54.707031 8.561078 54.707031 8.1289062 C 54.707031 8.0388242 53.600276 7.9648438 52.248047 7.9648438 C 49.085858 7.9648438 49.193359 8.0896495 49.193359 4.4277344 C 49.193359 2.1868698 49.231361 1.7565802 49.464844 1.4296875 C 49.710704 1.0854676 50.460778 1.0488281 57.138672 1.0488281 C 65.985997 1.0488281 65.138229 0.68804727 65.134766 4.4492188 C 65.133566 5.8121741 65.08365 7.0401842 65.023438 7.1796875 C 64.768394 7.7706003 64.185775 7.9637416 62.650391 7.9667969 L 61.039062 7.9707031 L 56.195312 21.603516 C 53.531833 29.101801 51.042517 36.129014 50.662109 37.21875 L 49.970703 39.199219 L 50.578125 41.160156 C 50.912396 42.237841 52.31195 46.698132 53.689453 51.072266 C 55.066954 55.446401 56.815775 61.016722 57.574219 63.451172 C 58.332661 65.885626 58.995029 67.882485 59.046875 67.888672 C 59.098725 67.894872 59.678482 66.059054 60.333984 63.808594 C 62.063327 57.871435 71.895248 24.098622 74.410156 15.457031 L 76.556641 8.0800781 L 73.619141 7.9648438 C 69.891546 7.818612 70.054687 7.977828 70.054688 4.4707031 C 70.054688 2.2780624 70.090193 1.9141251 70.351562 1.5097656 C 70.642951 1.0589692 70.848161 1.0488281 79.589844 1.0488281 C 82.243884 1.0488281 84.166926 1.0241448 85.558594 1.046875 z "
     id="rect20" />
</svg>
