<?xml version="1.0" encoding="UTF-8" standalone="no"?>
<svg
   version="1.1"
   x="0px"
   y="0px"
   viewBox="0 0 100 100"
   xml:space="preserve"
   id="svg70"
   sodipodi:docname="ico_physique2.svg"
   width="100"
   height="100"
   inkscape:version="1.3 (0e150ed6c4, 2023-07-21)"
   xmlns:inkscape="http://www.inkscape.org/namespaces/inkscape"
   xmlns:sodipodi="http://sodipodi.sourceforge.net/DTD/sodipodi-0.dtd"
   xmlns:xlink="http://www.w3.org/1999/xlink"
   xmlns="http://www.w3.org/2000/svg"
   xmlns:svg="http://www.w3.org/2000/svg"
   xmlns:rdf="http://www.w3.org/1999/02/22-rdf-syntax-ns#"
   xmlns:cc="http://creativecommons.org/ns#"
   xmlns:dc="http://purl.org/dc/elements/1.1/"><metadata
   id="metadata76"><rdf:RDF><cc:Work
       rdf:about=""><dc:format>image/svg+xml</dc:format><dc:type
         rdf:resource="http://purl.org/dc/dcmitype/StillImage" /></cc:Work></rdf:RDF></metadata><defs
   id="defs74"><linearGradient
   id="linearGradient1"
   inkscape:collect="always"><stop
     style="stop-color:#4d4d4d;stop-opacity:1;"
     offset="0.30000001"
     id="stop1" /><stop
     style="stop-color:#808080;stop-opacity:0;"
     offset="1"
     id="stop2" /></linearGradient>&#10;	&#10;	&#10;	&#10;	&#10;	&#10;	&#10;	&#10;	&#10;	&#10;	&#10;	&#10;	&#10;	&#10;	&#10;	&#10;	&#10;&#10;		&#10;	<linearGradient
   inkscape:collect="always"
   xlink:href="#linearGradient1"
   id="linearGradient2"
   x1="0"
   y1="0"
   x2="100"
   y2="100"
   gradientUnits="userSpaceOnUse" /></defs><sodipodi:namedview
   pagecolor="#ffffff"
   bordercolor="#666666"
   borderopacity="1"
   objecttolerance="10"
   gridtolerance="10"
   guidetolerance="10"
   inkscape:pageopacity="0"
   inkscape:pageshadow="2"
   inkscape:window-width="1264"
   inkscape:window-height="945"
   id="namedview72"
   showgrid="true"
   inkscape:zoom="5"
   inkscape:cx="63"
   inkscape:cy="51.1"
   inkscape:window-x="70"
   inkscape:window-y="79"
   inkscape:window-maximized="0"
   inkscape:current-layer="svg70"
   inkscape:document-rotation="0"
   inkscape:showpageshadow="2"
   inkscape:pagecheckerboard="0"
   inkscape:deskcolor="#d1d1d1"><inkscape:grid
     type="xygrid"
     id="grid74"
     originx="0"
     originy="0"
     spacingy="1"
     spacingx="1"
     units="px"
     visible="true" /></sodipodi:namedview>&#10;<style
   type="text/css"
   id="style2">&#10;	.st0{fill:#4F5D73;}&#10;	.st1{opacity:0.2;}&#10;	.st2{fill:#231F20;}&#10;	.st3{fill:#C75C5C;}&#10;	.st4{fill:#E0995E;}&#10;	.st5{fill:#F5CF87;}&#10;	.st6{fill:#E0E0D1;}&#10;</style>&#10;&#10;<path
   style="fill:url(#linearGradient2);stroke-width:1.56433;fill-opacity:1"
   d="M 49.999998,0 A 50.117461,50 0 0 0 0.048943,46.66602 H 99.999998 A 50.117461,50 0 0 0 49.999998,0 Z M 0,53.33398 A 50.117461,50 0 0 0 49.999998,100 50.117461,50 0 0 0 99.951058,53.33398 Z"
   id="circle4"
   inkscape:connector-curvature="0" /><g
   id="g1"
   transform="translate(-23.451172,-100)"><g
     style="opacity:0.2"
     transform="matrix(1.5661707,0,0,1.5625,23.333057,100)"
     id="g10"
     class="st1">&#10;		<path
   style="fill:#231f20"
   inkscape:connector-curvature="0"
   id="path8"
   d="M 32.1,39.7 C 30.5,41.2 26,52.2 26,52.2 c -0.7,1.2 0.3,2.1 2.6,0.9 l 8.1,-4.4 c 4.4,-2.4 5.2,-3.1 5.2,-8 l -0.8,-5.9 c -0.3,-2 -1.8,-2.4 -3.3,-0.8 z"
   class="st2" />&#10;	</g><g
     style="opacity:0.2"
     transform="matrix(1.5661707,0,0,1.5625,23.333057,100)"
     id="g14"
     class="st1">&#10;		<path
   style="fill:#231f20"
   inkscape:connector-curvature="0"
   id="path12"
   d="m 27.1,34.7 c -1.6,1.6 -12.5,6.1 -12.5,6.1 -1.2,0.7 -2.1,-0.3 -0.9,-2.6 L 18,30 c 2.4,-4.4 3.1,-5.2 8,-5.2 l 5.9,0.8 c 2,0.3 2.4,1.8 0.8,3.3 z"
   class="st2" />&#10;	</g><g
     transform="matrix(1.5661707,0,0,1.5625,23.333057,100)"
     id="g18">&#10;		<path
   style="fill:#c75c5c"
   inkscape:connector-curvature="0"
   id="path16"
   d="M 32.1,37.7 C 30.5,39.2 26,50.2 26,50.2 c -0.7,1.2 0.3,2.1 2.6,0.9 l 8.1,-4.4 c 4.4,-2.4 5.2,-3.1 5.2,-8 l -0.8,-5.9 c -0.3,-2 -1.8,-2.4 -3.3,-0.8 z"
   class="st3" />&#10;	</g><g
     transform="matrix(1.5661707,0,0,1.5625,23.333057,100)"
     id="g22">&#10;		<path
   style="fill:#c75c5c"
   inkscape:connector-curvature="0"
   id="path20"
   d="m 27.1,32.7 c -1.6,1.6 -12.5,6.1 -12.5,6.1 -1.2,0.7 -2.1,-0.3 -0.9,-2.6 L 18,28 c 2.4,-4.4 3.1,-5.2 8,-5.2 l 5.9,0.8 c 2,0.3 2.4,1.8 0.8,3.3 z"
   class="st3" />&#10;	</g><g
     style="opacity:0.2"
     transform="matrix(1.5661707,0,0,1.5625,23.333057,100)"
     id="g26"
     class="st1">&#10;		<path
   style="fill:#231f20"
   inkscape:connector-curvature="0"
   id="path24"
   d="m 21.2,39.5 c 5.1,-5.1 9.3,-3.5 9.3,-3.5 0,0 1.5,4.3 -3.5,9.3 -5,5 -13.3,8.8 -13.9,8.1 -0.6,-0.5 3.1,-8.8 8.1,-13.9 z"
   class="st2" />&#10;	</g><g
     transform="matrix(1.5661707,0,0,1.5625,23.333057,100)"
     id="g30">&#10;		<path
   style="fill:#e0995e"
   inkscape:connector-curvature="0"
   id="path28"
   d="m 21.2,37.5 c 5.1,-5.1 9.3,-3.5 9.3,-3.5 0,0 1.5,4.3 -3.5,9.3 -5,5 -13.3,8.8 -13.9,8.1 -0.6,-0.5 3.1,-8.8 8.1,-13.9 z"
   class="st4" />&#10;	</g><g
     transform="matrix(1.5661707,0,0,1.5625,23.333057,100)"
     id="g34">&#10;		<path
   style="fill:#f5cf87"
   inkscape:connector-curvature="0"
   id="path32"
   d="m 25.5,33.3 c 5.1,-5.1 9.3,-3.5 9.3,-3.5 0,0 1.5,4.3 -3.5,9.3 -5,5 -13.3,8.8 -13.9,8.1 -0.7,-0.6 3,-8.8 8.1,-13.9 z"
   class="st5" />&#10;	</g><g
     style="opacity:0.2"
     transform="matrix(1.5661707,0,0,1.5625,23.333057,100)"
     id="g38"
     class="st1">&#10;		<path
   style="fill:#231f20"
   inkscape:connector-curvature="0"
   id="path36"
   d="m 43.6,37.1 c -7.8,7.8 -19.8,5.7 -19.8,5.7 0,0 -2.1,-12 5.7,-19.8 7.8,-7.8 19.6,-8.6 21.2,-7.1 1.5,1.5 0.7,13.4 -7.1,21.2 z"
   class="st2" />&#10;	</g><g
     transform="matrix(1.5661707,0,0,1.5625,23.333057,100)"
     id="g42">&#10;		<path
   style="fill:#e0e0d1"
   inkscape:connector-curvature="0"
   id="path40"
   d="m 43.6,35.1 c -7.8,7.8 -19.8,5.7 -19.8,5.7 0,0 -2.1,-12 5.7,-19.8 7.8,-7.8 19.6,-8.6 21.2,-7.1 1.5,1.5 0.7,13.4 -7.1,21.2 z"
   class="st6" />&#10;	</g><g
     style="opacity:0.2"
     transform="matrix(1.5661707,0,0,1.5625,23.333057,100)"
     id="g46"
     class="st1">&#10;		<path
   style="fill:#231f20"
   inkscape:connector-curvature="0"
   id="path44"
   d="m 21,47 c -0.8,0.8 -1.3,1.5 -2.1,0.7 v 0 c -0.8,-0.8 -0.1,-1.3 0.7,-2.1 l 9.9,-12.7 c 0.8,-0.8 4.2,-1.5 4.9,-0.7 v 0 c 0.8,0.8 0.1,4.2 -0.7,4.9 z"
   class="st2" />&#10;	</g><g
     transform="matrix(1.5661707,0,0,1.5625,23.333057,100)"
     id="g50">&#10;		<path
   style="fill:#c75c5c"
   inkscape:connector-curvature="0"
   id="path48"
   d="m 21,45 c -0.8,0.8 -1.3,1.5 -2.1,0.7 v 0 c -0.8,-0.8 -0.1,-1.3 0.7,-2.1 l 9.9,-12.7 c 0.8,-0.8 4.2,-1.5 4.9,-0.7 v 0 c 0.8,0.8 0.1,4.2 -0.7,4.9 z"
   class="st3" />&#10;	</g><g
     style="opacity:0.2"
     transform="matrix(1.5661707,0,0,1.5625,23.333057,100)"
     id="g54"
     class="st1">&#10;		<circle
   style="fill:#231f20"
   id="circle52"
   r="4"
   cy="27.1"
   cx="39.599998"
   class="st2" />&#10;	</g><g
     style="opacity:0.2"
     transform="matrix(1.5661707,0,0,1.5625,23.333057,100)"
     id="g58"
     class="st1">&#10;		<circle
   style="fill:#231f20"
   id="circle56"
   r="2"
   cy="21.5"
   cx="45.299999"
   class="st2" />&#10;	</g><g
     transform="matrix(1.5661707,0,0,1.5625,23.333057,100)"
     id="g62">&#10;		<circle
   style="fill:#4f5d73"
   id="circle60"
   r="4"
   cy="25.1"
   cx="39.599998"
   class="st0" />&#10;	</g><g
     transform="matrix(1.5661707,0,0,1.5625,23.333057,100)"
     id="g66">&#10;		<circle
   style="fill:#4f5d73"
   id="circle64"
   r="2"
   cy="19.5"
   cx="45.299999"
   class="st0" />&#10;	</g></g><g
   id="Layer_2"
   transform="matrix(0.78125,0,0,0.78125,-0.117839,50)">&#10;</g>&#10;</svg>
