<?xml version="1.0" encoding="UTF-8" standalone="no"?>
<svg
   version="1.1"
   id="Layer_1"
   x="0px"
   y="0px"
   viewBox="0 0 100 100"
   xml:space="preserve"
   sodipodi:docname="ico_electrotechnique2.svg"
   width="100"
   height="100"
   inkscape:version="1.3 (0e150ed6c4, 2023-07-21)"
   xmlns:inkscape="http://www.inkscape.org/namespaces/inkscape"
   xmlns:sodipodi="http://sodipodi.sourceforge.net/DTD/sodipodi-0.dtd"
   xmlns:xlink="http://www.w3.org/1999/xlink"
   xmlns="http://www.w3.org/2000/svg"
   xmlns:svg="http://www.w3.org/2000/svg"
   xmlns:rdf="http://www.w3.org/1999/02/22-rdf-syntax-ns#"
   xmlns:cc="http://creativecommons.org/ns#"
   xmlns:dc="http://purl.org/dc/elements/1.1/"><metadata
   id="metadata31"><rdf:RDF><cc:Work
       rdf:about=""><dc:format>image/svg+xml</dc:format><dc:type
         rdf:resource="http://purl.org/dc/dcmitype/StillImage" /></cc:Work></rdf:RDF></metadata><defs
   id="defs29"><linearGradient
     id="linearGradient1"
     inkscape:collect="always"><stop
       style="stop-color:#333333;stop-opacity:1;"
       offset="0.30000001"
       id="stop1" /><stop
       style="stop-color:#808080;stop-opacity:0;"
       offset="1"
       id="stop2" /></linearGradient><linearGradient
     inkscape:collect="always"
     xlink:href="#linearGradient1"
     id="linearGradient2"
     x1="0"
     y1="0"
     x2="100"
     y2="100"
     gradientUnits="userSpaceOnUse" /></defs><sodipodi:namedview
   pagecolor="#ffffff"
   bordercolor="#666666"
   borderopacity="1"
   objecttolerance="10"
   gridtolerance="10"
   guidetolerance="10"
   inkscape:pageopacity="0"
   inkscape:pageshadow="2"
   inkscape:window-width="1280"
   inkscape:window-height="961"
   id="namedview27"
   showgrid="true"
   inkscape:zoom="3.28"
   inkscape:cx="71.951219"
   inkscape:cy="53.506097"
   inkscape:window-x="-8"
   inkscape:window-y="-8"
   inkscape:window-maximized="1"
   inkscape:current-layer="Layer_1"
   inkscape:document-rotation="0"
   inkscape:showpageshadow="2"
   inkscape:pagecheckerboard="0"
   inkscape:deskcolor="#d1d1d1"><inkscape:grid
     type="xygrid"
     id="grid30"
     originx="0"
     originy="0"
     spacingy="1"
     spacingx="1"
     units="px"
     visible="true" /></sodipodi:namedview>&#10;<style
   type="text/css"
   id="style2">&#10;	.st0{fill:#76C2AF;}&#10;	.st1{opacity:0.2;fill:#231F20;}&#10;	.st2{fill:#4F5D73;}&#10;	.st3{fill:#E0E0D1;}&#10;</style>&#10;&#10;&#10;&#10;&#10;&#10;&#10;&#10;&#10;&#10;&#10;<ellipse
   onmouseout="style.opacity = 1;"
   onmouseover="style.opacity = 0.5;"
   ry="50"
   rx="49.999996"
   class="st0"
   cx="50"
   cy="50"
   id="circle4"
   style="opacity:1;fill:url(#linearGradient2);stroke-width:1.5625;fill-opacity:1" /><rect
   style="fill:#ffffff;stroke:none;stroke-width:0.468417;stroke-linecap:square;stroke-dasharray:0.936833, 0.468417;paint-order:stroke markers fill"
   id="rect23"
   width="99.999992"
   height="6.6666665"
   x="0"
   y="46.666656" /><g
   id="g1"
   transform="translate(-23.737371,-100)"><path
     class="st1"
     d="m 52.487368,178.75 c -1.249999,1.25 -3.124999,1.25 -4.374999,0 v 0 c -1.25,-1.25 -1.25,-3.125 0,-4.375 l 15.468752,-15.46876 c 1.25,-1.25 3.125,-1.25 4.375,0 v 0 c 1.25,1.25 1.25,3.125 0,4.375 z"
     id="path6"
     style="opacity:0.2;fill:#231f20;stroke-width:1.5625"
     inkscape:connector-curvature="0" /><path
     class="st1"
     d="m 72.33112,141.25 c -1.249999,1.25 -3.124999,1.25 -4.374999,0 v 0 c -1.25,-1.25 -1.25,-3.125 0,-4.375 l 15.468744,-15.46876 c 1.25,-1.25 3.125,-1.25 4.375,0 v 0 c 1.25,1.25 1.25,3.125 0,4.375 z"
     id="path8"
     style="opacity:0.2;fill:#231f20;stroke-width:1.5625"
     inkscape:connector-curvature="0" /><path
     class="st1"
     d="m 90.143617,158.90624 c -1.25,1.25 -3.125,1.25 -4.375,0 v 0 c -1.25,-1.25 -1.25,-3.125 0,-4.375 L 101.23736,139.0625 c 1.25,-1.25 3.125,-1.25 4.375,0 v 0 c 1.25,1.25 1.25,3.125 0,4.375 z"
     id="path10"
     style="opacity:0.2;fill:#231f20;stroke-width:1.5625"
     inkscape:connector-curvature="0" /><path
     class="st2"
     d="m 52.487368,175.625 c -1.249999,1.25 -3.124999,1.25 -4.374999,0 v 0 c -1.25,-1.25 -1.25,-3.125 0,-4.375 l 15.468752,-15.46876 c 1.25,-1.25 3.125,-1.25 4.375,0 v 0 c 1.25,1.25 1.25,3.125 0,4.375 z"
     id="path12"
     style="fill:#4f5d73;stroke-width:1.5625"
     inkscape:connector-curvature="0" /><path
     class="st3"
     d="m 72.33112,138.125 c -1.249999,1.25 -3.124999,1.25 -4.374999,0 v 0 c -1.25,-1.25 -1.25,-3.125 0,-4.375 l 15.468744,-15.46876 c 1.25,-1.25 3.125,-1.25 4.375,0 v 0 c 1.25,1.25 1.25,3.125 0,4.375 z"
     id="path14"
     style="fill:#e0e0d1;stroke-width:1.5625"
     inkscape:connector-curvature="0" /><path
     class="st3"
     d="m 90.143617,155.78124 c -1.25,1.25 -3.125,1.25 -4.375,0 v 0 c -1.25,-1.25 -1.25,-3.125 0,-4.375 L 101.23736,135.9375 c 1.25,-1.25 3.125,-1.25 4.375,0 v 0 c 1.25,1.25 1.25,3.125 0,4.375 z"
     id="path16"
     style="fill:#e0e0d1;stroke-width:1.5625"
     inkscape:connector-curvature="0" /><path
     class="st1"
     d="m 67.331121,130.15624 -12.499999,12.5 c -6.718753,6.71876 -6.718753,17.65626 0,24.375 l 4.375,4.375 c 6.718745,6.71876 17.656244,6.71876 24.374995,0 l 12.499999,-12.5 z"
     id="path18"
     style="opacity:0.2;fill:#231f20;stroke-width:1.5625"
     inkscape:connector-curvature="0" /><path
     class="st2"
     d="m 67.331121,127.65624 -12.499999,12.5 c -6.718753,6.71876 -6.718753,17.65626 0,24.375 l 4.375,4.375 c 6.718745,6.71876 17.656244,6.71876 24.374995,0 l 12.499999,-12.5 z"
     id="path20"
     style="fill:#4f5d73;stroke-width:1.5625"
     inkscape:connector-curvature="0" /><path
     class="st1"
     d="m 98.893616,163.125 c -1.25,1.25 -3.125,1.25 -4.375,0 L 63.581121,132.1875 c -1.25,-1.25 -1.25,-3.125 0,-4.375 v 0 c 1.25,-1.25 3.125,-1.25 4.375,0 L 98.893616,158.75 c 1.250004,1.25 1.250004,3.125 0,4.375 z"
     id="path22"
     style="opacity:0.2;fill:#231f20;stroke-width:1.5625"
     inkscape:connector-curvature="0" /><path
     class="st2"
     d="m 98.893616,160.15624 c -1.25,1.25 -3.125,1.25 -4.375,0 l -30.937495,-30.9375 c -1.25,-1.25 -1.25,-3.125 0,-4.375 v 0 c 1.25,-1.25 3.125,-1.25 4.375,0 l 30.937495,30.9375 c 1.250004,1.25 1.250004,3.125 0,4.375 z"
     id="path24"
     style="fill:#4f5d73;stroke-width:1.5625"
     inkscape:connector-curvature="0" /></g>&#10;</svg>
