<?xml version="1.0" encoding="UTF-8" standalone="no"?>
<svg
   version="1.1"
   id="Layer_1"
   x="0px"
   y="0px"
   viewBox="0 0 100 100"
   xml:space="preserve"
   sodipodi:docname="ico_audio2.svg"
   width="100"
   height="100"
   inkscape:version="1.3 (0e150ed6c4, 2023-07-21)"
   xmlns:inkscape="http://www.inkscape.org/namespaces/inkscape"
   xmlns:sodipodi="http://sodipodi.sourceforge.net/DTD/sodipodi-0.dtd"
   xmlns:xlink="http://www.w3.org/1999/xlink"
   xmlns="http://www.w3.org/2000/svg"
   xmlns:svg="http://www.w3.org/2000/svg"
   xmlns:rdf="http://www.w3.org/1999/02/22-rdf-syntax-ns#"
   xmlns:cc="http://creativecommons.org/ns#"
   xmlns:dc="http://purl.org/dc/elements/1.1/"><metadata
   id="metadata35"><rdf:RDF><cc:Work
       rdf:about=""><dc:format>image/svg+xml</dc:format><dc:type
         rdf:resource="http://purl.org/dc/dcmitype/StillImage" /></cc:Work></rdf:RDF></metadata><defs
   id="defs33"><linearGradient
     id="linearGradient1"
     inkscape:collect="always"><stop
       style="stop-color:#333333;stop-opacity:1;"
       offset="0.296875"
       id="stop1" /><stop
       style="stop-color:#343434;stop-opacity:0;"
       offset="1"
       id="stop2" /></linearGradient><linearGradient
     inkscape:collect="always"
     xlink:href="#linearGradient1"
     id="linearGradient2"
     x1="0"
     y1="0"
     x2="100"
     y2="100"
     gradientUnits="userSpaceOnUse" /></defs><sodipodi:namedview
   pagecolor="#ffffff"
   bordercolor="#666666"
   borderopacity="1"
   objecttolerance="10"
   gridtolerance="10"
   guidetolerance="10"
   inkscape:pageopacity="0"
   inkscape:pageshadow="2"
   inkscape:window-width="1280"
   inkscape:window-height="961"
   id="namedview31"
   showgrid="true"
   inkscape:zoom="5.0000001"
   inkscape:cx="46.599999"
   inkscape:cy="50.099999"
   inkscape:window-x="-8"
   inkscape:window-y="-8"
   inkscape:window-maximized="1"
   inkscape:current-layer="Layer_1"
   inkscape:document-rotation="0"
   inkscape:showpageshadow="2"
   inkscape:pagecheckerboard="0"
   inkscape:deskcolor="#d1d1d1"><inkscape:grid
     type="xygrid"
     id="grid21"
     originx="-20"
     originy="-100"
     spacingy="1"
     spacingx="1"
     units="px"
     visible="true" /></sodipodi:namedview>&#10;<style
   type="text/css"
   id="style2">&#10;	.st0{fill:#E0995E;}&#10;	.st1{opacity:0.2;}&#10;	.st2{fill:#231F20;}&#10;	.st3{fill:#4F5D73;}&#10;	.st4{fill:none;stroke:#FFFFFF;stroke-width:3;stroke-linecap:round;stroke-miterlimit:10;}&#10;	.st5{fill:none;stroke:#E0E0D1;stroke-width:3;stroke-linecap:round;stroke-miterlimit:10;}&#10;	.st6{fill:none;stroke:#F5CF87;stroke-width:3;stroke-linecap:round;stroke-miterlimit:10;}&#10;</style>&#10;&#10;&#10;&#10;&#10;&#10;&#10;&#10;<g
   id="g2"><g
     style="opacity:0.2"
     transform="matrix(1.5624999,0,0,1.5625,3.3333338,0)"
     id="g14"
     class="st1">&#10;	<path
   style="fill:#231f20"
   inkscape:connector-curvature="0"
   id="path6"
   d="M 33.9,12.2 C 33.6,12.1 33.3,12 33,12 c -0.4,0 -0.9,0.1 -1.2,0.4 L 17.3,24 H 12 c -1.1,0 -2,0.9 -2,2 v 16 c 0,1.1 0.9,2 2,2 h 5.3 l 14.5,11.6 c 0.4,0.3 0.8,0.4 1.2,0.4 0.3,0 0.6,-0.1 0.9,-0.2 0.7,-0.3 1.1,-1 1.1,-1.8 V 14 c 0,-0.8 -0.4,-1.5 -1.1,-1.8 z"
   class="st2" />&#10;	<path
   style="fill:#231f20"
   inkscape:connector-curvature="0"
   id="path8"
   d="m 38,36.8 c -0.7,0.5 -0.8,1.4 -0.3,2.1 0.3,0.4 0.8,0.6 1.2,0.6 0.3,0 0.6,-0.1 0.9,-0.3 1.7,-1.2 2.7,-3.2 2.7,-5.3 0,-2.1 -1,-4 -2.7,-5.3 -0.7,-0.5 -1.6,-0.3 -2.1,0.3 -0.5,0.7 -0.3,1.6 0.3,2.1 0.9,0.7 1.5,1.7 1.5,2.8 0,1.1 -0.5,2.4 -1.5,3 z"
   class="st2" />&#10;	<path
   style="fill:#231f20"
   inkscape:connector-curvature="0"
   id="path10"
   d="m 38.5,43.2 c -0.8,0.2 -1.3,1 -1,1.8 0.2,0.7 0.8,1.1 1.4,1.1 0.1,0 0.3,0 0.4,-0.1 5.4,-1.5 9.2,-6.4 9.2,-12 0,-5.6 -3.8,-10.6 -9.2,-12 -0.8,-0.2 -1.6,0.3 -1.8,1 -0.2,0.8 0.3,1.6 1,1.8 4.1,1.1 7,4.9 7,9.2 0,4.3 -2.9,8 -7,9.2 z"
   class="st2" />&#10;	<path
   style="fill:#231f20"
   inkscape:connector-curvature="0"
   id="path12"
   d="m 39.2,15.8 c -0.8,-0.1 -1.6,0.4 -1.7,1.2 -0.1,0.8 0.4,1.6 1.2,1.7 7.4,1.3 12.8,7.7 12.8,15.3 0,7.6 -5.4,14 -12.8,15.3 -0.8,0.1 -1.4,0.9 -1.2,1.7 0.1,0.7 0.8,1.2 1.5,1.2 0.1,0 0.2,0 0.3,0 C 48.1,50.7 54.5,43 54.5,34 54.5,25 48.1,17.3 39.2,15.8 Z"
   class="st2" />&#10;</g><path
     inkscape:connector-curvature="0"
     style="opacity:1;fill:url(#linearGradient2);stroke-width:1.56433"
     d="M 49.999998,0 A 50.117457,50 0 0 0 0.0489427,46.66602 H 100 A 50.117457,50 0 0 0 49.999998,0 Z M 0,53.33398 A 50.117457,50 0 0 0 49.999998,100 50.117457,50 0 0 0 99.951055,53.33398 Z"
     id="circle4" /><path
     inkscape:connector-curvature="0"
     style="fill:#4f5d73;stroke-width:1.5625"
     id="path16"
     d="m 51.770831,62.5 c 0,1.71874 -1.406254,3.125 -3.125,3.125 H 22.083333 c -1.71875,0 -3.125,-1.40626 -3.125,-3.125 v -25 c 0,-1.71876 1.40625,-3.125 3.125,-3.125 h 26.562498 c 1.718746,0 3.125,1.40624 3.125,3.125 z"
     class="st3" /><g
     transform="matrix(1.5624999,0,0,1.5625,3.3333338,0)"
     id="g22">&#10;	<path
   style="fill:#4f5d73"
   inkscape:connector-curvature="0"
   id="path18"
   d="m 33,53 c -0.2,0 -0.4,-0.1 -0.6,-0.2 l -15,-12 C 17.1,40.6 17,40.3 17,40 V 24 c 0,-0.3 0.1,-0.6 0.4,-0.8 l 15,-12 C 32.6,11.1 32.8,11 33,11 c 0.1,0 0.3,0 0.4,0.1 0.3,0.2 0.6,0.5 0.6,0.9 v 40 c 0,0.4 -0.2,0.7 -0.6,0.9 C 33.3,53 33.1,53 33,53 Z"
   class="st3" />&#10;	<path
   style="fill:#4f5d73"
   inkscape:connector-curvature="0"
   id="path20"
   d="M 33,12 V 52 L 18,40 V 24 L 33,12 m 0,-2 c -0.4,0 -0.9,0.1 -1.2,0.4 l -15,12 C 16.3,22.8 16,23.4 16,24 v 16 c 0,0.6 0.3,1.2 0.8,1.6 l 15,12 c 0.4,0.3 0.8,0.4 1.2,0.4 0.3,0 0.6,-0.1 0.9,-0.2 0.7,-0.3 1.1,-1 1.1,-1.8 V 12 C 35,11.2 34.6,10.5 33.9,10.2 33.6,10.1 33.3,10 33,10 Z"
   class="st3" />&#10;</g><path
     style="fill:none;stroke:#ffffff;stroke-width:2;stroke-linecap:round;stroke-miterlimit:10"
     inkscape:connector-curvature="0"
     id="path24"
     d="M 64.114577,56.25 C 66.145831,54.84374 67.39583,52.5 67.39583,50 c 0,-2.5 -1.249999,-4.84376 -3.281253,-6.25"
     class="st4" /><path
     style="fill:none;stroke:#e0e0d1;stroke-width:2;stroke-linecap:round;stroke-miterlimit:10"
     inkscape:connector-curvature="0"
     id="path26"
     d="M 64.114577,66.5625 C 71.45833,64.53124 76.77083,57.96874 76.77083,50 c 0,-7.96876 -5.3125,-14.53126 -12.656253,-16.5625"
     class="st5" /><path
     style="fill:none;stroke:#f5cf87;stroke-width:2;stroke-linecap:round;stroke-miterlimit:10"
     inkscape:connector-curvature="0"
     id="path28"
     d="M 64.114577,76.09374 C 76.614582,73.90624 86.14583,63.125 86.14583,50 c 0,-13.125 -9.531248,-23.90626 -22.031253,-26.09376"
     class="st6" /></g></svg>
