<?xml version="1.0" encoding="UTF-8" standalone="no"?>
<svg
   version="1.1"
   x="0px"
   y="0px"
   viewBox="0 0 99.765625 100"
   xml:space="preserve"
   id="svg18"
   sodipodi:docname="ico_reseaux2.svg"
   width="99.765625"
   height="100"
   inkscape:version="1.3 (0e150ed6c4, 2023-07-21)"
   xmlns:inkscape="http://www.inkscape.org/namespaces/inkscape"
   xmlns:sodipodi="http://sodipodi.sourceforge.net/DTD/sodipodi-0.dtd"
   xmlns:xlink="http://www.w3.org/1999/xlink"
   xmlns="http://www.w3.org/2000/svg"
   xmlns:svg="http://www.w3.org/2000/svg"
   xmlns:rdf="http://www.w3.org/1999/02/22-rdf-syntax-ns#"
   xmlns:cc="http://creativecommons.org/ns#"
   xmlns:dc="http://purl.org/dc/elements/1.1/"><metadata
   id="metadata24"><rdf:RDF><cc:Work
       rdf:about=""><dc:format>image/svg+xml</dc:format><dc:type
         rdf:resource="http://purl.org/dc/dcmitype/StillImage" /></cc:Work></rdf:RDF></metadata><defs
   id="defs22"><linearGradient
   id="linearGradient1"
   inkscape:collect="always"><stop
     style="stop-color:#4d4d4d;stop-opacity:1;"
     offset="0.30000001"
     id="stop1" /><stop
     style="stop-color:#808080;stop-opacity:0;"
     offset="1"
     id="stop2" /></linearGradient>&#10;	&#10;	&#10;	&#10;&#10;		&#10;	&#10;		&#10;	&#10;		&#10;	<linearGradient
   inkscape:collect="always"
   xlink:href="#linearGradient1"
   id="linearGradient2"
   x1="0"
   y1="0"
   x2="100"
   y2="100"
   gradientUnits="userSpaceOnUse" /></defs><sodipodi:namedview
   pagecolor="#ffffff"
   bordercolor="#666666"
   borderopacity="1"
   objecttolerance="10"
   gridtolerance="10"
   guidetolerance="10"
   inkscape:pageopacity="0"
   inkscape:pageshadow="2"
   inkscape:window-width="1280"
   inkscape:window-height="961"
   id="namedview20"
   showgrid="true"
   fit-margin-top="0"
   fit-margin-left="0"
   fit-margin-right="0"
   fit-margin-bottom="0"
   inkscape:zoom="3.7633333"
   inkscape:cx="80.51373"
   inkscape:cy="40.788309"
   inkscape:window-x="-8"
   inkscape:window-y="-8"
   inkscape:window-maximized="1"
   inkscape:current-layer="svg18"
   inkscape:document-rotation="0"
   inkscape:showpageshadow="2"
   inkscape:pagecheckerboard="0"
   inkscape:deskcolor="#d1d1d1"><inkscape:grid
     type="xygrid"
     id="grid13"
     originx="0"
     originy="-99.999999"
     spacingy="1"
     spacingx="1"
     units="px"
     visible="true" /></sodipodi:namedview>&#10;<style
   type="text/css"
   id="style2">&#10;	.st0{fill:#77B3D4;}&#10;	.st1{opacity:0.2;}&#10;	.st2{fill:#231F20;}&#10;	.st3{fill:#FFFFFF;}&#10;</style>&#10;&#10;<path
   style="fill:url(#linearGradient2);stroke-width:1.5625;fill-opacity:1"
   d="M 49.882812,0 A 50,50 0 0 0 0.048828,46.666021 h 99.7168 A 50,50 0 0 0 49.882812,0 Z M 0,53.333981 A 50,50 0 0 0 49.882812,100 50,50 0 0 0 99.716798,53.333981 Z"
   id="circle4"
   inkscape:connector-curvature="0" /><path
   inkscape:connector-curvature="0"
   style="opacity:0.2;fill:#231f20;stroke-width:1.5625"
   id="path8"
   d="m 74.882162,50.000001 c 0,-13.75 -11.25,-25 -25,-25 -11.71875,0 -21.5625,8.125 -24.21875,18.90624 -7.5,1.25 -13.28125,7.65626 -13.28125,15.46876 0,8.59376 7.03125,15.625 15.625,15.625 h 46.875 c 6.874996,0 12.499996,-5.625 12.499996,-12.5 0,-6.875 -5.625,-12.5 -12.499996,-12.5 z"
   class="st2" /><path
   inkscape:connector-curvature="0"
   style="fill:#ececec;stroke-width:1.5625"
   id="path12"
   d="m 74.882162,46.875001 c 0,-13.75 -11.25,-25 -25,-25 -11.71875,0 -21.5625,8.125 -24.21875,18.90624 -7.5,1.25 -13.28125,7.65626 -13.28125,15.46876 0,8.59374 7.03125,15.625 15.625,15.625 h 46.875 c 6.874996,0 12.499996,-5.625 12.499996,-12.5 0,-6.875 -5.625,-12.5 -12.499996,-12.5 z"
   class="st3" /><g
   transform="matrix(0.26041666,0,0,0.26041666,-0.117839,50.000001)"
   id="Layer_2">&#10;</g>&#10;</svg>
