<?xml version="1.0" encoding="UTF-8" standalone="no"?>
<svg
   version="1.1"
   id="svg4536"
   x="0px"
   y="0px"
   viewBox="0 0 99.999992 99.999992"
   xml:space="preserve"
   sodipodi:docname="ico_chimie2.svg"
   width="99.999992"
   height="99.999992"
   inkscape:version="1.3 (0e150ed6c4, 2023-07-21)"
   xmlns:inkscape="http://www.inkscape.org/namespaces/inkscape"
   xmlns:sodipodi="http://sodipodi.sourceforge.net/DTD/sodipodi-0.dtd"
   xmlns:xlink="http://www.w3.org/1999/xlink"
   xmlns="http://www.w3.org/2000/svg"
   xmlns:svg="http://www.w3.org/2000/svg"
   xmlns:rdf="http://www.w3.org/1999/02/22-rdf-syntax-ns#"
   xmlns:cc="http://creativecommons.org/ns#"
   xmlns:dc="http://purl.org/dc/elements/1.1/"><metadata
   id="metadata41"><rdf:RDF><cc:Work
       rdf:about=""><dc:format>image/svg+xml</dc:format><dc:type
         rdf:resource="http://purl.org/dc/dcmitype/StillImage" /></cc:Work></rdf:RDF></metadata><defs
   id="defs39"><linearGradient
     id="linearGradient2"
     inkscape:collect="always"><stop
       style="stop-color:#4d4d4d;stop-opacity:0.99406499;"
       offset="0.29674795"
       id="stop2" /><stop
       style="stop-color:#808080;stop-opacity:0;"
       offset="1"
       id="stop3" /></linearGradient><linearGradient
     inkscape:collect="always"
     xlink:href="#linearGradient2"
     id="linearGradient3"
     x1="0"
     y1="0"
     x2="100"
     y2="100"
     gradientUnits="userSpaceOnUse" /></defs><sodipodi:namedview
   pagecolor="#ffffff"
   bordercolor="#666666"
   borderopacity="1"
   objecttolerance="10"
   gridtolerance="10"
   guidetolerance="10"
   inkscape:pageopacity="0"
   inkscape:pageshadow="2"
   inkscape:window-width="1280"
   inkscape:window-height="961"
   id="namedview37"
   showgrid="true"
   inkscape:zoom="4.0000001"
   inkscape:cx="63.999998"
   inkscape:cy="75.874998"
   inkscape:window-x="-8"
   inkscape:window-y="-8"
   inkscape:window-maximized="1"
   inkscape:current-layer="svg4536"
   inkscape:document-rotation="0"
   inkscape:showpageshadow="2"
   inkscape:pagecheckerboard="0"
   inkscape:deskcolor="#d1d1d1"><inkscape:grid
     type="xygrid"
     id="grid40"
     originx="1.0025827e-07"
     originy="0"
     empspacing="2"
     spacingy="1"
     spacingx="1"
     units="px"
     visible="true" /></sodipodi:namedview>&#10;<style
   type="text/css"
   id="style2">&#10;	.st0{fill:#F5CF87;}&#10;	.st1{fill-opacity:0.2745;}&#10;	.st2{fill:#C75C5C;}&#10;	.st3{fill:none;stroke:#FFFFFF;stroke-width:15;stroke-linecap:round;stroke-linejoin:round;}&#10;	.st4{fill:none;stroke:#FFFFFF;stroke-width:11.4069;stroke-linecap:round;stroke-linejoin:round;}&#10;	.st5{fill:#4F5D73;}&#10;</style>&#10;&#10;&#10;<path
   id="path1"
   style="fill:url(#linearGradient3);fill-opacity:1;stroke-width:0.199242"
   d="M 50.021484 0 A 50.217498 51.643843 0 0 0 0 47.511719 L 100 47.511719 A 50.217498 51.643843 0 0 0 50.021484 0 z M 0 52.488281 A 50.217495 51.64383 0 0 0 50.021484 100 A 50.217495 51.64383 0 0 0 100 52.488281 L 0 52.488281 z " /><g
   transform="matrix(0.19646907,0,0,0.2020494,-0.29486758,-3.3280761)"
   id="Calque_2">&#10;	<path
   id="path4485-7-4-5-5-7"
   style="fill-opacity:0.2745"
   class="st1"
   d="m 361.8,310.70001 a 45.299999,45.299999 0 0 1 -45.3,45.3 45.299999,45.299999 0 0 1 -45.3,-45.3 45.299999,45.299999 0 0 1 45.3,-45.3 45.299999,45.299999 0 0 1 45.3,45.3 z" />&#10;	<path
   id="path4485-7-4-5-5"
   style="fill:#c75c5c"
   class="st2"
   d="m 361.19999,292.39999 a 45.299999,45.299999 0 0 1 -45.3,45.3 45.299999,45.299999 0 0 1 -45.3,-45.3 45.299999,45.299999 0 0 1 45.3,-45.3 45.299999,45.299999 0 0 1 45.3,45.3 z" />&#10;	&#10;		<path
   id="path4485-7-0-9-9"
   style="fill-opacity:0.2745"
   class="st1"
   transform="rotate(-86.286228,129.47325,310.26765)"
   d="m 174.8,310.29999 a 45.299999,45.299999 0 0 1 -45.3,45.3 45.299999,45.299999 0 0 1 -45.299999,-45.3 45.299999,45.299999 0 0 1 45.299999,-45.3 45.299999,45.299999 0 0 1 45.3,45.3 z" />&#10;	<path
   id="path4485-7-0-9"
   style="fill:#c75c5c"
   class="st2"
   d="m 174.19999,292 a 45.299999,45.299999 0 0 1 -45.3,45.3 45.299999,45.299999 0 0 1 -45.299995,-45.3 45.299999,45.299999 0 0 1 45.299995,-45.3 45.299999,45.299999 0 0 1 45.3,45.3 z" />&#10;	&#10;		<path
   id="path4485-7-8-0"
   style="fill-opacity:0.2745"
   class="st1"
   transform="matrix(1,-0.00613096,0.00613096,1,-2.4732,1.202)"
   d="M 240.1,404 A 45.299999,45.299999 0 0 1 194.8,449.3 45.299999,45.299999 0 0 1 149.5,404 45.299999,45.299999 0 0 1 194.8,358.7 45.299999,45.299999 0 0 1 240.1,404 Z" />&#10;	<path
   style="fill:none;stroke:#ffffff;stroke-width:15;stroke-linecap:round;stroke-linejoin:round"
   inkscape:connector-curvature="0"
   d="m 144.3,326.9 50,64.1"
   class="st3"
   id="path4627-6-3-3" />&#10;	<path
   id="path4485-7-4-0-0"
   style="fill-opacity:0.2745"
   class="st1"
   d="m 432.90001,404 a 45.299999,45.299999 0 0 1 -45.3,45.3 45.299999,45.299999 0 0 1 -45.3,-45.3 45.299999,45.299999 0 0 1 45.3,-45.3 45.299999,45.299999 0 0 1 45.3,45.3 z" />&#10;	&#10;		<path
   id="path4485-7-8"
   style="fill:#c75c5c"
   class="st2"
   transform="matrix(1,-0.00613091,0.00613091,1,-2.3609,1.1982)"
   d="m 239.6,385.70001 a 45.299999,45.299999 0 0 1 -45.3,45.3 45.299999,45.299999 0 0 1 -45.3,-45.3 45.299999,45.299999 0 0 1 45.3,-45.3 45.299999,45.299999 0 0 1 45.3,45.3 z" />&#10;	<path
   style="fill:none;stroke:#ffffff;stroke-width:11.4069;stroke-linecap:round;stroke-linejoin:round"
   inkscape:connector-curvature="0"
   d="m 337.4,324.6 50,64.1"
   class="st4"
   id="path4627-6-3" />&#10;	<path
   id="path4485-7-4-0"
   style="fill:#c75c5c"
   class="st2"
   d="m 432.3,385.70001 a 45.299999,45.299999 0 0 1 -45.3,45.3 45.299999,45.299999 0 0 1 -45.3,-45.3 45.299999,45.299999 0 0 1 45.3,-45.3 45.299999,45.299999 0 0 1 45.3,45.3 z" />&#10;	<path
   style="fill:none;stroke:#ffffff;stroke-width:15;stroke-linecap:round;stroke-linejoin:round"
   inkscape:connector-curvature="0"
   d="m 385.6,245 2.3,98.3"
   class="st3"
   id="path4627-4-9-07" />&#10;	&#10;		<path
   id="path4485-7-4-0-9-9"
   style="fill-opacity:0.2745"
   class="st1"
   transform="matrix(1,-0.00613093,0.00613093,1,-1.3419,2.3528)"
   d="m 428.40001,220 a 45.299999,45.299999 0 0 1 -45.3,45.3 45.299999,45.299999 0 0 1 -45.3,-45.3 45.299999,45.299999 0 0 1 45.3,-45.3 45.299999,45.299999 0 0 1 45.3,45.3 z" />&#10;	<path
   style="fill:none;stroke:#ffffff;stroke-width:15;stroke-linecap:round;stroke-linejoin:round"
   inkscape:connector-curvature="0"
   d="m 316.6,151.5 2.3,98.3"
   class="st3"
   id="path4627-4-9-0-2" />&#10;	<path
   style="fill:none;stroke:#ffffff;stroke-width:15;stroke-linecap:round;stroke-linejoin:round"
   inkscape:connector-curvature="0"
   d="m 125.4,148.8 2.3,98.3"
   class="st3"
   id="path4627-4-9-0-0-7" />&#10;	<path
   id="path4485-7-0-9-0-9"
   style="fill-opacity:0.2745"
   class="st1"
   d="M 170.3,126.3 A 45.299999,45.299999 0 0 1 125,171.6 45.299999,45.299999 0 0 1 79.700001,126.3 45.299999,45.299999 0 0 1 125,81.000004 45.299999,45.299999 0 0 1 170.3,126.3 Z" />&#10;	<path
   style="fill:none;stroke:#ffffff;stroke-width:15;stroke-linecap:round;stroke-linejoin:round"
   inkscape:connector-curvature="0"
   d="m 236.3,390.9 111,-0.6"
   class="st3"
   id="path4627-4-9-0-8-0" />&#10;	<path
   style="fill:none;stroke:#ffffff;stroke-width:11.4069;stroke-linecap:round;stroke-linejoin:round"
   inkscape:connector-curvature="0"
   d="m 169.3,295.2 106.1,0.6"
   class="st4"
   id="path4627-4-9-0-8-0-8" />&#10;	<path
   id="path4485-7-4-4-2-6"
   style="fill-opacity:0.2745"
   class="st1"
   d="m 280.10001,265.29999 a 29,29 0 0 1 -29,29 29,29 0 0 1 -29,-29 29,29 0 0 1 29,-29 29,29 0 0 1 29,29 z" />&#10;	<path
   id="path4485-7-4-4-2"
   style="fill:#4f5d73"
   class="st5"
   d="m 279.8,255 a 29,29 0 0 1 -29,29 29,29 0 0 1 -29,-29 29,29 0 0 1 29,-29 29,29 0 0 1 29,29 z" />&#10;	<path
   style="fill:none;stroke:#ffffff;stroke-width:15;stroke-linecap:round;stroke-linejoin:round"
   inkscape:connector-curvature="0"
   d="m 192.4,245.5 2.3,98.3"
   class="st3"
   id="path4627-4-6" />&#10;	<path
   id="path4485-7-8-1-5"
   style="fill-opacity:0.2745"
   class="st1"
   d="M 235.6,220 A 45.299999,45.299999 0 0 1 190.3,265.3 45.299999,45.299999 0 0 1 145,220 45.299999,45.299999 0 0 1 190.3,174.7 45.299999,45.299999 0 0 1 235.6,220 Z" />&#10;	&#10;		<path
   id="path4485-7-4-5-5-4-8"
   style="fill-opacity:0.2745"
   class="st1"
   transform="matrix(1,-0.00613095,0.00613095,1,-0.7711,1.915)"
   d="M 357.3,126.7 A 45.299999,45.299999 0 0 1 312,172 45.299999,45.299999 0 0 1 266.7,126.7 45.299999,45.299999 0 0 1 312,81.399998 45.299999,45.299999 0 0 1 357.3,126.7 Z" />&#10;	&#10;		<path
   id="path4485-7-4-5-5-4"
   style="fill:#c75c5c"
   class="st2"
   transform="matrix(1,-0.00613095,0.00613095,1,-0.6588,1.9112)"
   d="m 356.69999,108.4 a 45.299999,45.299999 0 0 1 -45.3,45.3 45.299999,45.299999 0 0 1 -45.3,-45.3 45.299999,45.299999 0 0 1 45.3,-45.299998 45.299999,45.299999 0 0 1 45.3,45.299998 z" />&#10;	<path
   id="path4485-7-0-9-0"
   style="fill:#c75c5c"
   class="st2"
   d="M 169.7,108 A 45.299999,45.299999 0 0 1 124.4,153.3 45.299999,45.299999 0 0 1 79.100002,108 45.299999,45.299999 0 0 1 124.4,62.700001 45.299999,45.299999 0 0 1 169.7,108 Z" />&#10;	<path
   style="fill:none;stroke:#ffffff;stroke-width:15;stroke-linecap:round;stroke-linejoin:round"
   inkscape:connector-curvature="0"
   d="m 139.8,142.9 50,64.1"
   class="st3"
   id="path4627-6-3-3-7" />&#10;	&#10;		<path
   id="path4485-7-8-1"
   style="fill:#c75c5c"
   class="st2"
   transform="matrix(1,-0.00613094,0.00613094,1,-1.2332,1.1672)"
   d="m 235.1,201.7 a 45.299999,45.299999 0 0 1 -45.3,45.3 45.299999,45.299999 0 0 1 -45.3,-45.3 45.299999,45.299999 0 0 1 45.3,-45.3 45.299999,45.299999 0 0 1 45.3,45.3 z" />&#10;	<path
   style="fill:none;stroke:#ffffff;stroke-width:15;stroke-linecap:round;stroke-linejoin:round"
   inkscape:connector-curvature="0"
   d="m 332.9,140.6 50,64.1"
   class="st3"
   id="path4627-6-3-8" />&#10;	<path
   id="path4485-7-4-0-9"
   style="fill:#c75c5c"
   class="st2"
   d="m 427.8,201.7 a 45.299999,45.299999 0 0 1 -45.3,45.3 45.299999,45.299999 0 0 1 -45.3,-45.3 45.299999,45.299999 0 0 1 45.3,-45.3 45.299999,45.299999 0 0 1 45.3,45.3 z" />&#10;	<path
   style="fill:none;stroke:#ffffff;stroke-width:15;stroke-linecap:round;stroke-linejoin:round"
   inkscape:connector-curvature="0"
   d="m 231.8,207 111,-0.6"
   class="st3"
   id="path4627-4-9-0-8-0-9" />&#10;	<path
   style="fill:none;stroke:#ffffff;stroke-width:15;stroke-linecap:round;stroke-linejoin:round"
   inkscape:connector-curvature="0"
   d="m 164.8,111.2 106.1,0.6"
   class="st3"
   id="path4627-4-9-0-8-0-8-1" />&#10;</g></svg>
