<?xml version="1.0" encoding="UTF-8" standalone="no"?>
<svg
   version="1.1"
   x="0px"
   y="0px"
   viewBox="0 0 105.11092 105"
   xml:space="preserve"
   id="svg46"
   sodipodi:docname="ico_mecanique2.svg"
   width="105.11092"
   height="105"
   inkscape:version="1.3 (0e150ed6c4, 2023-07-21)"
   xmlns:inkscape="http://www.inkscape.org/namespaces/inkscape"
   xmlns:sodipodi="http://sodipodi.sourceforge.net/DTD/sodipodi-0.dtd"
   xmlns="http://www.w3.org/2000/svg"
   xmlns:svg="http://www.w3.org/2000/svg"
   xmlns:rdf="http://www.w3.org/1999/02/22-rdf-syntax-ns#"
   xmlns:cc="http://creativecommons.org/ns#"
   xmlns:dc="http://purl.org/dc/elements/1.1/"><metadata
   id="metadata52"><rdf:RDF><cc:Work
       rdf:about=""><dc:format>image/svg+xml</dc:format><dc:type
         rdf:resource="http://purl.org/dc/dcmitype/StillImage" /></cc:Work></rdf:RDF></metadata><defs
   id="defs50">&#10;	&#10;	&#10;	&#10;	&#10;	&#10;	&#10;	&#10;	&#10;	&#10;&#10;		&#10;	&#10;		&#10;	&#10;		&#10;	&#10;		&#10;	&#10;		&#10;	&#10;		&#10;	&#10;		&#10;	&#10;		&#10;	&#10;		&#10;	</defs><sodipodi:namedview
   pagecolor="#ffffff"
   bordercolor="#666666"
   borderopacity="1"
   objecttolerance="10"
   gridtolerance="10"
   guidetolerance="10"
   inkscape:pageopacity="0"
   inkscape:pageshadow="2"
   inkscape:window-width="1280"
   inkscape:window-height="961"
   id="namedview48"
   showgrid="true"
   inkscape:zoom="2.5"
   inkscape:cx="40.4"
   inkscape:cy="63.8"
   inkscape:window-x="-8"
   inkscape:window-y="-8"
   inkscape:window-maximized="1"
   inkscape:current-layer="svg46"
   inkscape:document-rotation="0"
   inkscape:showpageshadow="2"
   inkscape:pagecheckerboard="0"
   inkscape:deskcolor="#d1d1d1"><inkscape:grid
     type="xygrid"
     id="grid50"
     originx="-19.178525"
     originy="-106.7"
     spacingy="1"
     spacingx="1"
     units="px"
     visible="true" /></sodipodi:namedview>&#10;<style
   type="text/css"
   id="style2">&#10;	.st0{fill:#76C2AF;}&#10;	.st1{opacity:0.2;}&#10;	.st2{fill:#231F20;}&#10;	.st3{fill:#4F5D73;}&#10;	.st4{fill:#F5CF87;}&#10;	.st5{fill:#FFFFFF;}&#10;</style>&#10;&#10;<path
   id="circle4"
   d="M 3.8726451,56.63398 C 5.6275051,82.89323 27.437642,103.29689 53.755459,103.3 80.05446,103.2712 101.83586,82.87447 103.58945,56.63398 Z"
   style="fill:#808080;fill-opacity:1;stroke:none;stroke-width:1.5625;stroke-opacity:0"
   inkscape:connector-curvature="0"
   sodipodi:nodetypes="cccc" /><path
   id="path885"
   d="M 52.555459,2.5000002 A 50,50 0 0 0 2.7214751,49.16602 H 102.43828 A 50,50 0 0 0 52.555459,2.5000002 Z M 2.6726471,55.83398 A 50,50 0 0 0 52.555459,102.5 50,50 0 0 0 102.38945,55.83398 Z"
   style="fill:none;fill-opacity:1;stroke:#ffffff;stroke-width:5;stroke-dasharray:none;stroke-opacity:1"
   inkscape:connector-curvature="0" /><path
   class="st2"
   d="M 80.523559,74.6875 58.492309,52.65625 c -1.5625,-1.5625 -3.90625,-2.1875 -5.9375,-1.5625 l -12.65625,-12.5 -4.6875,-9.21875 -9.21875,-4.6875 -4.53125,4.375 4.6875,9.21875 9.21875,4.6875 v 0 l 12.65625,12.5 c -0.625,2.03125 0,4.375 1.5625,5.9375 l 22.03125,22.03125 c 2.5,2.5 6.40625,2.5 8.90625,0 2.499996,-2.34375 2.499996,-6.25 0,-8.75 z"
   id="path8"
   inkscape:connector-curvature="0"
   style="opacity:0.2;fill:#231f20;stroke-width:1.5625" /><polygon
   class="st3"
   points="18.4,21.4 21.3,18.6 37.4,34.5 34.5,37.3 "
   id="polygon12"
   style="fill:#4f5d73"
   transform="matrix(1.5625,0,0,1.5625,2.5548091,2.5000002)" /><path
   class="st4"
   d="m 80.523559,80.46875 c -2.5,2.5 -6.40625,2.5 -8.90625,0 L 49.586059,58.4375 c -2.5,-2.5 -2.5,-6.40625 0,-8.90625 v 0 c 2.5,-2.5 6.40625,-2.5 8.90625,0 l 22.03125,22.03125 c 2.499996,2.5 2.499996,6.40625 0,8.90625 z"
   id="path16"
   inkscape:connector-curvature="0"
   style="fill:#f5cf87;stroke-width:1.5625" /><path
   class="st2"
   d="M 85.836055,31.25 75.679809,41.40625 c -2.5,2.5 -6.40625,2.5 -8.90625,0 -2.5,-2.5 -2.5,-6.40625 0,-8.90625 l 10.15625,-10.15625 c -1.71875,-0.625 -3.59375,-1.09375 -5.625,-1.09375 -8.59375,0 -15.625,7.03125 -15.625,15.625 0,2.03125 0.46875,3.90625 1.09375,5.625 l -17.1875,17.1875 c -1.875,-0.46875 -3.75,-0.9375 -5.78125,-0.9375 -8.59375,0 -15.625,7.03125 -15.625,15.625 0,2.03125 0.46875,3.90625 1.09375,5.625 l 10.15625,-10.15625 c 2.5,-2.5 6.40625,-2.5 8.90625,0 2.5,2.5 2.5,6.40625 0,8.90625 l -10.15625,10.15625 c 1.71875,0.625 3.75,1.09375 5.625,1.09375 8.59375,0 15.625,-7.03125 15.625,-15.625 0,-2.03125 -0.46875,-3.90625 -1.09375,-5.625 l 17.1875,-17.1875 c 1.71875,0.625 3.75,1.09375 5.625,1.09375 8.59375,0 15.624996,-7.03125 15.624996,-15.625 0.15625,-2.1875 -0.3125,-4.0625 -0.9375,-5.78125 z"
   id="path20"
   inkscape:connector-curvature="0"
   style="opacity:0.2;fill:#231f20;stroke-width:1.5625" /><rect
   x="-13.399058"
   y="68.034584"
   transform="rotate(-45)"
   class="st5"
   width="26.718493"
   height="12.49988"
   id="rect24"
   style="fill:#cccccc;stroke-width:1.56248" /><polygon
   class="st3"
   points="15.1,20.9 12.1,15 14.9,12.1 20.8,15.2 23.9,21.1 21,23.9 "
   id="polygon28"
   style="fill:#4f5d73"
   transform="matrix(1.5625,0,0,1.5625,2.5548091,2.5000002)" /><g
   id="g34"
   transform="matrix(1.5625,0,0,1.5625,2.5548091,2.5000002)">&#10;			<path
   class="st5"
   d="m 46.8,22.8 c -1.6,1.6 -4.1,1.6 -5.7,0 -1.6,-1.6 -1.6,-4.1 0,-5.7 l 6.5,-6.5 C 46.5,10.3 45.3,10 44,10 c -5.5,0 -10,4.5 -10,10 0,5.5 4.5,10 10,10 5.5,0 10,-4.5 10,-10 0,-1.3 -0.3,-2.5 -0.7,-3.6 z"
   id="path32"
   inkscape:connector-curvature="0"
   style="fill:#ffffff" />&#10;		</g><g
   id="g40"
   transform="matrix(1.5625,0,0,1.5625,2.5548091,2.5000002)">&#10;			<path
   class="st5"
   d="m 17.2,41.2 c 1.6,-1.6 4.1,-1.6 5.7,0 1.6,1.6 1.6,4.1 0,5.7 l -6.5,6.5 c 1.1,0.4 2.4,0.7 3.6,0.7 5.5,0 10,-4.5 10,-10 0,-5.5 -4.5,-10 -10,-10 -5.5,0 -10,4.5 -10,10 0,1.3 0.3,2.5 0.7,3.6 z"
   id="path38"
   inkscape:connector-curvature="0"
   style="fill:#ffffff" />&#10;		</g><g
   id="Layer_2"
   transform="matrix(0.78124999,0,0,0.78124999,4.1548081,43.3)">&#10;</g>&#10;</svg>
