<?xml version="1.0" encoding="UTF-8" standalone="no"?>
<svg
   version="1.1"
   x="0px"
   y="0px"
   viewBox="0 0 100 100"
   xml:space="preserve"
   id="svg42"
   sodipodi:docname="ico_database2.svg"
   width="100"
   height="100"
   inkscape:version="1.3 (0e150ed6c4, 2023-07-21)"
   xmlns:inkscape="http://www.inkscape.org/namespaces/inkscape"
   xmlns:sodipodi="http://sodipodi.sourceforge.net/DTD/sodipodi-0.dtd"
   xmlns:xlink="http://www.w3.org/1999/xlink"
   xmlns="http://www.w3.org/2000/svg"
   xmlns:svg="http://www.w3.org/2000/svg"
   xmlns:rdf="http://www.w3.org/1999/02/22-rdf-syntax-ns#"
   xmlns:cc="http://creativecommons.org/ns#"
   xmlns:dc="http://purl.org/dc/elements/1.1/"><metadata
   id="metadata48"><rdf:RDF><cc:Work
       rdf:about=""><dc:format>image/svg+xml</dc:format><dc:type
         rdf:resource="http://purl.org/dc/dcmitype/StillImage" /></cc:Work></rdf:RDF></metadata><defs
   id="defs46"><linearGradient
   id="linearGradient1"
   inkscape:collect="always"><stop
     style="stop-color:#4b4b4b;stop-opacity:1;"
     offset="0.30000001"
     id="stop1" /><stop
     style="stop-color:#808080;stop-opacity:0;"
     offset="1"
     id="stop2" /></linearGradient>&#10;	&#10;	&#10;	&#10;	&#10;	&#10;	&#10;	&#10;&#10;		&#10;	&#10;		&#10;	&#10;			&#10;		<linearGradient
   inkscape:collect="always"
   xlink:href="#linearGradient1"
   id="linearGradient2"
   x1="0"
   y1="0"
   x2="100"
   y2="100"
   gradientUnits="userSpaceOnUse" /></defs><sodipodi:namedview
   pagecolor="#ffffff"
   bordercolor="#666666"
   borderopacity="1"
   objecttolerance="10"
   gridtolerance="10"
   guidetolerance="10"
   inkscape:pageopacity="0"
   inkscape:pageshadow="2"
   inkscape:window-width="1280"
   inkscape:window-height="961"
   id="namedview44"
   showgrid="true"
   inkscape:zoom="5"
   inkscape:cx="37.4"
   inkscape:cy="67.1"
   inkscape:window-x="-8"
   inkscape:window-y="-8"
   inkscape:window-maximized="1"
   inkscape:current-layer="svg42"
   inkscape:document-rotation="0"
   inkscape:showpageshadow="2"
   inkscape:pagecheckerboard="0"
   inkscape:deskcolor="#d1d1d1"><inkscape:grid
     type="xygrid"
     id="grid49"
     originx="0"
     originy="0"
     spacingy="1"
     spacingx="1"
     units="px"
     visible="true" /></sodipodi:namedview>&#10;<style
   type="text/css"
   id="style2">&#10;	.st0{fill:#E0E0D1;}&#10;	.st1{opacity:0.2;}&#10;	.st2{fill:#231F20;}&#10;	.st3{fill:#4F5D73;}&#10;	.st4{fill:#76C2AF;}&#10;	.st5{fill:#C75C5C;}&#10;</style>&#10;&#10;&#10;<g
   id="Layer_2"
   transform="matrix(0.78124999,0,0,0.78124999,-0.059245,50)">&#10;</g><path
   style="fill:url(#linearGradient2);stroke-width:0.484347;stroke-linecap:square;stroke-dasharray:0.968696, 0.484347;paint-order:stroke markers fill;fill-opacity:1"
   d="M 49.999998,0 A 50.117462,50 0 0 0 0.050902,46.66796 H 100 A 50.117462,50 0 0 0 49.999998,0 Z M 0,53.33204 A 50.117462,50 0 0 0 49.999998,100 50.117462,50 0 0 0 99.949102,53.33204 Z"
   id="path93"
   inkscape:connector-curvature="0" /><g
   id="g1"
   transform="translate(-23.392578,-100)"><g
     transform="matrix(1.5661707,0,0,1.5625,23.27381,100)"
     id="g12"
     class="st1"
     style="opacity:0.2">&#10;		<g
   id="g10">&#10;			<path
   id="path8"
   d="M 55,31 C 55,20 46,11 35,11 v 20 z"
   class="st2"
   inkscape:connector-curvature="0"
   style="fill:#231f20" />&#10;		</g>&#10;	</g><g
     transform="matrix(1.5661707,0,0,1.5625,23.27381,100)"
     id="g16">&#10;		<path
   id="path14"
   d="M 55,29 C 55,18 46,9 35,9 v 20 z"
   class="st3"
   inkscape:connector-curvature="0"
   style="fill:#4f5d73" />&#10;	</g><g
     transform="matrix(1.5661707,0,0,1.5625,23.27381,100)"
     id="g22"
     class="st1"
     style="opacity:0.2">&#10;		<g
   id="g20">&#10;			<path
   id="path18"
   d="M 31,13 C 18.8,13 9,22.8 9,35 c 0,12.2 9.8,22 22,22 5.7,0 10.9,-2.2 14.8,-5.7 L 31,35 Z"
   class="st2"
   inkscape:connector-curvature="0"
   style="fill:#231f20" />&#10;		</g>&#10;	</g><path
     style="fill:#76c2af;stroke-width:1.56433"
     inkscape:connector-curvature="0"
     class="st4"
     d="m 71.825102,117.1875 c -19.107283,0 -34.455756,15.3125 -34.455756,34.375 0,19.0625 15.348473,34.375 34.455756,34.375 8.927173,0 17.07126,-3.4375 23.179326,-8.90625 L 71.825102,151.5625 Z"
     id="path24" /><g
     transform="matrix(1.5661707,0,0,1.5625,23.27381,100)"
     id="g34"
     class="st1"
     style="opacity:0.2">&#10;		<g
   id="g32">&#10;			<path
   id="path30"
   d="M 53,33 H 31 v 2 L 45.8,51.3 C 50.2,47.3 53,39.5 53,33 Z"
   class="st2"
   inkscape:connector-curvature="0"
   style="fill:#231f20" />&#10;		</g>&#10;	</g><g
     transform="matrix(1.5661707,0,0,1.5625,23.27381,100)"
     id="g38">&#10;		<path
   id="path36"
   d="M 53,33 H 31 L 45.8,49.3 C 50.2,45.3 53,39.5 53,33 Z"
   class="st5"
   inkscape:connector-curvature="0"
   style="fill:#c75c5c" />&#10;	</g></g></svg>
