<?xml version="1.0" encoding="UTF-8" standalone="no"?>
<svg
   version="1.1"
   x="0px"
   y="0px"
   viewBox="0 0 100.00001 81.25"
   xml:space="preserve"
   id="svg42"
   sodipodi:docname="ico_informatique2.svg"
   width="100.00001"
   height="81.25"
   inkscape:version="1.3 (0e150ed6c4, 2023-07-21)"
   xmlns:inkscape="http://www.inkscape.org/namespaces/inkscape"
   xmlns:sodipodi="http://sodipodi.sourceforge.net/DTD/sodipodi-0.dtd"
   xmlns="http://www.w3.org/2000/svg"
   xmlns:svg="http://www.w3.org/2000/svg"
   xmlns:rdf="http://www.w3.org/1999/02/22-rdf-syntax-ns#"
   xmlns:cc="http://creativecommons.org/ns#"
   xmlns:dc="http://purl.org/dc/elements/1.1/"><metadata
   id="metadata48"><rdf:RDF><cc:Work
       rdf:about=""><dc:format>image/svg+xml</dc:format><dc:type
         rdf:resource="http://purl.org/dc/dcmitype/StillImage" /></cc:Work></rdf:RDF></metadata><defs
   id="defs46">&#10;	&#10;	&#10;	&#10;	&#10;	&#10;	&#10;	&#10;&#10;		&#10;		&#10;	&#10;		&#10;	</defs><sodipodi:namedview
   pagecolor="#ffffff"
   bordercolor="#666666"
   borderopacity="1"
   objecttolerance="10"
   gridtolerance="10"
   guidetolerance="10"
   inkscape:pageopacity="0"
   inkscape:pageshadow="2"
   inkscape:window-width="1264"
   inkscape:window-height="945"
   id="namedview44"
   showgrid="true"
   inkscape:zoom="1.777195"
   inkscape:cx="165.99191"
   inkscape:cy="9.846978"
   inkscape:window-x="115"
   inkscape:window-y="99"
   inkscape:window-maximized="0"
   inkscape:current-layer="svg42"
   inkscape:document-rotation="0"
   inkscape:showpageshadow="2"
   inkscape:pagecheckerboard="0"
   inkscape:deskcolor="#d1d1d1"><inkscape:grid
     type="xygrid"
     id="grid27"
     originx="-23.451173"
     originy="-118.75"
     spacingy="1"
     spacingx="1"
     units="px"
     visible="true" /></sodipodi:namedview>&#10;<style
   type="text/css"
   id="style2">&#10;	.st0{fill:#76C2AF;}&#10;	.st1{opacity:0.2;}&#10;	.st2{fill:#231F20;}&#10;	.st3{fill:#FFFFFF;}&#10;	.st4{fill:#E0E0D1;}&#10;	.st5{fill:#4F5D73;}&#10;</style>&#10;&#10;<path
   inkscape:connector-curvature="0"
   style="fill:#808080;stroke-width:1.56472"
   d="m 0,34.583982 a 50.142005,50 0 0 0 50.024484,46.66602 50.142005,50 0 0 0 49.975526,-46.66602 z"
   id="circle4" /><g
   style="opacity:0.2"
   transform="matrix(1.5669377,0,0,1.5625,-0.118173,-18.75)"
   id="g10"
   class="st1">&#10;		<path
   style="fill:#231f20"
   inkscape:connector-curvature="0"
   id="path8"
   d="m 44,52 c 0,1.1 -0.9,2 -2,2 H 22 c -1.1,0 -2,-0.9 -2,-2 v 0 c 0,-1.1 0.9,-2 2,-2 h 20 c 1.1,0 2,0.9 2,2 z"
   class="st2" />&#10;	</g><g
   style="fill:#cccccc"
   transform="matrix(1.5669377,0,0,1.5625,-0.118173,-18.75)"
   id="g14">&#10;		<path
   inkscape:connector-curvature="0"
   style="fill:#cccccc"
   id="path12"
   d="m 44,50 c 0,1.1 -0.9,2 -2,2 H 22 c -1.1,0 -2,-0.9 -2,-2 v 0 c 0,-1.1 0.9,-2 2,-2 h 20 c 1.1,0 2,0.9 2,2 z"
   class="st3" />&#10;	</g><g
   transform="matrix(1.5669377,0,0,1.5625,-0.118173,-18.75)"
   id="g18">&#10;		<path
   style="fill:#e0e0d1"
   inkscape:connector-curvature="0"
   id="path16"
   d="m 37,42 c 0,0 -1,6 3,6 0,0 -20,0 -16,0 4,0 3,-6 3,-6 z"
   class="st4" />&#10;	</g><g
   style="opacity:0.2"
   transform="matrix(1.5669377,0,0,1.5625,-0.118173,-18.75)"
   id="g24"
   class="st1">&#10;		<g
   id="g22">&#10;			<path
   style="fill:#231f20"
   inkscape:connector-curvature="0"
   id="path20"
   d="m 52,40 c 0,2.2 -1.8,4 -4,4 H 16 c -2.2,0 -4,-1.8 -4,-4 V 18 c 0,-2.2 1.8,-4 4,-4 h 32 c 2.2,0 4,1.8 4,4 z"
   class="st2" />&#10;		</g>&#10;	</g><g
   transform="matrix(1.5669377,0,0,1.5625,-0.118173,-18.75)"
   id="g28">&#10;			<path
   style="fill:#4f5d73"
   inkscape:connector-curvature="0"
   id="path26"
   d="m 16,40.5 c -1.4,0 -2.5,-1.1 -2.5,-2.5 V 16 c 0,-1.4 1.1,-2.5 2.5,-2.5 h 32 c 1.4,0 2.5,1.1 2.5,2.5 v 22 c 0,1.4 -1.1,2.5 -2.5,2.5 z"
   class="st5" />&#10;		</g><g
   style="fill:#cccccc"
   transform="matrix(1.5669377,0,0,1.5625,-0.118173,-18.75)"
   id="g32">&#10;			<path
   inkscape:connector-curvature="0"
   style="fill:#cccccc"
   id="path30"
   d="m 48,15 c 0.6,0 1,0.4 1,1 v 22 c 0,0.6 -0.4,1 -1,1 H 16 c -0.6,0 -1,-0.4 -1,-1 V 16 c 0,-0.6 0.4,-1 1,-1 h 32 m 0,-3 H 16 c -2.2,0 -4,1.8 -4,4 v 22 c 0,2.2 1.8,4 4,4 h 32 c 2.2,0 4,-1.8 4,-4 V 16 c 0,-2.2 -1.8,-4 -4,-4 z"
   class="st3" />&#10;		</g><g
   style="opacity:0.2"
   transform="matrix(1.5669377,0,0,1.5625,-0.118173,-18.75)"
   id="g38"
   class="st1">&#10;		<polygon
   style="fill:#ffffff"
   id="polygon36"
   points="50,13.9 26.2,13.9 41.2,39.9 50,39.9 "
   class="st3" />&#10;	</g><g
   id="Layer_2"
   transform="matrix(0.78124999,0,0,0.78124999,-0.11784,31.250002)">&#10;</g>&#10;</svg>
