<?xml version="1.0" encoding="UTF-8" standalone="no"?>
<svg
   version="1.1"
   x="0px"
   y="0px"
   viewBox="0 0 100 100"
   xml:space="preserve"
   id="svg42"
   sodipodi:docname="ico_automatisme2.svg"
   width="100"
   height="100"
   inkscape:version="1.3 (0e150ed6c4, 2023-07-21)"
   xmlns:inkscape="http://www.inkscape.org/namespaces/inkscape"
   xmlns:sodipodi="http://sodipodi.sourceforge.net/DTD/sodipodi-0.dtd"
   xmlns:xlink="http://www.w3.org/1999/xlink"
   xmlns="http://www.w3.org/2000/svg"
   xmlns:svg="http://www.w3.org/2000/svg"
   xmlns:rdf="http://www.w3.org/1999/02/22-rdf-syntax-ns#"
   xmlns:cc="http://creativecommons.org/ns#"
   xmlns:dc="http://purl.org/dc/elements/1.1/"><metadata
   id="metadata48"><rdf:RDF><cc:Work
       rdf:about=""><dc:format>image/svg+xml</dc:format><dc:type
         rdf:resource="http://purl.org/dc/dcmitype/StillImage" /></cc:Work></rdf:RDF></metadata><defs
   id="defs46"><linearGradient
   id="linearGradient1"
   inkscape:collect="always"><stop
     style="stop-color:#333333;stop-opacity:1;"
     offset="0.30000001"
     id="stop1" /><stop
     style="stop-color:#808080;stop-opacity:0;"
     offset="1"
     id="stop2" /></linearGradient>&#10;	&#10;	&#10;	&#10;	&#10;	&#10;	&#10;	&#10;	&#10;	&#10;&#10;		&#10;	<linearGradient
   inkscape:collect="always"
   xlink:href="#linearGradient1"
   id="linearGradient2"
   x1="0"
   y1="0"
   x2="100"
   y2="100"
   gradientUnits="userSpaceOnUse" /></defs><sodipodi:namedview
   pagecolor="#ffffff"
   bordercolor="#666666"
   borderopacity="1"
   objecttolerance="10"
   gridtolerance="10"
   guidetolerance="10"
   inkscape:pageopacity="0"
   inkscape:pageshadow="2"
   inkscape:window-width="1280"
   inkscape:window-height="961"
   id="namedview44"
   showgrid="true"
   inkscape:zoom="3.5355339"
   inkscape:cx="39.59798"
   inkscape:cy="39.456558"
   inkscape:window-x="-8"
   inkscape:window-y="-8"
   inkscape:window-maximized="1"
   inkscape:current-layer="svg42"
   inkscape:document-rotation="0"
   inkscape:showpageshadow="2"
   inkscape:pagecheckerboard="0"
   inkscape:deskcolor="#d1d1d1"><inkscape:grid
     type="xygrid"
     id="grid26"
     originx="0"
     originy="0"
     spacingy="1"
     spacingx="1"
     units="px"
     visible="true" /><inkscape:grid
     id="grid1"
     units="px"
     originx="0"
     originy="0"
     spacingx="1"
     spacingy="1"
     empcolor="#0099e5"
     empopacity="0.30196078"
     color="#0099e5"
     opacity="0.14901961"
     empspacing="5"
     dotted="false"
     gridanglex="30"
     gridanglez="30"
     visible="true" /></sodipodi:namedview>&#10;<style
   type="text/css"
   id="style2">&#10;	.st0{fill:#77B3D4;}&#10;	.st1{opacity:0.2;}&#10;	.st2{fill:#231F20;}&#10;	.st3{fill:#4F5D73;}&#10;	.st4{fill:#F5CF87;}&#10;	.st5{fill:#C75C5C;}&#10;	.st6{fill:#76C2AF;}&#10;</style>&#10;<path
   style="fill:url(#linearGradient2);stroke-width:1.56433;fill-opacity:1"
   d="M 49.999998,0 A 50.117462,50 0 0 0 0.050902,46.66796 H 100 A 50.117462,50 0 0 0 49.999998,0 Z M 0,53.33204 A 50.117462,50 0 0 0 49.999998,100 50.117462,50 0 0 0 99.949102,53.33204 Z"
   id="circle4"
   inkscape:connector-curvature="0" /><g
   style="opacity:0.2"
   transform="matrix(1.5661707,0,0,1.5625,-0.118768,0)"
   id="g10"
   class="st1">&#10;		<path
   style="fill:#231f20"
   inkscape:connector-curvature="0"
   id="path8"
   d="m 44,54 c 0,1.7 -1.3,3 -3,3 H 23 c -1.7,0 -3,-1.3 -3,-3 V 14 c 0,-1.7 1.3,-3 3,-3 h 18 c 1.7,0 3,1.3 3,3 z"
   class="st2" />&#10;	</g><g
   transform="matrix(1.5661707,0,0,1.5625,-0.118768,0)"
   id="g14">&#10;		<path
   style="fill:#4f5d73"
   inkscape:connector-curvature="0"
   id="path12"
   d="m 44,52 c 0,1.7 -1.3,3 -3,3 H 23 c -1.7,0 -3,-1.3 -3,-3 V 12 c 0,-1.7 1.3,-3 3,-3 h 18 c 1.7,0 3,1.3 3,3 z"
   class="st3" />&#10;	</g><g
   style="opacity:0.2"
   transform="matrix(1.5661707,0,0,1.5625,-0.118768,0)"
   id="g18"
   class="st1">&#10;		<circle
   style="fill:#231f20"
   id="circle16"
   r="5"
   cy="34"
   cx="32"
   class="st2" />&#10;	</g><g
   style="opacity:0.2"
   transform="matrix(1.5661707,0,0,1.5625,-0.118768,0)"
   id="g22"
   class="st1">&#10;		<circle
   style="fill:#231f20"
   id="circle20"
   r="5"
   cy="21"
   cx="32"
   class="st2" />&#10;	</g><g
   style="opacity:0.2"
   transform="matrix(1.5661707,0,0,1.5625,-0.118768,0)"
   id="g26"
   class="st1">&#10;		<circle
   style="fill:#231f20"
   id="circle24"
   r="5"
   cy="47"
   cx="32"
   class="st2" />&#10;	</g><g
   transform="matrix(1.5661707,0,0,1.5625,-0.118768,0)"
   id="g30">&#10;		<circle
   style="fill:#f5cf87"
   id="circle28"
   r="5"
   cy="32"
   cx="32"
   class="st4" />&#10;	</g><g
   transform="matrix(1.5661707,0,0,1.5625,-0.118768,0)"
   id="g34">&#10;		<circle
   style="fill:#c75c5c"
   id="circle32"
   r="5"
   cy="19"
   cx="32"
   class="st5" />&#10;	</g><g
   transform="matrix(1.5661707,0,0,1.5625,-0.118768,0)"
   id="g38">&#10;		<circle
   style="fill:#76c2af"
   id="circle36"
   r="5"
   cy="45"
   cx="32"
   class="st6" />&#10;	</g>&#10;<g
   id="Layer_2"
   transform="matrix(0.78125,0,0,0.78125,46.607422,-50)">&#10;</g>&#10;</svg>
