<?xml version="1.0" encoding="UTF-8" standalone="no"?>
<svg
   version="1.1"
   x="0px"
   y="0px"
   viewBox="0 0 100 100"
   xml:space="preserve"
   id="svg38"
   sodipodi:docname="ico_numerique2.svg"
   width="100"
   height="100"
   inkscape:version="1.3 (0e150ed6c4, 2023-07-21)"
   xmlns:inkscape="http://www.inkscape.org/namespaces/inkscape"
   xmlns:sodipodi="http://sodipodi.sourceforge.net/DTD/sodipodi-0.dtd"
   xmlns:xlink="http://www.w3.org/1999/xlink"
   xmlns="http://www.w3.org/2000/svg"
   xmlns:svg="http://www.w3.org/2000/svg"
   xmlns:rdf="http://www.w3.org/1999/02/22-rdf-syntax-ns#"
   xmlns:cc="http://creativecommons.org/ns#"
   xmlns:dc="http://purl.org/dc/elements/1.1/"><metadata
   id="metadata44"><rdf:RDF><cc:Work
       rdf:about=""><dc:format>image/svg+xml</dc:format><dc:type
         rdf:resource="http://purl.org/dc/dcmitype/StillImage" /></cc:Work></rdf:RDF></metadata><defs
   id="defs42"><linearGradient
   id="linearGradient1"
   inkscape:collect="always"><stop
     style="stop-color:#4d4d4d;stop-opacity:1;"
     offset="0.296875"
     id="stop1" /><stop
     style="stop-color:#808080;stop-opacity:0;"
     offset="1"
     id="stop2" /></linearGradient>&#10;	&#10;	&#10;	&#10;	&#10;	&#10;	&#10;&#10;		&#10;		&#10;	&#10;		&#10;	<linearGradient
   inkscape:collect="always"
   xlink:href="#linearGradient1"
   id="linearGradient2"
   x1="0"
   y1="0"
   x2="100"
   y2="100"
   gradientUnits="userSpaceOnUse" /></defs><sodipodi:namedview
   pagecolor="#ffffff"
   bordercolor="#666666"
   borderopacity="1"
   objecttolerance="10"
   gridtolerance="10"
   guidetolerance="10"
   inkscape:pageopacity="0"
   inkscape:pageshadow="2"
   inkscape:window-width="1280"
   inkscape:window-height="961"
   id="namedview40"
   showgrid="true"
   inkscape:zoom="3.7633333"
   inkscape:cx="13.817538"
   inkscape:cy="58.325953"
   inkscape:window-x="-8"
   inkscape:window-y="-8"
   inkscape:window-maximized="1"
   inkscape:current-layer="svg38"
   inkscape:document-rotation="0"
   inkscape:showpageshadow="2"
   inkscape:pagecheckerboard="0"
   inkscape:deskcolor="#d1d1d1"><inkscape:grid
     type="xygrid"
     id="grid42"
     originx="0"
     originy="0"
     spacingy="1"
     spacingx="1"
     units="px"
     visible="true" /></sodipodi:namedview>&#10;<style
   type="text/css"
   id="style2">&#10;	.st0{fill:#E0995E;}&#10;	.st1{opacity:0.2;}&#10;	.st2{fill:#231F20;}&#10;	.st3{fill:#4F5D73;}&#10;	.st4{fill:#FFFFFF;}&#10;	.st5{fill:#E0E0D1;}&#10;</style>&#10;&#10;<path
   style="fill:url(#linearGradient2);stroke-width:1.56433;fill-opacity:1"
   d="M 49.999998,0 A 50.117462,50 0 0 0 0.050902,46.667961 H 100 A 50.117462,50 0 0 0 49.999998,0 Z M 0,53.332041 A 50.117462,50 0 0 0 49.999998,100 50.117462,50 0 0 0 99.949102,53.332041 Z"
   id="circle4"
   inkscape:connector-curvature="0" /><g
   id="g1"
   transform="translate(-23.392578,-100)"><g
     style="opacity:0.2"
     transform="matrix(1.5661707,0,0,1.5625,23.27381,99.999999)"
     id="g12"
     class="st1">&#10;		<g
   id="g10">&#10;			<path
   style="fill:#231f20"
   inkscape:connector-curvature="0"
   id="path8"
   d="m 44,48 c 0,2.2 -1.8,4 -4,4 H 24 c -2.2,0 -4,-1.8 -4,-4 V 16 c 0,-2.2 1.8,-4 4,-4 h 16 c 2.2,0 4,1.8 4,4 z"
   class="st2" />&#10;		</g>&#10;	</g><g
     transform="matrix(1.5661707,0,0,1.5625,23.27381,99.999999)"
     id="g16">&#10;			<path
   style="fill:#4f5d73"
   inkscape:connector-curvature="0"
   id="path14"
   d="m 24,48.5 c -1.4,0 -2.5,-1.1 -2.5,-2.5 V 14 c 0,-1.4 1.1,-2.5 2.5,-2.5 h 16 c 1.4,0 2.5,1.1 2.5,2.5 v 32 c 0,1.4 -1.1,2.5 -2.5,2.5 z"
   class="st3" />&#10;		</g><g
     style="fill:#cccccc"
     transform="matrix(1.5661707,0,0,1.5625,23.27381,99.999999)"
     id="g20">&#10;			<path
   inkscape:connector-curvature="0"
   style="fill:#cccccc"
   id="path18"
   d="m 40,13 c 0.6,0 1,0.4 1,1 v 32 c 0,0.6 -0.4,1 -1,1 H 24 c -0.6,0 -1,-0.4 -1,-1 V 14 c 0,-0.6 0.4,-1 1,-1 h 16 m 0,-3 H 24 c -2.2,0 -4,1.8 -4,4 v 32 c 0,2.2 1.8,4 4,4 h 16 c 2.2,0 4,-1.8 4,-4 V 14 c 0,-2.2 -1.8,-4 -4,-4 z"
   class="st4" />&#10;		</g><g
     style="opacity:0.2"
     transform="matrix(1.5661707,0,0,1.5625,23.27381,99.999999)"
     id="g26"
     class="st1">&#10;		<polygon
   style="fill:#ffffff"
   id="polygon24"
   points="42,11.5 26.2,11.5 42,49.6 "
   class="st4" />&#10;	</g><g
     style="fill:#cccccc"
     transform="matrix(1.5661707,0,0,1.5625,23.27381,99.999999)"
     id="g30">&#10;		<polygon
   style="fill:#cccccc"
   id="polygon28"
   points="44,42 40,50 24,50 20,42 "
   class="st4" />&#10;	</g><g
     transform="matrix(1.5661707,0,0,1.5625,23.27381,99.999999)"
     id="g34">&#10;		<circle
   style="fill:#e0e0d1"
   id="circle32"
   r="2"
   cy="46"
   cx="32"
   class="st5" />&#10;	</g></g><g
   id="Layer_2"
   transform="matrix(0.78124999,0,0,0.78124999,-31.263891,34.375001)">&#10;</g>&#10;</svg>
