<?xml version="1.0" encoding="UTF-8" standalone="no"?>
<svg
   version="1.1"
   x="0px"
   y="0px"
   viewBox="0 0 100 100"
   xml:space="preserve"
   id="svg30"
   sodipodi:docname="ico_logique2.svg"
   width="100"
   height="100"
   inkscape:version="1.3 (0e150ed6c4, 2023-07-21)"
   xmlns:inkscape="http://www.inkscape.org/namespaces/inkscape"
   xmlns:sodipodi="http://sodipodi.sourceforge.net/DTD/sodipodi-0.dtd"
   xmlns:xlink="http://www.w3.org/1999/xlink"
   xmlns="http://www.w3.org/2000/svg"
   xmlns:svg="http://www.w3.org/2000/svg"
   xmlns:rdf="http://www.w3.org/1999/02/22-rdf-syntax-ns#"
   xmlns:cc="http://creativecommons.org/ns#"
   xmlns:dc="http://purl.org/dc/elements/1.1/"><metadata
   id="metadata36"><rdf:RDF><cc:Work
       rdf:about=""><dc:format>image/svg+xml</dc:format><dc:type
         rdf:resource="http://purl.org/dc/dcmitype/StillImage" /></cc:Work></rdf:RDF></metadata><defs
   id="defs34"><linearGradient
   id="linearGradient1"
   inkscape:collect="always"><stop
     style="stop-color:#333333;stop-opacity:1;"
     offset="0.296875"
     id="stop1" /><stop
     style="stop-color:#808080;stop-opacity:0;"
     offset="1"
     id="stop2" /></linearGradient>&#10;	&#10;	&#10;	&#10;	&#10;	&#10;&#10;		&#10;	<linearGradient
   inkscape:collect="always"
   xlink:href="#linearGradient1"
   id="linearGradient2"
   x1="0"
   y1="0"
   x2="100"
   y2="100"
   gradientUnits="userSpaceOnUse" /></defs><sodipodi:namedview
   pagecolor="#ffffff"
   bordercolor="#666666"
   borderopacity="1"
   objecttolerance="10"
   gridtolerance="10"
   guidetolerance="10"
   inkscape:pageopacity="0"
   inkscape:pageshadow="2"
   inkscape:window-width="1280"
   inkscape:window-height="961"
   id="namedview32"
   showgrid="true"
   inkscape:zoom="3.5355339"
   inkscape:cx="42.70925"
   inkscape:cy="34.082547"
   inkscape:window-x="-8"
   inkscape:window-y="-8"
   inkscape:window-maximized="1"
   inkscape:current-layer="svg30"
   inkscape:document-rotation="0"
   inkscape:showpageshadow="2"
   inkscape:pagecheckerboard="0"
   inkscape:deskcolor="#d1d1d1"><inkscape:grid
     type="xygrid"
     id="grid20"
     originx="0"
     originy="0"
     spacingy="1"
     spacingx="1"
     units="px"
     visible="true" /></sodipodi:namedview>&#10;<style
   type="text/css"
   id="style2">&#10;	.st0{fill:#76C2AF;}&#10;	.st1{opacity:0.2;}&#10;	.st2{fill:#231F20;}&#10;	.st3{fill:#4F5D73;}&#10;	.st4{fill:#FFFFFF;}&#10;</style>&#10;&#10;<path
   style="fill:url(#linearGradient2);stroke-width:1.56433;fill-opacity:1"
   d="M 49.999998,0 A 50.117461,50 0 0 0 0.04894271,46.666022 H 100 A 50.117461,50 0 0 0 49.999998,0 Z M 0,53.333982 A 50.117461,50 0 0 0 49.999998,100 50.117461,50 0 0 0 99.951055,53.333982 Z"
   id="circle4"
   inkscape:connector-curvature="0" /><g
   style="opacity:0.2"
   transform="matrix(1.5661707,0,0,1.5625,-0.11811483,0)"
   id="g12"
   class="st1">&#10;		<g
   id="g10">&#10;			<path
   style="fill:#231f20"
   inkscape:connector-curvature="0"
   id="path8"
   d="m 27.5,34 c 0,2.5 2,4.5 4.5,4.5 2.5,0 4.5,-2 4.5,-4.5 0,-2.5 -2,-4.5 -4.5,-4.5 -2.5,0 -4.5,2 -4.5,4.5 z"
   class="st2" />&#10;		</g>&#10;	</g><g
   style="opacity:0.2"
   transform="matrix(1.5661707,0,0,1.5625,-0.11811483,0)"
   id="g16"
   class="st1">&#10;		<path
   style="fill:#231f20"
   inkscape:connector-curvature="0"
   id="path14"
   d="m 53.9,32.6 c 0,-0.5 -0.5,-1.1 -1,-1.3 L 48.8,29.8 C 48.3,29.6 47.7,29 47.5,28.5 l -0.7,-1.6 c -0.2,-0.5 -0.2,-1.3 0,-1.8 l 1.9,-3.9 c 0.2,-0.5 0.1,-1.2 -0.2,-1.6 l -2,-2 C 46.1,17.2 45.3,17.1 44.9,17.4 L 41,19.3 c -0.5,0.2 -1.3,0.2 -1.8,0 l -1.6,-0.7 c -0.5,-0.2 -1.1,-0.8 -1.3,-1.3 l -1.5,-4.1 c -0.2,-0.5 -0.8,-1 -1.3,-1 0,0 -0.6,-0.1 -1.4,-0.1 -0.8,0 -1.4,0.1 -1.4,0.1 -0.5,0 -1.1,0.5 -1.3,1 l -1.5,4.1 c -0.2,0.5 -0.8,1.1 -1.3,1.3 L 25,19.3 c -0.5,0.2 -1.3,0.2 -1.8,0 l -3.9,-1.9 c -0.5,-0.2 -1.2,-0.1 -1.6,0.2 l -2,2 c -0.4,0.4 -0.5,1.2 -0.2,1.6 l 1.9,3.9 c 0.2,0.5 0.2,1.3 0,1.8 l -0.7,1.6 c -0.2,0.5 -0.8,1.1 -1.3,1.3 l -4.1,1.5 c -0.5,0.2 -1,0.8 -1,1.3 0,0 -0.1,0.6 -0.1,1.4 0,0.8 0.1,1.4 0.1,1.4 0,0.5 0.5,1.1 1,1.3 l 4.1,1.5 c 0.5,0.2 1.1,0.8 1.3,1.3 l 0.7,1.6 c 0.2,0.5 0.2,1.3 0,1.8 l -1.9,3.9 c -0.2,0.5 -0.1,1.2 0.2,1.6 l 2,2 c 0.4,0.4 1.2,0.5 1.6,0.2 l 3.9,-1.9 c 0.5,-0.2 1.3,-0.2 1.8,0 l 1.6,0.7 c 0.5,0.2 1.1,0.8 1.3,1.3 l 1.5,4.1 c 0.2,0.5 0.8,1 1.3,1 0,0 0.6,0.1 1.4,0.1 0.8,0 1.4,-0.1 1.4,-0.1 0.5,0 1.1,-0.5 1.3,-1 l 1.5,-4.1 c 0.2,-0.5 0.8,-1.1 1.3,-1.3 l 1.6,-0.7 c 0.5,-0.2 1.3,-0.2 1.8,0 l 3.9,1.9 c 0.5,0.2 1.2,0.1 1.6,-0.2 l 2,-2 C 48.9,48 49,47.2 48.7,46.8 l -1.9,-3.9 c -0.2,-0.5 -0.2,-1.3 0,-1.8 l 0.7,-1.6 c 0.2,-0.5 0.8,-1.1 1.3,-1.3 l 4.1,-1.5 c 0.5,-0.2 1,-0.8 1,-1.3 0,0 0.1,-0.6 0.1,-1.4 0,-0.8 -0.1,-1.4 -0.1,-1.4 z M 32,44 c -5.5,0 -10,-4.5 -10,-10 0,-5.5 4.5,-10 10,-10 5.5,0 10,4.5 10,10 0,5.5 -4.5,10 -10,10 z"
   class="st2" />&#10;	</g><g
   transform="matrix(1.5661707,0,0,1.5625,-0.11811483,0)"
   id="g22">&#10;		<g
   id="g20">&#10;			<path
   style="fill:#4f5d73"
   inkscape:connector-curvature="0"
   id="path18"
   d="m 27.5,32 c 0,2.5 2,4.5 4.5,4.5 2.5,0 4.5,-2 4.5,-4.5 0,-2.5 -2,-4.5 -4.5,-4.5 -2.5,0 -4.5,2 -4.5,4.5 z"
   class="st3" />&#10;		</g>&#10;	</g><g
   style="fill:#8f7171;fill-opacity:1"
   transform="matrix(1.5661707,0,0,1.5625,-0.11811483,0)"
   id="g26">&#10;		<path
   inkscape:connector-curvature="0"
   style="fill:#8f7171;fill-opacity:1"
   id="path24"
   d="m 53.9,30.6 c 0,-0.5 -0.5,-1.1 -1,-1.3 L 48.8,27.8 C 48.3,27.6 47.7,27 47.5,26.5 l -0.7,-1.6 c -0.2,-0.5 -0.2,-1.3 0,-1.8 l 1.9,-3.9 c 0.2,-0.5 0.1,-1.2 -0.2,-1.6 l -2,-2 C 46.1,15.2 45.3,15.1 44.9,15.4 L 41,17.3 c -0.5,0.2 -1.3,0.2 -1.8,0 l -1.6,-0.7 c -0.5,-0.2 -1.1,-0.8 -1.3,-1.3 l -1.5,-4.1 c -0.2,-0.5 -0.8,-1 -1.3,-1 0,0 -0.6,-0.1 -1.4,-0.1 -0.8,0 -1.4,0.1 -1.4,0.1 -0.5,0 -1.1,0.5 -1.3,1 l -1.5,4.1 c -0.2,0.5 -0.8,1.1 -1.3,1.3 L 25,17.3 c -0.5,0.2 -1.3,0.2 -1.8,0 l -3.9,-1.9 c -0.5,-0.2 -1.2,-0.1 -1.6,0.2 l -2,2 c -0.4,0.4 -0.5,1.2 -0.2,1.6 l 1.9,3.9 c 0.2,0.5 0.2,1.3 0,1.8 l -0.7,1.6 c -0.2,0.5 -0.8,1.1 -1.3,1.3 l -4.1,1.5 c -0.5,0.2 -1,0.8 -1,1.3 0,0 -0.1,0.6 -0.1,1.4 0,0.8 0.1,1.4 0.1,1.4 0,0.5 0.5,1.1 1,1.3 l 4.1,1.5 c 0.5,0.2 1.1,0.8 1.3,1.3 l 0.7,1.6 c 0.2,0.5 0.2,1.3 0,1.8 l -1.9,3.9 c -0.2,0.5 -0.1,1.2 0.2,1.6 l 2,2 c 0.4,0.4 1.2,0.5 1.6,0.2 l 3.9,-1.9 c 0.5,-0.2 1.3,-0.2 1.8,0 l 1.6,0.7 c 0.5,0.2 1.1,0.8 1.3,1.3 l 1.5,4.1 c 0.2,0.5 0.8,1 1.3,1 0,0 0.6,0.1 1.4,0.1 0.8,0 1.4,-0.1 1.4,-0.1 0.5,0 1.1,-0.5 1.3,-1 l 1.5,-4.1 c 0.2,-0.5 0.8,-1.1 1.3,-1.3 l 1.6,-0.7 c 0.5,-0.2 1.3,-0.2 1.8,0 l 3.9,1.9 c 0.5,0.2 1.2,0.1 1.6,-0.2 l 2,-2 C 48.9,46 49,45.2 48.7,44.8 l -1.9,-3.9 c -0.2,-0.5 -0.2,-1.3 0,-1.8 l 0.7,-1.6 c 0.2,-0.5 0.8,-1.1 1.3,-1.3 l 4.1,-1.5 c 0.5,-0.2 1,-0.8 1,-1.3 0,0 0.1,-0.6 0.1,-1.4 0,-0.8 -0.1,-1.4 -0.1,-1.4 z M 32,42 c -5.5,0 -10,-4.5 -10,-10 0,-5.5 4.5,-10 10,-10 5.5,0 10,4.5 10,10 0,5.5 -4.5,10 -10,10 z"
   class="st4" />&#10;	</g><g
   id="Layer_2"
   transform="matrix(0.26041666,0,0,0.26041666,-0.117839,50.000002)">&#10;</g>&#10;</svg>
