<?xml version="1.0" encoding="UTF-8" standalone="no"?>
<svg
   version="1.1"
   x="0px"
   y="0px"
   viewBox="0 0 99.999992 100"
   xml:space="preserve"
   id="svg36"
   sodipodi:docname="ico_optique2.svg"
   width="99.999992"
   height="100"
   inkscape:version="1.3 (0e150ed6c4, 2023-07-21)"
   xmlns:inkscape="http://www.inkscape.org/namespaces/inkscape"
   xmlns:sodipodi="http://sodipodi.sourceforge.net/DTD/sodipodi-0.dtd"
   xmlns:xlink="http://www.w3.org/1999/xlink"
   xmlns="http://www.w3.org/2000/svg"
   xmlns:svg="http://www.w3.org/2000/svg"
   xmlns:rdf="http://www.w3.org/1999/02/22-rdf-syntax-ns#"
   xmlns:cc="http://creativecommons.org/ns#"
   xmlns:dc="http://purl.org/dc/elements/1.1/"><metadata
   id="metadata42"><rdf:RDF><cc:Work
       rdf:about=""><dc:format>image/svg+xml</dc:format><dc:type
         rdf:resource="http://purl.org/dc/dcmitype/StillImage" /></cc:Work></rdf:RDF></metadata><defs
   id="defs40"><linearGradient
   id="linearGradient1"
   inkscape:collect="always"><stop
     style="stop-color:#4d4d4d;stop-opacity:1;"
     offset="0.296875"
     id="stop1" /><stop
     style="stop-color:#808080;stop-opacity:0;"
     offset="1"
     id="stop2" /></linearGradient>&#10;	&#10;	&#10;	&#10;&#10;		&#10;		&#10;		&#10;		&#10;		&#10;	&#10;		&#10;	<linearGradient
   inkscape:collect="always"
   xlink:href="#linearGradient1"
   id="linearGradient2"
   x1="0"
   y1="0"
   x2="100"
   y2="100"
   gradientUnits="userSpaceOnUse" /></defs><sodipodi:namedview
   pagecolor="#ffffff"
   bordercolor="#666666"
   borderopacity="1"
   objecttolerance="10"
   gridtolerance="10"
   guidetolerance="10"
   inkscape:pageopacity="0"
   inkscape:pageshadow="2"
   inkscape:window-width="1280"
   inkscape:window-height="961"
   id="namedview38"
   showgrid="true"
   inkscape:zoom="3.7633333"
   inkscape:cx="77.325067"
   inkscape:cy="71.612047"
   inkscape:window-x="-8"
   inkscape:window-y="-8"
   inkscape:window-maximized="1"
   inkscape:current-layer="svg36"
   inkscape:document-rotation="0"
   inkscape:showpageshadow="2"
   inkscape:pagecheckerboard="0"
   inkscape:deskcolor="#d1d1d1"><inkscape:grid
     type="xygrid"
     id="grid39"
     originx="0"
     originy="0"
     spacingy="1"
     spacingx="1"
     units="px"
     visible="true" /></sodipodi:namedview>&#10;<style
   type="text/css"
   id="style2">&#10;	.st0{fill:#E0E0D1;}&#10;	.st1{opacity:0.2;}&#10;	.st2{fill:#231F20;}&#10;	.st3{fill:#C75C5C;}&#10;	.st4{fill:#E0995E;}&#10;	.st5{fill:#F5CF87;}&#10;	.st6{fill:#76C2AF;}&#10;	.st7{fill:#4F5D73;}&#10;</style>&#10;&#10;<path
   inkscape:connector-curvature="0"
   id="circle4"
   d="M 50,0 A 50.117464,50 0 0 0 0.0509,46.66796 H 99.999996 A 50.117464,50 0 0 0 50,0 Z M 0,53.33204 A 50.117464,50 0 0 0 50,100 50.117464,50 0 0 0 99.949096,53.33204 Z"
   style="fill:url(#linearGradient2);stroke-width:1.56433;fill-opacity:1" /><g
   id="g1"><g
     class="st1"
     id="g10"
     transform="matrix(1.5661707,0,0,1.5625,-0.117464,0)"
     style="opacity:0.2">&#10;		<path
   class="st2"
   d="M 32,10 C 18.7,10 8,20.7 8,34 c 0,5.3 1.7,10.2 4.6,14.2 0.2,0.3 2.6,2.6 5.2,0 l 2.8,-2.8 2.8,-2.8 2.8,-2.8 c 0,0 1.7,-1.6 1.7,-5.7 0,-2.2 1.8,-4 4,-4 2.2,0 4,1.8 4,4 0,0 -0.3,3.7 1.7,5.7 l 2.1,2.1 c 0.2,0.2 0.5,0.5 0.7,0.7 0.7,0.7 1.4,1.4 2.1,2.1 l 0.7,0.7 1.8,1.8 c 0.3,0.3 0.6,0.6 0.8,0.8 l 0.3,0.3 c 0,0 2.8,2.8 5.2,0 2.9,-4 4.6,-8.9 4.6,-14.2 C 56,20.7 45.3,10 32,10 Z"
   id="path8"
   inkscape:connector-curvature="0"
   style="fill:#231f20" />&#10;	</g><g
     id="g14"
     transform="matrix(1.5661707,0,0,1.5625,-0.117464,0)">&#10;			<path
   class="st3"
   d="M 17.9,46.1 C 14.2,42.5 12,37.5 12,32 12,21 21,12 32,12 c 11,0 20,9 20,20 0,5.5 -2.2,10.5 -5.9,14.1 0,0 2.8,2.8 5.2,0 2.9,-4 4.6,-8.9 4.6,-14.2 C 56,18.7 45.3,8 32,8 18.7,8 8,18.7 8,32 c 0,5.3 1.7,10.2 4.6,14.2 0.3,0.2 2.6,2.6 5.3,-0.1 z"
   id="path12"
   inkscape:connector-curvature="0"
   style="fill:#c75c5c" />&#10;		</g><g
     id="g18"
     transform="matrix(1.5661707,0,0,1.5625,-0.117464,0)">&#10;			<path
   class="st4"
   d="m 32,12 c -11,0 -20,9 -20,20 0,5.5 2.2,10.5 5.9,14.1 l 2.8,-2.8 C 17.8,40.4 16,36.4 16,32 c 0,-8.8 7.2,-16 16,-16 8.8,0 16,7.2 16,16 0,4.4 -1.8,8.4 -4.7,11.3 l 1.8,1.8 c 0.3,0.3 0.6,0.6 0.8,0.8 l 0.3,0.3 C 49.8,42.5 52,37.5 52,32 52,21 43,12 32,12 Z"
   id="path16"
   inkscape:connector-curvature="0"
   style="fill:#e0995e" />&#10;		</g><g
     id="g22"
     transform="matrix(1.5661707,0,0,1.5625,-0.117464,0)">&#10;			<path
   class="st5"
   d="m 32,16 c -8.8,0 -16,7.2 -16,16 0,4.4 1.8,8.4 4.7,11.3 l 2.8,-2.8 C 21.3,38.3 20,35.3 20,32 c 0,-6.6 5.4,-12 12,-12 6.6,0 12,5.4 12,12 0,3.3 -1.3,6.3 -3.5,8.5 0.7,0.7 1.4,1.4 2.1,2.1 l 0.7,0.7 C 46.2,40.4 48,36.4 48,32 48,23.2 40.8,16 32,16 Z"
   id="path20"
   inkscape:connector-curvature="0"
   style="fill:#f5cf87" />&#10;		</g><g
     id="g26"
     transform="matrix(1.5661707,0,0,1.5625,-0.117464,0)">&#10;			<path
   class="st6"
   d="m 32,20 c -6.6,0 -12,5.4 -12,12 0,3.3 1.3,6.3 3.5,8.5 l 2.8,-2.8 C 24.9,36.2 24,34.2 24,32 c 0,-4.4 3.6,-8 8,-8 4.4,0 8,3.6 8,8 0,2.2 -0.9,4.2 -2.3,5.7 l 2.1,2.1 C 40,40 40.3,40.3 40.5,40.5 42.7,38.3 44,35.3 44,32 44,25.4 38.6,20 32,20 Z"
   id="path24"
   inkscape:connector-curvature="0"
   style="fill:#76c2af" />&#10;		</g><g
     id="g30"
     transform="matrix(1.5661707,0,0,1.5625,-0.117464,0)">&#10;			<path
   class="st7"
   d="m 32,24 c -4.4,0 -8,3.6 -8,8 0,2.2 0.9,4.2 2.3,5.7 0,0 1.7,-1.6 1.7,-5.7 0,-2.2 1.8,-4 4,-4 2.2,0 4,1.8 4,4 0,0 -0.3,3.7 1.7,5.7 1.4,-1.4 2.3,-3.4 2.3,-5.7 0,-4.4 -3.6,-8 -8,-8 z"
   id="path28"
   inkscape:connector-curvature="0"
   style="fill:#4f5d73" />&#10;		</g></g><g
   id="Layer_2"
   transform="matrix(0.33333333,0,0,0.33333333,6.191406,50)">&#10;</g>&#10;</svg>
