<?xml version="1.0" encoding="UTF-8" standalone="no"?>
<svg
   xmlns:dc="http://purl.org/dc/elements/1.1/"
   xmlns:cc="http://creativecommons.org/ns#"
   xmlns:rdf="http://www.w3.org/1999/02/22-rdf-syntax-ns#"
   xmlns:svg="http://www.w3.org/2000/svg"
   xmlns="http://www.w3.org/2000/svg"
   xmlns:sodipodi="http://sodipodi.sourceforge.net/DTD/sodipodi-0.dtd"
   xmlns:inkscape="http://www.inkscape.org/namespaces/inkscape"
   version="1.1"
   id="Layer_1"
   x="0px"
   y="0px"
   viewBox="0 0 50 50"
   xml:space="preserve"
   sodipodi:docname="ico_electrotechnique.svg"
   width="50"
   height="50"
   inkscape:version="1.0.2 (394de47547, 2021-03-26)"><metadata
   id="metadata31"><rdf:RDF><cc:Work
       rdf:about=""><dc:format>image/svg+xml</dc:format><dc:type
         rdf:resource="http://purl.org/dc/dcmitype/StillImage" /></cc:Work></rdf:RDF></metadata><defs
   id="defs29" /><sodipodi:namedview
   pagecolor="#ffffff"
   bordercolor="#666666"
   borderopacity="1"
   objecttolerance="10"
   gridtolerance="10"
   guidetolerance="10"
   inkscape:pageopacity="0"
   inkscape:pageshadow="2"
   inkscape:window-width="1227"
   inkscape:window-height="960"
   id="namedview27"
   showgrid="false"
   inkscape:zoom="10.5"
   inkscape:cx="32"
   inkscape:cy="32"
   inkscape:window-x="53"
   inkscape:window-y="27"
   inkscape:window-maximized="1"
   inkscape:current-layer="Layer_1" />
<style
   type="text/css"
   id="style2">
	.st0{fill:#76C2AF;}
	.st1{opacity:0.2;fill:#231F20;}
	.st2{fill:#4F5D73;}
	.st3{fill:#E0E0D1;}
</style>










<g
   id="g44"
   transform="scale(0.78125)"><circle
     class="st0"
     cx="32"
     cy="32"
     r="32"
     id="circle4"
     style="opacity:0.2" /><path
     class="st1"
     d="m 18.4,50.4 c -0.8,0.8 -2,0.8 -2.8,0 v 0 c -0.8,-0.8 -0.8,-2 0,-2.8 l 9.9,-9.9 c 0.8,-0.8 2,-0.8 2.8,0 v 0 c 0.8,0.8 0.8,2 0,2.8 z"
     id="path6" /><path
     class="st1"
     d="m 31.1,26.4 c -0.8,0.8 -2,0.8 -2.8,0 v 0 c -0.8,-0.8 -0.8,-2 0,-2.8 l 9.9,-9.9 c 0.8,-0.8 2,-0.8 2.8,0 v 0 c 0.8,0.8 0.8,2 0,2.8 z"
     id="path8" /><path
     class="st1"
     d="m 42.5,37.7 c -0.8,0.8 -2,0.8 -2.8,0 v 0 c -0.8,-0.8 -0.8,-2 0,-2.8 L 49.6,25 c 0.8,-0.8 2,-0.8 2.8,0 v 0 c 0.8,0.8 0.8,2 0,2.8 z"
     id="path10" /><path
     class="st2"
     d="m 18.4,48.4 c -0.8,0.8 -2,0.8 -2.8,0 v 0 c -0.8,-0.8 -0.8,-2 0,-2.8 l 9.9,-9.9 c 0.8,-0.8 2,-0.8 2.8,0 v 0 c 0.8,0.8 0.8,2 0,2.8 z"
     id="path12" /><path
     class="st3"
     d="m 31.1,24.4 c -0.8,0.8 -2,0.8 -2.8,0 v 0 c -0.8,-0.8 -0.8,-2 0,-2.8 l 9.9,-9.9 c 0.8,-0.8 2,-0.8 2.8,0 v 0 c 0.8,0.8 0.8,2 0,2.8 z"
     id="path14" /><path
     class="st3"
     d="m 42.5,35.7 c -0.8,0.8 -2,0.8 -2.8,0 v 0 c -0.8,-0.8 -0.8,-2 0,-2.8 L 49.6,23 c 0.8,-0.8 2,-0.8 2.8,0 v 0 c 0.8,0.8 0.8,2 0,2.8 z"
     id="path16" /><path
     class="st1"
     d="m 27.9,19.3 -8,8 c -4.3,4.3 -4.3,11.3 0,15.6 l 2.8,2.8 C 27,50 34,50 38.3,45.7 l 8,-8 z"
     id="path18" /><path
     class="st2"
     d="m 27.9,17.7 -8,8 c -4.3,4.3 -4.3,11.3 0,15.6 l 2.8,2.8 c 4.3,4.3 11.3,4.3 15.6,0 l 8,-8 z"
     id="path20" /><path
     class="st1"
     d="m 48.1,40.4 c -0.8,0.8 -2,0.8 -2.8,0 L 25.5,20.6 c -0.8,-0.8 -0.8,-2 0,-2.8 v 0 c 0.8,-0.8 2,-0.8 2.8,0 l 19.8,19.8 c 0.8,0.8 0.8,2 0,2.8 z"
     id="path22" /><path
     class="st2"
     d="m 48.1,38.5 c -0.8,0.8 -2,0.8 -2.8,0 L 25.5,18.7 c -0.8,-0.8 -0.8,-2 0,-2.8 v 0 c 0.8,-0.8 2,-0.8 2.8,0 l 19.8,19.8 c 0.8,0.8 0.8,2 0,2.8 z"
     id="path24" /></g>
</svg>
