<?xml version="1.0" encoding="UTF-8" standalone="no"?>
<svg
   version="1.1"
   x="0px"
   y="0px"
   viewBox="0 0 99.765625 100"
   xml:space="preserve"
   id="svg42"
   sodipodi:docname="ico_magnetisme2.svg"
   width="99.765625"
   height="100"
   inkscape:version="1.3 (0e150ed6c4, 2023-07-21)"
   xmlns:inkscape="http://www.inkscape.org/namespaces/inkscape"
   xmlns:sodipodi="http://sodipodi.sourceforge.net/DTD/sodipodi-0.dtd"
   xmlns:xlink="http://www.w3.org/1999/xlink"
   xmlns="http://www.w3.org/2000/svg"
   xmlns:svg="http://www.w3.org/2000/svg"
   xmlns:rdf="http://www.w3.org/1999/02/22-rdf-syntax-ns#"
   xmlns:cc="http://creativecommons.org/ns#"
   xmlns:dc="http://purl.org/dc/elements/1.1/"><metadata
   id="metadata48"><rdf:RDF><cc:Work
       rdf:about=""><dc:format>image/svg+xml</dc:format><dc:type
         rdf:resource="http://purl.org/dc/dcmitype/StillImage" /></cc:Work></rdf:RDF></metadata><defs
   id="defs46"><linearGradient
   id="linearGradient1"
   inkscape:collect="always"><stop
     style="stop-color:#4d4d4d;stop-opacity:1;"
     offset="0.30312499"
     id="stop1" /><stop
     style="stop-color:#808080;stop-opacity:0;"
     offset="1"
     id="stop2" /></linearGradient>&#10;	&#10;	&#10;	&#10;	&#10;	&#10;	&#10;	&#10;	&#10;&#10;		&#10;	<linearGradient
   inkscape:collect="always"
   xlink:href="#linearGradient1"
   id="linearGradient2"
   x1="0"
   y1="0"
   x2="99.765625"
   y2="100"
   gradientUnits="userSpaceOnUse" /></defs><sodipodi:namedview
   pagecolor="#ffffff"
   bordercolor="#666666"
   borderopacity="1"
   objecttolerance="10"
   gridtolerance="10"
   guidetolerance="10"
   inkscape:pageopacity="0"
   inkscape:pageshadow="2"
   inkscape:window-width="1264"
   inkscape:window-height="945"
   id="namedview44"
   showgrid="true"
   inkscape:zoom="5"
   inkscape:cx="54"
   inkscape:cy="42.9"
   inkscape:window-x="0"
   inkscape:window-y="52"
   inkscape:window-maximized="0"
   inkscape:current-layer="svg42"
   inkscape:document-rotation="0"
   inkscape:showpageshadow="2"
   inkscape:pagecheckerboard="0"
   inkscape:deskcolor="#d1d1d1"><inkscape:grid
     type="xygrid"
     id="grid27"
     originx="0"
     originy="0"
     spacingy="1"
     spacingx="1"
     units="px"
     visible="true" /></sodipodi:namedview>&#10;<style
   type="text/css"
   id="style2">&#10;	.st0{fill:#4F5D73;}&#10;	.st1{fill:#77B3D4;}&#10;	.st2{opacity:0.2;}&#10;	.st3{fill:#231F20;}&#10;	.st4{fill:#FFFFFF;}&#10;	.st5{fill:#C75C5C;}&#10;</style>&#10;&#10;<path
   id="circle4"
   d="M 49.999998,0 A 50.117457,50 0 0 0 0.04894271,46.66602 H 100 A 50.117457,50 0 0 0 49.999998,0 Z M 0,53.33398 A 50.117457,50 0 0 0 49.999998,100 50.117457,50 0 0 0 99.951055,53.33398 Z"
   style="fill:url(#linearGradient2);stroke-width:1.56433;fill-opacity:1"
   inkscape:connector-curvature="0" /><g
   id="g1"><g
     id="g10"
     transform="matrix(1.5661706,0,0,1.5625,-0.11811483,-2e-6)">&#10;		<circle
   class="st1"
   cx="32"
   cy="32"
   r="22"
   id="circle8"
   style="fill:#77b3d4" />&#10;	</g><g
     class="st2"
     id="g14"
     transform="matrix(1.5661706,0,0,1.5625,-0.11811483,-2e-6)"
     style="opacity:0.2">&#10;		<path
   class="st3"
   d="m 32,16 c 9.9,0 18,8.1 18,18 0,9.9 -8.1,18 -18,18 -9.9,0 -18,-8.1 -18,-18 0,-9.9 8.1,-18 18,-18 z m 0,-4 C 19.8,12 10,21.8 10,34 10,46.2 19.8,56 32,56 44.2,56 54,46.2 54,34 54,21.8 44.2,12 32,12 Z"
   id="path12"
   inkscape:connector-curvature="0"
   style="fill:#231f20" />&#10;	</g><g
     id="g18"
     transform="matrix(1.5661706,0,0,1.5625,-0.11811483,-2e-6)"
     style="fill:#e6e6e6">&#10;		<path
   class="st4"
   d="m 32,14 c 9.9,0 18,8.1 18,18 0,9.9 -8.1,18 -18,18 -9.9,0 -18,-8.1 -18,-18 0,-9.9 8.1,-18 18,-18 m 0,-4 C 19.8,10 10,19.8 10,32 10,44.2 19.8,54 32,54 44.2,54 54,44.2 54,32 54,19.8 44.2,10 32,10 Z"
   id="path16"
   style="fill:#e6e6e6"
   inkscape:connector-curvature="0" />&#10;	</g><g
     class="st2"
     id="g24"
     transform="matrix(1.5661706,0,0,1.5625,-0.11811483,-2e-6)"
     style="opacity:0.2">&#10;		<g
   id="g22">&#10;			<path
   class="st3"
   d="m 41.8,25.9 -2.9,4.7 -1.9,3.1 c 0,0.1 -5.2,5.3 -5.3,5.3 l -3.1,1.9 -4.7,2.9 c -0.2,0.1 -0.4,0.2 -0.7,0.2 -0.3,0 -0.6,-0.1 -0.9,-0.4 -0.4,-0.4 -0.5,-1.1 -0.2,-1.5 l 2.9,-4.7 1.9,-3.1 c 0,-0.1 5.2,-5.3 5.3,-5.3 l 3.1,-1.9 4.7,-2.9 c 0.5,-0.3 1.1,-0.2 1.5,0.2 0.5,0.4 0.6,1 0.3,1.5 z M 29.5,34 c 0,1.4 1.1,2.5 2.5,2.5 1.4,0 2.5,-1.1 2.5,-2.5 0,-1.4 -1.1,-2.5 -2.5,-2.5 -1.4,0 -2.5,1.1 -2.5,2.5 z"
   id="path20"
   inkscape:connector-curvature="0"
   style="fill:#231f20" />&#10;		</g>&#10;	</g><g
     id="g30"
     transform="matrix(1.5661706,0,0,1.5625,-0.11811483,-2e-6)">&#10;		<g
   id="g28">&#10;			<path
   class="st5"
   d="m 41.8,23.9 -2.9,4.7 -1.9,3.1 c 0,0.1 -5.2,5.3 -5.3,5.3 l -3.1,1.9 -4.7,2.9 c -0.2,0.1 -0.4,0.2 -0.7,0.2 -0.3,0 -0.6,-0.1 -0.9,-0.4 -0.4,-0.4 -0.5,-1.1 -0.2,-1.5 l 2.9,-4.7 1.9,-3.1 c 0,-0.1 5.2,-5.3 5.3,-5.3 l 3.1,-1.9 4.7,-2.9 c 0.5,-0.3 1.1,-0.2 1.5,0.2 0.5,0.4 0.6,1 0.3,1.5 z M 29.5,32 c 0,1.4 1.1,2.5 2.5,2.5 1.4,0 2.5,-1.1 2.5,-2.5 0,-1.4 -1.1,-2.5 -2.5,-2.5 -1.4,0 -2.5,1.1 -2.5,2.5 z"
   id="path26"
   inkscape:connector-curvature="0"
   style="fill:#c75c5c" />&#10;		</g>&#10;	</g><g
     class="st2"
     id="g34"
     transform="matrix(1.5661706,0,0,1.5625,-0.11811483,-2e-6)"
     style="opacity:0.2">&#10;		<circle
   class="st3"
   cx="32"
   cy="34"
   r="5"
   id="circle32"
   style="fill:#231f20" />&#10;	</g><g
     id="g38"
     transform="matrix(1.5661706,0,0,1.5625,-0.11811483,-2e-6)">&#10;		<circle
   class="st4"
   cx="32"
   cy="32"
   r="5"
   id="circle36"
   style="fill:#ffffff" />&#10;	</g></g><g
   id="Layer_2"
   transform="matrix(0.78124999,0,0,0.78124999,-0.117839,50)">&#10;</g>&#10;</svg>
