<?xml version="1.0" encoding="UTF-8" standalone="no"?>
<svg
   version="1.1"
   x="0px"
   y="0px"
   viewBox="0 0 100 100"
   xml:space="preserve"
   id="svg68"
   sodipodi:docname="ico_mathematique2.svg"
   width="100"
   height="100"
   inkscape:version="1.3 (0e150ed6c4, 2023-07-21)"
   xmlns:inkscape="http://www.inkscape.org/namespaces/inkscape"
   xmlns:sodipodi="http://sodipodi.sourceforge.net/DTD/sodipodi-0.dtd"
   xmlns:xlink="http://www.w3.org/1999/xlink"
   xmlns="http://www.w3.org/2000/svg"
   xmlns:svg="http://www.w3.org/2000/svg"
   xmlns:rdf="http://www.w3.org/1999/02/22-rdf-syntax-ns#"
   xmlns:cc="http://creativecommons.org/ns#"
   xmlns:dc="http://purl.org/dc/elements/1.1/"><metadata
   id="metadata74"><rdf:RDF><cc:Work
       rdf:about=""><dc:format>image/svg+xml</dc:format><dc:type
         rdf:resource="http://purl.org/dc/dcmitype/StillImage" /></cc:Work></rdf:RDF></metadata><defs
   id="defs72"><linearGradient
   id="linearGradient1"
   inkscape:collect="always"><stop
     style="stop-color:#333333;stop-opacity:1;"
     offset="0.30000001"
     id="stop1" /><stop
     style="stop-color:#808080;stop-opacity:0;"
     offset="1"
     id="stop2" /></linearGradient>&#10;	&#10;	&#10;	&#10;	&#10;	&#10;	&#10;	&#10;	&#10;	&#10;	&#10;&#10;		&#10;	<linearGradient
   inkscape:collect="always"
   xlink:href="#linearGradient1"
   id="linearGradient2"
   x1="0"
   y1="0"
   x2="100"
   y2="100"
   gradientUnits="userSpaceOnUse" /></defs><sodipodi:namedview
   pagecolor="#ffffff"
   bordercolor="#666666"
   borderopacity="1"
   objecttolerance="10"
   gridtolerance="10"
   guidetolerance="10"
   inkscape:pageopacity="0"
   inkscape:pageshadow="2"
   inkscape:window-width="1280"
   inkscape:window-height="961"
   id="namedview70"
   showgrid="true"
   inkscape:zoom="3.5355339"
   inkscape:cx="87.115556"
   inkscape:cy="35.49676"
   inkscape:window-x="-8"
   inkscape:window-y="-8"
   inkscape:window-maximized="1"
   inkscape:current-layer="svg68"
   inkscape:document-rotation="0"
   inkscape:showpageshadow="2"
   inkscape:pagecheckerboard="0"
   inkscape:deskcolor="#d1d1d1"><inkscape:grid
     type="xygrid"
     id="grid74"
     originx="0"
     originy="0"
     spacingy="1"
     spacingx="1"
     units="px"
     visible="true" /></sodipodi:namedview>&#10;<style
   type="text/css"
   id="style2">&#10;	.st0{fill:#4F5D73;}&#10;	.st1{opacity:0.2;}&#10;	.st2{fill:#231F20;}&#10;	.st3{fill:#E0E0D1;}&#10;	.st4{fill:#F5CF87;}&#10;	.st5{fill:#E0995E;}&#10;	.st6{fill:#76C2AF;}&#10;</style>&#10;&#10;<path
   style="fill:url(#linearGradient2);stroke-width:1.56433;fill-opacity:1"
   d="M 49.999998,0 A 50.117462,50 0 0 0 0.050902,46.667961 H 100 A 50.117462,50 0 0 0 49.999998,0 Z M 0,53.332041 A 50.117462,50 0 0 0 49.999998,100 50.117462,50 0 0 0 99.949102,53.332041 Z"
   id="circle4"
   inkscape:connector-curvature="0" /><g
   id="g1"
   transform="translate(-23.392578,-99.999999)"><g
     style="opacity:0.2"
     transform="matrix(1.5661707,0,0,1.5625,23.27381,99.999999)"
     id="g32"
     class="st1">&#10;		<g
   id="g10">&#10;			<circle
   style="fill:#231f20"
   id="circle8"
   r="2"
   cy="39"
   cx="44"
   class="st2" />&#10;		</g>&#10;		<g
   id="g14">&#10;			<circle
   style="fill:#231f20"
   id="circle12"
   r="2"
   cy="51"
   cx="44"
   class="st2" />&#10;		</g>&#10;		<g
   id="g18">&#10;			<path
   style="fill:#231f20"
   inkscape:connector-curvature="0"
   id="path16"
   d="m 26,22 h -4 v -4 c 0,-1.1 -0.9,-2 -2,-2 -1.1,0 -2,0.9 -2,2 v 4 h -4 c -1.1,0 -2,0.9 -2,2 0,1.1 0.9,2 2,2 h 4 v 4 c 0,1.1 0.9,2 2,2 1.1,0 2,-0.9 2,-2 v -4 h 4 c 1.1,0 2,-0.9 2,-2 0,-1.1 -0.9,-2 -2,-2 z"
   class="st2" />&#10;		</g>&#10;		<g
   id="g22">&#10;			<path
   style="fill:#231f20"
   inkscape:connector-curvature="0"
   id="path20"
   d="m 38,26 h 12 c 1.1,0 2,-0.9 2,-2 0,-1.1 -0.9,-2 -2,-2 H 38 c -1.1,0 -2,0.9 -2,2 0,1.1 0.9,2 2,2 z"
   class="st2" />&#10;		</g>&#10;		<g
   id="g26">&#10;			<path
   style="fill:#231f20"
   inkscape:connector-curvature="0"
   id="path24"
   d="M 50,43 H 38 c -1.1,0 -2,0.9 -2,2 0,1.1 0.9,2 2,2 h 12 c 1.1,0 2,-0.9 2,-2 0,-1.1 -0.9,-2 -2,-2 z"
   class="st2" />&#10;		</g>&#10;		<g
   id="g30">&#10;			<path
   style="fill:#231f20"
   inkscape:connector-curvature="0"
   id="path28"
   d="m 26.8,39.2 c -0.8,-0.8 -2,-0.8 -2.8,0 l -4,4 -4,-4 c -0.8,-0.8 -2,-0.8 -2.8,0 -0.8,0.8 -0.8,2 0,2.8 l 4,4 -4,4 c -0.8,0.8 -0.8,2 0,2.8 0.8,0.8 2,0.8 2.8,0 l 4,-4 4,4 c 0.8,0.8 2,0.8 2.8,0 0.8,-0.8 0.8,-2 0,-2.8 l -4,-4 4,-4 c 0.8,-0.8 0.8,-2 0,-2.8 z"
   class="st2" />&#10;		</g>&#10;	</g><g
     transform="matrix(1.5661707,0,0,1.5625,23.27381,99.999999)"
     id="g36">&#10;		<circle
   style="fill:#e0e0d1"
   id="circle34"
   r="2"
   cy="37"
   cx="44"
   class="st3" />&#10;	</g><g
     transform="matrix(1.5661707,0,0,1.5625,23.27381,99.999999)"
     id="g40">&#10;		<circle
   style="fill:#e0e0d1"
   id="circle38"
   r="2"
   cy="49"
   cx="44"
   class="st3" />&#10;	</g><g
     transform="matrix(1.5661707,0,0,1.5625,23.27381,99.999999)"
     id="g44">&#10;		<path
   style="fill:#f5cf87"
   inkscape:connector-curvature="0"
   id="path42"
   d="m 28,22 c 0,1.1 -0.9,2 -2,2 H 14 c -1.1,0 -2,-0.9 -2,-2 v 0 c 0,-1.1 0.9,-2 2,-2 h 12 c 1.1,0 2,0.9 2,2 z"
   class="st4" />&#10;	</g><g
     transform="matrix(1.5661707,0,0,1.5625,23.27381,99.999999)"
     id="g48">&#10;		<path
   style="fill:#e0995e"
   inkscape:connector-curvature="0"
   id="path46"
   d="m 52,22 c 0,1.1 -0.9,2 -2,2 H 38 c -1.1,0 -2,-0.9 -2,-2 v 0 c 0,-1.1 0.9,-2 2,-2 h 12 c 1.1,0 2,0.9 2,2 z"
   class="st5" />&#10;	</g><g
     transform="matrix(1.5661707,0,0,1.5625,23.27381,99.999999)"
     id="g52">&#10;		<path
   style="fill:#f5cf87"
   inkscape:connector-curvature="0"
   id="path50"
   d="m 20,30 c -1.1,0 -2,-0.9 -2,-2 V 16 c 0,-1.1 0.9,-2 2,-2 v 0 c 1.1,0 2,0.9 2,2 v 12 c 0,1.1 -0.9,2 -2,2 z"
   class="st4" />&#10;	</g><g
     transform="matrix(1.5661707,0,0,1.5625,23.27381,99.999999)"
     id="g56">&#10;		<path
   style="fill:#e0e0d1"
   inkscape:connector-curvature="0"
   id="path54"
   d="m 52,43 c 0,1.1 -0.9,2 -2,2 H 38 c -1.1,0 -2,-0.9 -2,-2 v 0 c 0,-1.1 0.9,-2 2,-2 h 12 c 1.1,0 2,0.9 2,2 z"
   class="st3" />&#10;	</g><g
     transform="matrix(1.5661707,0,0,1.5625,23.27381,99.999999)"
     id="g60">&#10;		<path
   style="fill:#76c2af"
   inkscape:connector-curvature="0"
   id="path58"
   d="m 26.8,50.8 c -0.8,0.8 -2,0.8 -2.8,0 L 13.2,40 c -0.8,-0.8 -0.8,-2 0,-2.8 v 0 c 0.8,-0.8 2,-0.8 2.8,0 L 26.8,48 c 0.8,0.8 0.8,2 0,2.8 z"
   class="st6" />&#10;	</g><g
     transform="matrix(1.5661707,0,0,1.5625,23.27381,99.999999)"
     id="g64">&#10;		<path
   style="fill:#76c2af"
   inkscape:connector-curvature="0"
   id="path62"
   d="m 13.2,50.8 c -0.8,-0.8 -0.8,-2 0,-2.8 L 24,37.2 c 0.8,-0.8 2,-0.8 2.8,0 v 0 c 0.8,0.8 0.8,2 0,2.8 L 16,50.8 c -0.8,0.8 -2,0.8 -2.8,0 z"
   class="st6" />&#10;	</g></g><g
   id="Layer_2"
   transform="matrix(0.78124999,0,0,0.78124999,-0.059245,50.000001)">&#10;</g>&#10;</svg>
