<?xml version="1.0" encoding="UTF-8" standalone="no"?>
<svg
   version="1.1"
   id="Layer_1"
   x="0px"
   y="0px"
   viewBox="0 0 100.00001 100"
   xml:space="preserve"
   sodipodi:docname="ico_electronique2.svg"
   width="100.00001"
   height="100"
   inkscape:version="1.3 (0e150ed6c4, 2023-07-21)"
   xmlns:inkscape="http://www.inkscape.org/namespaces/inkscape"
   xmlns:sodipodi="http://sodipodi.sourceforge.net/DTD/sodipodi-0.dtd"
   xmlns:xlink="http://www.w3.org/1999/xlink"
   xmlns="http://www.w3.org/2000/svg"
   xmlns:svg="http://www.w3.org/2000/svg"
   xmlns:rdf="http://www.w3.org/1999/02/22-rdf-syntax-ns#"
   xmlns:cc="http://creativecommons.org/ns#"
   xmlns:dc="http://purl.org/dc/elements/1.1/"><metadata
   id="metadata55"><rdf:RDF><cc:Work
       rdf:about=""><dc:format>image/svg+xml</dc:format><dc:type
         rdf:resource="http://purl.org/dc/dcmitype/StillImage" /></cc:Work></rdf:RDF></metadata><defs
   id="defs53"><linearGradient
     id="linearGradient1"
     inkscape:collect="always"><stop
       style="stop-color:#333333;stop-opacity:1;"
       offset="0.296875"
       id="stop1" /><stop
       style="stop-color:#ffffff;stop-opacity:1;"
       offset="1"
       id="stop2" /></linearGradient><linearGradient
     inkscape:collect="always"
     xlink:href="#linearGradient1"
     id="linearGradient2"
     x1="31.927694"
     y1="38.749996"
     x2="131.9277"
     y2="138.75"
     gradientUnits="userSpaceOnUse"
     gradientTransform="translate(-31.927695,-38.749998)" /></defs><sodipodi:namedview
   pagecolor="#ffffff"
   bordercolor="#666666"
   borderopacity="1"
   objecttolerance="10"
   gridtolerance="10"
   guidetolerance="10"
   inkscape:pageopacity="0"
   inkscape:pageshadow="2"
   inkscape:window-width="1280"
   inkscape:window-height="961"
   id="namedview51"
   showgrid="true"
   inkscape:zoom="2.8284271"
   inkscape:cx="72.124892"
   inkscape:cy="87.150911"
   inkscape:window-x="-8"
   inkscape:window-y="-8"
   inkscape:window-maximized="1"
   inkscape:current-layer="g3"
   inkscape:document-rotation="0"
   inkscape:measure-start="0,0"
   inkscape:measure-end="0,0"
   inkscape:showpageshadow="2"
   inkscape:pagecheckerboard="0"
   inkscape:deskcolor="#d1d1d1"><inkscape:grid
     type="xygrid"
     id="grid54"
     originx="0"
     originy="0"
     spacingy="1"
     spacingx="1"
     units="px"
     visible="true" /></sodipodi:namedview>&#10;<style
   type="text/css"
   id="style2">&#10;	.st0{fill:#F5CF87;}&#10;	.st1{opacity:0.2;fill:#231F20;}&#10;	.st2{fill:#4F5D73;}&#10;	.st3{fill:#E0E0D1;}&#10;	.st4{opacity:0.2;}&#10;	.st5{fill:#231F20;}&#10;	.st6{fill:#76C2AF;}&#10;	.st7{opacity:0.2;fill:#FFFFFF;}&#10;</style>&#10;&#10;&#10;&#10;&#10;&#10;&#10;&#10;&#10;&#10;&#10;&#10;&#10;&#10;&#10;&#10;<g
   id="g3"><g
     id="g2" /><g
     id="g4"><path
       inkscape:connector-curvature="0"
       id="path118"
       d="M 49.999998,0 A 50.117462,50 0 0 0 0.050902,46.667961 H 100 A 50.117462,50 0 0 0 49.999998,0 Z M 0,53.332041 A 50.117462,50 0 0 0 49.999998,100 50.117462,50 0 0 0 99.949105,53.332041 Z"
       style="opacity:0.5;fill:url(#linearGradient2);fill-opacity:1;stroke-width:0.484347;stroke-linecap:square;stroke-dasharray:0.968696, 0.484347;paint-order:stroke markers fill" /><path
       class="st1"
       d="m 81.322115,76.562502 c 0,1.71876 -1.40956,3.125 -3.13235,3.125 H 21.807622 c -1.722788,0 -3.132342,-1.40624 -3.132342,-3.125 V 29.687501 c 0,-1.71876 1.409554,-3.125 3.132342,-3.125 h 56.382143 c 1.72279,0 3.13235,1.40624 3.13235,3.125 z"
       id="path6"
       style="opacity:0.2;fill:#231f20;stroke-width:1.56433"
       inkscape:connector-curvature="0" /><path
       class="st2"
       d="m 81.322115,73.437502 c 0,1.71876 -1.40956,3.125 -3.13235,3.125 H 21.807622 c -1.722788,0 -3.132342,-1.40624 -3.132342,-3.125 V 26.562501 c 0,-1.71876 1.409554,-3.125 3.132342,-3.125 h 56.382143 c 1.72279,0 3.13235,1.40624 3.13235,3.125 z"
       id="path8"
       style="fill:#4f5d73;stroke-width:1.56433"
       inkscape:connector-curvature="0" /><path
       class="st3"
       d="m 75.057425,57.812501 c 0,1.71874 -1.40955,3.125 -3.13234,3.125 H 28.072304 c -1.722788,0 -3.132342,-1.40626 -3.132342,-3.125 v -25.15626 c 0,-1.71874 1.409554,-3.125 3.132342,-3.125 h 43.852781 c 1.72279,0 3.13234,1.40626 3.13234,3.125 z"
       id="path10"
       style="fill:#e0e0d1;stroke-width:1.56433"
       inkscape:connector-curvature="0" /><g
       class="st4"
       id="g14"
       transform="matrix(1.5661707,0,0,1.5625,-0.118768,0)"
       style="opacity:0.2">&#10;	<path
   class="st5"
   d="M 46,18.9 H 18 c -1.1,0 -2,0.9 -2,2 V 22 c 0,-1.1 0.9,-2 2,-2 h 28 c 1.1,0 2,0.9 2,2 v -1.1 c 0,-1.1 -0.9,-2 -2,-2 z"
   id="path12"
   inkscape:connector-curvature="0"
   style="fill:#231f20" />&#10;</g><path
       class="st1"
       d="m 31.204646,70.312502 c 0,1.71876 -1.409554,3.125 -3.132342,3.125 v 0 c -1.722788,0 -3.132342,-1.40624 -3.132342,-3.125 v 0 c 0,-1.71874 1.409554,-3.125 3.132342,-3.125 v 0 c 1.722788,0 3.132342,1.40626 3.132342,3.125 z"
       id="path16"
       style="opacity:0.2;fill:#231f20;stroke-width:1.56433"
       inkscape:connector-curvature="0" /><path
       class="st1"
       d="m 75.057425,70.312502 c 0,1.71876 -1.40955,3.125 -3.13234,3.125 v 0 c -1.72279,0 -3.13234,-1.40624 -3.13234,-3.125 v 0 c 0,-1.71874 1.40955,-3.125 3.13234,-3.125 v 0 c 1.72279,0 3.13234,1.40626 3.13234,3.125 z"
       id="path18"
       style="opacity:0.2;fill:#231f20;stroke-width:1.56433"
       inkscape:connector-curvature="0" /><path
       class="st6"
       d="m 31.204646,68.750002 c 0,1.71876 -1.409554,3.125 -3.132342,3.125 v 0 c -1.722788,0 -3.132342,-1.40624 -3.132342,-3.125 v 0 c 0,-1.71874 1.409554,-3.125 3.132342,-3.125 v 0 c 1.722788,0 3.132342,1.40626 3.132342,3.125 z"
       id="path20"
       style="fill:#76c2af;stroke-width:1.56433"
       inkscape:connector-curvature="0" /><path
       class="st6"
       d="m 75.057425,68.750002 c 0,1.71876 -1.40955,3.125 -3.13234,3.125 v 0 c -1.72279,0 -3.13234,-1.40624 -3.13234,-3.125 v 0 c 0,-1.71874 1.40955,-3.125 3.13234,-3.125 v 0 c 1.72279,0 3.13234,1.40626 3.13234,3.125 z"
       id="path22"
       style="fill:#76c2af;stroke-width:1.56433"
       inkscape:connector-curvature="0" /><path
       class="st0"
       d="m 39.0355,70.312502 c 0,0.9375 -0.62647,1.5625 -1.566172,1.5625 v 0 c -0.939702,0 -1.56617,-0.625 -1.56617,-1.5625 v -3.125 c 0,-0.9375 0.626468,-1.5625 1.56617,-1.5625 v 0 c 0.939702,0 1.566172,0.625 1.566172,1.5625 z"
       id="path24"
       style="fill:#f5cf87;stroke-width:1.56433"
       inkscape:connector-curvature="0" /><path
       class="st0"
       d="m 45.300182,70.312502 c 0,0.9375 -0.626468,1.5625 -1.56617,1.5625 v 0 c -0.939704,0 -1.566172,-0.625 -1.566172,-1.5625 v -3.125 c 0,-0.9375 0.626468,-1.5625 1.566172,-1.5625 v 0 c 0.939702,0 1.56617,0.625 1.56617,1.5625 z"
       id="path26"
       style="fill:#f5cf87;stroke-width:1.56433"
       inkscape:connector-curvature="0" /><path
       class="st0"
       d="m 57.829548,70.312502 c 0,0.9375 -0.626468,1.5625 -1.566172,1.5625 v 0 c -0.939702,0 -1.56617,-0.625 -1.56617,-1.5625 v -3.125 c 0,-0.9375 0.626468,-1.5625 1.56617,-1.5625 v 0 c 0.939704,0 1.566172,0.625 1.566172,1.5625 z"
       id="path28"
       style="fill:#f5cf87;stroke-width:1.56433"
       inkscape:connector-curvature="0" /><path
       class="st0"
       d="m 64.09423,70.312502 c 0,0.9375 -0.626468,1.5625 -1.56617,1.5625 v 0 c -0.939702,0 -1.566172,-0.625 -1.566172,-1.5625 v -3.125 c 0,-0.9375 0.62647,-1.5625 1.566172,-1.5625 v 0 c 0.939702,0 1.56617,0.625 1.56617,1.5625 z"
       id="path30"
       style="fill:#f5cf87;stroke-width:1.56433"
       inkscape:connector-curvature="0" /><path
       class="st0"
       d="m 51.564864,70.312502 c 0,0.9375 -0.626468,1.5625 -1.56617,1.5625 v 0 c -0.939702,0 -1.56617,-0.625 -1.56617,-1.5625 v -3.125 c 0,-0.9375 0.626468,-1.5625 1.56617,-1.5625 v 0 c 0.939702,0 1.56617,0.625 1.56617,1.5625 z"
       id="path32"
       style="fill:#f5cf87;stroke-width:1.56433"
       inkscape:connector-curvature="0" /><g
       class="st4"
       id="g44"
       transform="matrix(1.5661707,0,0,1.5625,-0.118768,0)"
       style="opacity:0.2">&#10;	<path
   class="st5"
   d="m 24,42 c -0.6,0 -1,0.4 -1,1 v 1 c 0,-0.6 0.4,-1 1,-1 0.6,0 1,0.4 1,1 v -1 c 0,-0.6 -0.4,-1 -1,-1 z"
   id="path34"
   inkscape:connector-curvature="0"
   style="fill:#231f20" />&#10;	<path
   class="st5"
   d="m 28,42 c -0.6,0 -1,0.4 -1,1 v 1 c 0,-0.6 0.4,-1 1,-1 0.6,0 1,0.4 1,1 v -1 c 0,-0.6 -0.4,-1 -1,-1 z"
   id="path36"
   inkscape:connector-curvature="0"
   style="fill:#231f20" />&#10;	<path
   class="st5"
   d="m 36,42 c -0.6,0 -1,0.4 -1,1 v 1 c 0,-0.6 0.4,-1 1,-1 0.6,0 1,0.4 1,1 v -1 c 0,-0.6 -0.4,-1 -1,-1 z"
   id="path38"
   inkscape:connector-curvature="0"
   style="fill:#231f20" />&#10;	<path
   class="st5"
   d="m 40,42 c -0.6,0 -1,0.4 -1,1 v 1 c 0,-0.6 0.4,-1 1,-1 0.6,0 1,0.4 1,1 v -1 c 0,-0.6 -0.4,-1 -1,-1 z"
   id="path40"
   inkscape:connector-curvature="0"
   style="fill:#231f20" />&#10;	<path
   class="st5"
   d="m 32,42 c -0.6,0 -1,0.4 -1,1 v 1 c 0,-0.6 0.4,-1 1,-1 0.6,0 1,0.4 1,1 v -1 c 0,-0.6 -0.4,-1 -1,-1 z"
   id="path42"
   inkscape:connector-curvature="0"
   style="fill:#231f20" />&#10;</g><g
       id="g48"
       transform="matrix(1.5661707,0,0,1.5625,-0.118768,0)">&#10;	<path
   class="st7"
   d="M 48,37 V 20.9 c 0,-1.1 -0.9,-2 -2,-2 H 25.5 L 37.1,39 H 46 c 1.1,0 2,-0.9 2,-2 z"
   id="path46"
   inkscape:connector-curvature="0"
   style="opacity:0.2;fill:#ffffff" />&#10;</g></g></g>&#10;</svg>
