<?xml version="1.0" encoding="UTF-8" standalone="no"?>
<svg
   width="32.701729"
   height="34"
   viewBox="0 0 8.6523318 8.9958335"
   version="1.1"
   id="svg1082"
   inkscape:version="1.3 (0e150ed6c4, 2023-07-21)"
   sodipodi:docname="logo1.svg"
   xml:space="preserve"
   inkscape:export-filename="logo1.png"
   inkscape:export-xdpi="105"
   inkscape:export-ydpi="105"
   xmlns:inkscape="http://www.inkscape.org/namespaces/inkscape"
   xmlns:sodipodi="http://sodipodi.sourceforge.net/DTD/sodipodi-0.dtd"
   xmlns="http://www.w3.org/2000/svg"
   xmlns:svg="http://www.w3.org/2000/svg"
   xmlns:rdf="http://www.w3.org/1999/02/22-rdf-syntax-ns#"
   xmlns:cc="http://creativecommons.org/ns#"
   xmlns:dc="http://purl.org/dc/elements/1.1/"><defs
     id="defs1076" /><sodipodi:namedview
     id="base"
     pagecolor="#ffffff"
     bordercolor="#666666"
     borderopacity="1.0"
     inkscape:pageopacity="0.0"
     inkscape:pageshadow="2"
     inkscape:zoom="11.313709"
     inkscape:cx="8.5736693"
     inkscape:cy="17.987028"
     inkscape:document-units="mm"
     inkscape:current-layer="svg1082"
     inkscape:document-rotation="0"
     showgrid="true"
     fit-margin-top="10"
     fit-margin-right="10"
     fit-margin-bottom="10"
     fit-margin-left="10"
     units="px"
     inkscape:window-width="1280"
     inkscape:window-height="961"
     inkscape:window-x="-8"
     inkscape:window-y="-8"
     inkscape:window-maximized="1"
     inkscape:snap-global="false"
     inkscape:showpageshadow="2"
     inkscape:pagecheckerboard="0"
     inkscape:deskcolor="#d1d1d1"><inkscape:grid
       type="xygrid"
       id="grid1084"
       originx="6.3889707"
       originy="6.5797243"
       spacingy="1"
       spacingx="1"
       units="px"
       visible="true" /></sodipodi:namedview><metadata
     id="metadata1079"><rdf:RDF><cc:Work
         rdf:about=""><dc:format>image/svg+xml</dc:format><dc:type
           rdf:resource="http://purl.org/dc/dcmitype/StillImage" /></cc:Work></rdf:RDF></metadata><g
     aria-label="&lt;/&gt;"
     transform="matrix(0.84520798,0,0,1.1385279,6.6448074,12.114176)"
     id="text3814-6"
     style="font-weight:600;font-size:1.8747px;font-family:airment;-inkscape-font-specification:'airment, Semi-Bold';fill:#ffffff;stroke-width:0" /><g
     id="g3"><path
       id="path1717"
       style="display:inline;fill:#000000;fill-opacity:0.995902;fill-rule:evenodd;stroke-width:0;stroke-miterlimit:4;stroke-dasharray:none"
       d="m 0,4.2080335 c 0.0024354,2.3526972 1.89705,4.2586349 4.2333331,4.2586336 2.338026,3e-7 4.2333625,-1.9086766 4.2333337,-4.2631299 C 8.4666338,2.5084731 7.469379,0.97447062 5.9266663,0.29644518 v 0.006497 C 5.8785383,0.28874588 5.8286503,0.28151198 5.7784996,0.28145718 5.486249,0.28145715 5.2493328,0.5200407 5.2493328,0.81434846 5.2493632,1.0311395 5.3798058,1.2263036 5.5792352,1.3079389 6.6952388,1.8339425 7.4082469,2.9626871 7.4083333,4.2035366 7.4083547,5.9693767 5.9868525,7.400884 4.2333331,7.400884 2.4864443,7.4009086 1.0676835,5.9798266 1.0583334,4.2206889 c -1.53e-5,-0.00572 -1.53e-5,-0.011437 0,-0.017152 5.62e-5,-1.2408121 0.7129932,-2.3695468 1.828932,-2.895599 0.1994946,-0.081583 0.33001,-0.2767585 0.3300679,-0.49359039 0,-0.29430777 -0.236916,-0.53289135 -0.5291668,-0.53289125 -0.050142,4.2e-7 -0.1000302,0.007178 -0.1481667,0.021317 v -0.006165 C 0.99734149,0.97461043 9.741e-5,2.5085323 0,4.2035369 v 0.0045 z m 2.1166666,0.00982 c 0.00782,1.1716337 0.9531953,2.1172696 2.1166665,2.1172434 1.1690029,0 2.116667,-0.9543342 2.116667,-2.131565 -6.08e-5,-0.9720042 -0.6530855,-1.8208629 -1.587666,-2.0637877 9.2e-6,-0.00129 1.609e-4,-0.00255 1.696e-4,-0.00383 L 4.7734157,0.53288973 C 4.7754317,0.23767663 4.5374073,0 4.2442492,0 3.9510908,0 3.7170921,0.2376766 3.7150825,0.53289146 L 3.7041705,2.1359214 c -8.3e-6,0.00123 1.609e-4,0.00242 1.693e-4,0.00366 -0.934643,0.2429376 -1.5876868,1.0918858 -1.5876732,2.0639541 -1.59e-5,0.00477 -1.59e-5,0.00955 0,0.01432 z m 1.0583332,-0.013155 v -0.00115 c 10e-8,-0.588615 0.4738321,-1.0657823 1.0583333,-1.0657823 0.5845011,0 1.0583332,0.4771673 1.0583332,1.0657823 0,0.5886154 -0.4738318,1.0657825 -1.0583332,1.0657825 -0.5840497,3e-7 -1.0576945,-0.4764563 -1.0583333,-1.0646167 z"
       sodipodi:nodetypes="ssccccccccccccsccscsccccssssscccccsssssc" /><rect
       style="fill:#000000;stroke-width:0.560035;stroke-linecap:round;stroke-linejoin:bevel;stroke-miterlimit:3"
       id="rect3-34"
       width="1.0583333"
       height="1.0583333"
       x="3.7041667"
       y="7.9375"
       ry="0.52916664"
       rx="0.52916664" /><rect
       style="fill:#000000;stroke-width:0.5598;stroke-linecap:round;stroke-linejoin:bevel;stroke-miterlimit:3"
       id="rect3-2"
       width="1.0576296"
       height="1.0581503"
       x="1.8826544"
       y="-6.4259958"
       ry="0.52907515"
       transform="matrix(-0.89070459,0.45458259,-0.4539782,-0.89101279,0,0)"
       rx="0.52881479" /><rect
       style="fill:#000000;stroke-width:0.559543;stroke-linecap:round;stroke-linejoin:bevel;stroke-miterlimit:3"
       id="rect3-3-0"
       width="1.0574027"
       height="1.0574027"
       x="1.0123643"
       y="1.0157764"
       ry="0.52870136"
       transform="rotate(30.900395)"
       rx="0.52870136" /><rect
       style="fill:#000000;stroke-width:0.559565;stroke-linecap:round;stroke-linejoin:bevel;stroke-miterlimit:3"
       id="rect4"
       width="1.0574466"
       height="1.0574466"
       x="9.4271488"
       y="-2.5798261"
       ry="0.5287233"
       transform="matrix(0.89085877,0.45428036,0.45428033,-0.89085879,0,0)"
       rx="0.5287233" /><rect
       style="fill:#000000;stroke-width:0.559543;stroke-linecap:round;stroke-linejoin:bevel;stroke-miterlimit:3"
       id="rect5"
       width="1.0574028"
       height="1.0574027"
       x="-6.2525554"
       y="5.3638091"
       ry="0.52870136"
       transform="matrix(-0.85806137,0.51354717,0.51354716,0.85806137,0,0)"
       rx="0.52870142" /></g><rect
     style="fill:#ffffff;stroke-width:1.058"
     id="rect6"
     width="0.9588294"
     height="1.4967093"
     x="3.792558"
     y="5.0197392"
     rx="0"
     ry="0" /><g
     id="g4"
     transform="matrix(0.17886142,0,0,0.17886142,3.5548023,5.7464091)"><circle
       style="fill:#000000;fill-opacity:1;fill-rule:evenodd;stroke:none;stroke-width:0.264583px;stroke-linecap:butt;stroke-linejoin:miter;stroke-opacity:1"
       id="path4048"
       cx="3.8033853"
       cy="-8.6485682"
       r="5.2916665" /><circle
       style="fill:#ffffff;fill-opacity:1;fill-rule:evenodd;stroke:none;stroke-width:0.264583px;stroke-linecap:butt;stroke-linejoin:miter;stroke-opacity:1"
       id="path4784"
       cx="3.8033853"
       cy="-8.6485682"
       r="4.2333331" /><path
       style="fill:none;fill-opacity:0.75;fill-rule:evenodd;stroke:#000000;stroke-width:1.05833;stroke-linecap:round;stroke-linejoin:miter;stroke-miterlimit:4;stroke-dasharray:none;stroke-opacity:1"
       d="m 0.0992187,-5.9365889 c 2.1166666,-0.79375 5.2916666,-0.79375 7.4083332,0"
       id="path5512"
       sodipodi:nodetypes="cc" /><path
       style="fill:none;fill-opacity:0.75;fill-rule:evenodd;stroke:#000000;stroke-width:1.05833;stroke-linecap:butt;stroke-linejoin:miter;stroke-miterlimit:4;stroke-dasharray:none;stroke-opacity:1"
       d="M -0.43828128,-8.6485681 H 8.0450519"
       id="path5516" /><path
       style="fill:none;fill-opacity:0.75;fill-rule:evenodd;stroke:#000000;stroke-width:1.05833;stroke-linecap:round;stroke-linejoin:miter;stroke-miterlimit:4;stroke-dasharray:none;stroke-opacity:1"
       d="m 2.745052,-13.000651 c -1.3229166,2.764583 -1.3229166,6.2041662 0,8.8499995"
       id="path5520"
       sodipodi:nodetypes="cc" /><path
       sodipodi:nodetypes="cc"
       id="path6250"
       d="m 0.0992187,-11.360547 c 2.1166666,0.79375 5.2916666,0.79375 7.4083332,0"
       style="fill:none;fill-opacity:0.75;fill-rule:evenodd;stroke:#000000;stroke-width:1.05833;stroke-linecap:round;stroke-linejoin:miter;stroke-miterlimit:4;stroke-dasharray:none;stroke-opacity:1" /><path
       sodipodi:nodetypes="cc"
       id="path9156"
       d="m 4.8617186,-13.000651 c 1.3229167,2.764583 1.3229167,6.2041662 0,8.8499995"
       style="fill:none;fill-opacity:0.75;fill-rule:evenodd;stroke:#000000;stroke-width:1.05833;stroke-linecap:round;stroke-linejoin:miter;stroke-miterlimit:4;stroke-dasharray:none;stroke-opacity:1" /></g></svg>
