<?xml version="1.0" encoding="UTF-8" standalone="no"?>
<svg
   width="100"
   height="100.00001"
   viewBox="0 0 26.458332 26.458336"
   version="1.1"
   id="svg1082"
   inkscape:version="1.3 (0e150ed6c4, 2023-07-21)"
   sodipodi:docname="logo3.svg"
   xml:space="preserve"
   inkscape:export-filename="logo1.png"
   inkscape:export-xdpi="105"
   inkscape:export-ydpi="105"
   xmlns:inkscape="http://www.inkscape.org/namespaces/inkscape"
   xmlns:sodipodi="http://sodipodi.sourceforge.net/DTD/sodipodi-0.dtd"
   xmlns="http://www.w3.org/2000/svg"
   xmlns:svg="http://www.w3.org/2000/svg"
   xmlns:rdf="http://www.w3.org/1999/02/22-rdf-syntax-ns#"
   xmlns:cc="http://creativecommons.org/ns#"
   xmlns:dc="http://purl.org/dc/elements/1.1/"><defs
     id="defs1076" /><sodipodi:namedview
     id="base"
     pagecolor="#ffffff"
     bordercolor="#666666"
     borderopacity="1.0"
     inkscape:pageopacity="0.0"
     inkscape:pageshadow="2"
     inkscape:zoom="2.0000001"
     inkscape:cx="34.999998"
     inkscape:cy="61.249997"
     inkscape:document-units="px"
     inkscape:current-layer="svg1082"
     inkscape:document-rotation="0"
     showgrid="true"
     fit-margin-top="10"
     fit-margin-right="10"
     fit-margin-bottom="10"
     fit-margin-left="10"
     units="px"
     inkscape:window-width="1280"
     inkscape:window-height="961"
     inkscape:window-x="-8"
     inkscape:window-y="-8"
     inkscape:window-maximized="1"
     inkscape:snap-global="false"
     inkscape:showpageshadow="2"
     inkscape:pagecheckerboard="0"
     inkscape:deskcolor="#d1d1d1"><inkscape:grid
       type="xygrid"
       id="grid1084"
       originx="0"
       originy="0"
       spacingy="1"
       spacingx="1"
       units="px"
       visible="true" /></sodipodi:namedview><metadata
     id="metadata1079"><rdf:RDF><cc:Work
         rdf:about=""><dc:format>image/svg+xml</dc:format><dc:type
           rdf:resource="http://purl.org/dc/dcmitype/StillImage" /></cc:Work></rdf:RDF></metadata><g
     aria-label="&lt;/&gt;"
     transform="matrix(0.84520798,0,0,1.1385279,6.6448074,12.114176)"
     id="text3814-6"
     style="font-weight:600;font-size:1.8747px;font-family:airment;-inkscape-font-specification:'airment, Semi-Bold';fill:#ffffff;stroke-width:0" /><path
     id="path1717"
     style="display:inline;fill:#000000;fill-opacity:0.995902;fill-rule:evenodd;stroke-width:0;stroke-miterlimit:4;stroke-dasharray:none"
     d="M 13.263273 0 C 12.347154 0 11.615907 0.74298588 11.609627 1.6655314 L 11.575521 6.6745279 C 11.575495 6.6783679 11.576011 6.6825365 11.576037 6.6864135 C 8.6552809 7.4455927 6.6145407 10.098439 6.6145832 13.136149 C 6.6145335 13.151059 6.6145335 13.165681 6.6145832 13.180591 C 6.6331006 15.954904 8.3351537 18.32088 10.739913 19.305798 C 9.9832499 18.625662 9.5084634 17.63865 9.5084634 16.536458 C 9.5084634 15.744022 9.7544826 15.011659 10.173539 14.409456 C 10.012493 14.018054 9.9223636 13.589736 9.9218749 13.139766 L 9.9218749 13.136149 C 9.9218752 11.296729 11.402602 9.8056029 13.229166 9.8056029 C 15.055731 9.8056029 16.536458 11.296729 16.536458 13.136149 C 16.536458 13.5873 16.446199 14.01707 16.284794 14.409456 C 16.703851 15.011659 16.94987 15.744022 16.94987 16.536458 C 16.94987 17.637982 16.475834 18.624668 15.71997 19.304765 C 18.137646 18.313576 19.84375 15.926977 19.84375 13.136149 C 19.84356 10.098639 17.802857 7.4460695 14.882296 6.6869303 C 14.882325 6.6829003 14.882785 6.6785269 14.882812 6.6745279 L 14.916919 1.6655314 C 14.923219 0.74298868 14.179391 1.5666465e-16 13.263273 0 z M 8.4005207 0.87953287 C 8.2438272 0.87953418 8.0879262 0.90201121 7.9374999 0.94619546 L 7.9374999 0.92707518 C 3.1166975 3.0458299 0.00030440595 7.8392646 0 13.136149 L 0 13.150102 C 0.0076106124 20.502272 5.928289 26.458337 13.229166 26.458333 C 20.53549 26.458334 26.458423 20.493808 26.458333 13.136149 C 26.45823 7.8390786 23.341805 3.0453858 18.520833 0.92655842 L 18.520833 0.94671223 C 18.370433 0.90234887 18.214533 0.87970407 18.057812 0.87953287 C 17.14453 0.87953277 16.404166 1.6253535 16.404166 2.5450643 C 16.404261 3.2225356 16.811895 3.8319789 17.435111 4.087089 C 20.922619 5.7308485 23.150771 9.258498 23.151041 13.136149 C 23.151107 18.654393 18.708909 23.127787 13.229166 23.127787 C 7.7701444 23.127864 3.3365106 18.687192 3.3072916 13.189892 C 3.3072438 13.172012 3.3072438 13.154009 3.3072916 13.136149 C 3.3074672 9.2586148 5.5353996 5.7310005 9.022705 4.087089 C 9.6461249 3.8321424 10.053986 3.2226632 10.054167 2.5450643 C 10.054167 1.6253534 9.3138036 0.87953256 8.4005207 0.87953287 z " /><g
     id="g1"><path
       id="path4048"
       style="fill-rule:evenodd;stroke-width:0.144694px"
       d="M 13.229166 10.252604 A 2.8938804 2.8938804 0 0 0 10.335286 13.146484 A 2.8938804 2.8938804 0 0 0 13.229166 16.040364 A 2.8938804 2.8938804 0 0 0 16.123047 13.146484 A 2.8938804 2.8938804 0 0 0 13.229166 10.252604 z M 13.229166 10.83138 A 2.3151042 2.3151042 0 0 1 15.544271 13.146484 A 2.3151042 2.3151042 0 0 1 13.229166 15.461588 A 2.3151042 2.3151042 0 0 1 10.914062 13.146484 A 2.3151042 2.3151042 0 0 1 13.229166 10.83138 z " /><path
       style="fill:none;fill-opacity:0.75;fill-rule:evenodd;stroke:#000000;stroke-width:0.578774;stroke-linecap:round;stroke-linejoin:miter;stroke-miterlimit:4;stroke-dasharray:none;stroke-opacity:1"
       d="m 11.203451,14.629598 c 1.157552,-0.434082 2.893881,-0.434082 4.051433,0"
       id="path5512"
       sodipodi:nodetypes="cc" /><path
       style="fill:none;fill-opacity:0.75;fill-rule:evenodd;stroke:#000000;stroke-width:0.578774;stroke-linecap:butt;stroke-linejoin:miter;stroke-miterlimit:4;stroke-dasharray:none;stroke-opacity:1"
       d="m 10.909506,13.146484 h 4.639323"
       id="path5516" /><path
       style="fill:none;fill-opacity:0.75;fill-rule:evenodd;stroke:#000000;stroke-width:0.578774;stroke-linecap:round;stroke-linejoin:miter;stroke-miterlimit:4;stroke-dasharray:none;stroke-opacity:1"
       d="m 12.650391,10.766439 c -0.72347,1.511881 -0.72347,3.392903 0,4.839843"
       id="path5520"
       sodipodi:nodetypes="cc" /><path
       sodipodi:nodetypes="cc"
       id="path6250"
       d="m 11.203451,11.663371 c 1.157552,0.434082 2.893881,0.434082 4.051433,0"
       style="fill:none;fill-opacity:0.75;fill-rule:evenodd;stroke:#000000;stroke-width:0.578774;stroke-linecap:round;stroke-linejoin:miter;stroke-miterlimit:4;stroke-dasharray:none;stroke-opacity:1" /><path
       sodipodi:nodetypes="cc"
       id="path9156"
       d="m 13.807944,10.766439 c 0.72347,1.511881 0.72347,3.392903 0,4.839843"
       style="fill:none;fill-opacity:0.75;fill-rule:evenodd;stroke:#000000;stroke-width:0.578774;stroke-linecap:round;stroke-linejoin:miter;stroke-miterlimit:4;stroke-dasharray:none;stroke-opacity:1" /></g></svg>
