<?xml version="1.0" encoding="UTF-8" standalone="no"?>
<svg
   width="200"
   height="200"
   viewBox="0 0 200 200"
   version="1.1"
   id="svg1082"
   inkscape:version="1.3.1 (91b66b0783, 2023-11-16)"
   sodipodi:docname="logo2.svg"
   xml:space="preserve"
   inkscape:export-filename="logo1.png"
   inkscape:export-xdpi="105"
   inkscape:export-ydpi="105"
   xmlns:inkscape="http://www.inkscape.org/namespaces/inkscape"
   xmlns:sodipodi="http://sodipodi.sourceforge.net/DTD/sodipodi-0.dtd"
   xmlns="http://www.w3.org/2000/svg"
   xmlns:svg="http://www.w3.org/2000/svg"
   xmlns:rdf="http://www.w3.org/1999/02/22-rdf-syntax-ns#"
   xmlns:cc="http://creativecommons.org/ns#"
   xmlns:dc="http://purl.org/dc/elements/1.1/"><defs
     id="defs1076" /><sodipodi:namedview
     id="base"
     pagecolor="#ffffff"
     bordercolor="#666666"
     borderopacity="1.0"
     inkscape:pageopacity="0.0"
     inkscape:pageshadow="2"
     inkscape:zoom="1"
     inkscape:cx="259.5"
     inkscape:cy="-13"
     inkscape:document-units="mm"
     inkscape:current-layer="svg1082"
     inkscape:document-rotation="0"
     showgrid="true"
     fit-margin-top="10"
     fit-margin-right="10"
     fit-margin-bottom="10"
     fit-margin-left="10"
     units="px"
     inkscape:window-width="1419"
     inkscape:window-height="474"
     inkscape:window-x="1731"
     inkscape:window-y="389"
     inkscape:window-maximized="0"
     inkscape:snap-global="false"
     inkscape:showpageshadow="2"
     inkscape:pagecheckerboard="0"
     inkscape:deskcolor="#d1d1d1"
     showguides="true"><inkscape:grid
       type="xygrid"
       id="grid1084"
       originx="0"
       originy="0"
       spacingy="1"
       spacingx="1"
       units="px"
       visible="true" /></sodipodi:namedview><metadata
     id="metadata1079"><rdf:RDF><cc:Work
         rdf:about=""><dc:format>image/svg+xml</dc:format><dc:type
           rdf:resource="http://purl.org/dc/dcmitype/StillImage" /></cc:Work></rdf:RDF></metadata><g
     aria-label="&lt;/&gt;"
     transform="matrix(19.965542,0,0,26.894358,156.96395,286.16162)"
     id="text3814-6"
     style="font-weight:600;font-size:1.8747px;font-family:airment;-inkscape-font-specification:'airment, Semi-Bold';fill:#ffffff;stroke-width:0" /><path
     id="path1717"
     style="display:inline;fill:#000000;fill-opacity:0.995902;fill-rule:evenodd;stroke-width:0;stroke-miterlimit:4;stroke-dasharray:none"
     d="M 100.25781,0 C 93.332836,0 87.805283,5.6143314 87.757812,12.587891 L 87.5,50.455078 c -1.96e-4,0.02905 0.0037,0.05665 0.0039,0.08594 C 65.844949,56.170731 50.625885,75.586086 50.054688,98 H 75.064453 C 75.738874,84.702415 86.627664,74.121094 100,74.121094 c 13.37234,0 24.26113,10.581321 24.93555,23.878906 h 25.00976 c -0.57269,-22.412167 -15.79188,-41.825705 -37.44922,-47.455078 2.1e-4,-0.03047 0.004,-0.05961 0.004,-0.08984 l 0.25781,-37.867187 C 112.80534,5.6143661 107.1828,0 100.25781,0 Z M 63.5,6.6484375 c -1.184454,9.9e-6 -2.36292,0.1699151 -3.5,0.5039063 V 7.0058594 C 23.559363,23.021609 0.00230102,59.257518 0,99.296875 v 0.105469 C 0.05752895,154.97769 44.812378,200.00003 100,200 155.22879,200.00001 200.00068,154.9137 200,99.296875 199.99922,59.256113 176.44191,23.018253 140,7.0019531 V 7.15625 c -1.13688,-0.3353447 -2.31533,-0.5065181 -3.5,-0.5078125 -6.90352,-8e-7 -12.5,5.6357595 -12.5,12.5878905 7.2e-4,5.121033 3.08204,9.731769 7.79297,11.660156 26.3622,12.425245 43.20499,39.089074 43.20703,68.400391 5.1e-4,41.712635 -33.5784,75.527345 -75,75.527345 -41.264964,5.8e-4 -74.779131,-33.56874 -75,-75.123048 -3.61e-4,-0.135118 -3.61e-4,-0.269297 0,-0.404297 C 25.0013,69.986442 41.842445,43.322878 68.203125,30.896484 72.915581,28.969333 75.998632,24.358326 76,19.236328 76,12.284198 70.403541,6.6484352 63.5,6.6484375 Z M 99.992188,80.5 a 20.17292,20 0 0 0 -2.638672,0.1875 2.5216094,2.4999944 0 0 1 -0.13086,0.332031 c -1.035478,2.145358 -1.886104,4.388099 -2.560547,6.691407 3.506041,0.302119 7.152151,0.302119 10.658201,0 -0.67445,-2.303308 -1.52507,-4.546049 -2.56054,-6.691407 a 2.5216094,2.4999944 0 0 1 -0.084,-0.33789 A 20.17292,20 0 0 0 99.992188,80.5 Z m 8.908202,2.064453 c 0.5637,1.469499 1.06444,2.962687 1.48828,4.478516 1.28435,-0.23463 2.51901,-0.519414 3.69922,-0.845703 a 20.17292,20 0 0 0 -5.1875,-3.632813 z m -17.835937,0.03906 a 20.17292,20 0 0 0 -5.117187,3.607422 c 1.164278,0.320019 2.381456,0.600931 3.646484,0.832031 0.420013,-1.502099 0.91337,-2.982785 1.470703,-4.439453 z m 26.343747,7.8125 c -1.86694,0.629539 -3.84559,1.150538 -5.90429,1.554687 0.35191,1.995838 0.59283,4.010629 0.71093,6.029297 H 120 a 20.17292,20 0 0 0 -2.5918,-7.583984 z m -34.796872,0.01172 A 20.17292,20 0 0 0 80,98 h 7.767578 c 0.118105,-2.018658 0.359022,-4.033449 0.710938,-6.029297 -2.044923,-0.401439 -4.011199,-0.919179 -5.867188,-1.542969 z m 10.882813,2.292969 C 93.186639,94.467241 92.973568,96.231482 92.861328,98 h 14.259762 c -0.11224,-1.768518 -0.32533,-3.532749 -0.63281,-5.279297 -4.27613,0.44679 -8.718025,0.44679 -12.994139,0 z M 80,103 a 20.17292,20 0 0 0 2.611328,7.57227 c 1.803609,-0.6061 3.710172,-1.11378 5.69336,-1.50977 C 87.988712,107.06209 87.794895,105.03647 87.71875,103 Z m 12.806641,0 c 0.07248,1.78207 0.244079,3.55353 0.515625,5.29883 2.193473,-0.23538 4.431594,-0.35547 6.669922,-0.35547 2.238342,0 4.474492,0.12009 6.667972,0.35547 0.27155,-1.7453 0.44314,-3.51676 0.51562,-5.29883 z m 19.457029,0 c -0.0761,2.03647 -0.26995,4.06209 -0.58594,6.0625 1.9832,0.39599 3.88976,0.90367 5.69336,1.50977 A 20.17292,20 0 0 0 119.98242,103 Z m -12.271482,10.05859 c -1.878059,0 -3.757227,0.0835 -5.59375,0.25 0.671371,2.42534 1.554367,4.76245 2.638671,6.97071 a 20.17292,20 0 0 0 2.955079,0.2207 20.17292,20 0 0 0 2.953122,-0.2207 c 1.08429,-2.20826 1.96731,-4.54537 2.63867,-6.97071 -1.83651,-0.16648 -3.71373,-0.25 -5.591792,-0.25 z m -10.646485,0.94532 c -1.176659,0.22136 -2.310477,0.48667 -3.398437,0.78515 a 20.17292,20 0 0 0 4.722656,3.39258 c -0.502619,-1.36801 -0.948245,-2.76123 -1.324219,-4.17773 z m 21.291017,0 c -0.37597,1.4165 -0.8216,2.80972 -1.32422,4.17773 a 20.17292,20 0 0 0 4.72266,-3.39258 c -1.08796,-0.29848 -2.22178,-0.56379 -3.39844,-0.78515 z M 57.056641,125 c 8.72435,14.74784 24.674026,24.64885 42.943359,24.64844 18.27678,0 34.21602,-9.90726 42.9375,-24.64844 z"
     sodipodi:insensitive="true" /></svg>
