<?xml version="1.0" encoding="UTF-8" standalone="no"?>
<svg
   width="2002.3112"
   height="188.6582"
   viewBox="0 0 154.383 14.546"
   version="1.1"
   id="svg231"
   sodipodi:docname="n-vert.svg"
   inkscape:export-filename="n-vert.png"
   inkscape:export-xdpi="96"
   inkscape:export-ydpi="96"
   inkscape:version="1.2.2 (732a01da63, 2022-12-09)"
   xmlns:inkscape="http://www.inkscape.org/namespaces/inkscape"
   xmlns:sodipodi="http://sodipodi.sourceforge.net/DTD/sodipodi-0.dtd"
   xmlns="http://www.w3.org/2000/svg"
   xmlns:svg="http://www.w3.org/2000/svg">
  <defs
     id="defs235" />
  <sodipodi:namedview
     id="namedview233"
     pagecolor="#ffffff"
     bordercolor="#000000"
     borderopacity="0.25"
     inkscape:showpageshadow="2"
     inkscape:pageopacity="0.0"
     inkscape:pagecheckerboard="0"
     inkscape:deskcolor="#d1d1d1"
     showgrid="false"
     inkscape:zoom="0.1888"
     inkscape:cx="-153.60169"
     inkscape:cy="-307.20339"
     inkscape:window-width="1419"
     inkscape:window-height="481"
     inkscape:window-x="1830"
     inkscape:window-y="621"
     inkscape:window-maximized="0"
     inkscape:current-layer="svg231" />
  <g
     id="g3560"
     transform="translate(-9.861,-91.574058)">
    <g
       id="g3546"
       transform="translate(0,-8.8269422)">
      <path
         d="m 164.244,107.663 c 0,-4.015 -3.096,-7.262 -7.961,-7.262 H 17.524 c -4.508,0 -7.663,3.247 -7.663,7.262 0,4.016 3.12,7.284 7.663,7.284 h 138.782 c 4.819,0 7.938,-3.268 7.938,-7.284 z"
         fill="#2f9c5c"
         id="path207"
         style="clip-rule:evenodd;fill-rule:evenodd" />
      <path
         d="m 23.099,107.663 c 0,3.144 -2.558,5.725 -5.701,5.725 -3.143,0 -5.724,-2.581 -5.724,-5.725 0,-3.143 2.581,-5.701 5.724,-5.701 a 5.708,5.708 0 0 1 5.701,5.701 z"
         fill="#ffffff"
         id="path209"
         style="clip-rule:evenodd;fill-rule:evenodd" />
      <path
         d="m 21.677,107.674 c 0,-0.298 -0.207,-0.526 -0.459,-0.653 l -6.699,-3.304 -0.081,0.104 c 0.77,1.158 1.17,2.408 1.17,3.797 0,1.491 -0.4,2.685 -1.181,3.946 l 0.081,0.092 6.688,-3.315 c 0.251,-0.127 0.481,-0.368 0.481,-0.667 z"
         fill="#2f9c5c"
         id="path211"
         style="clip-rule:evenodd;fill-rule:evenodd" />
      <path
         d="m 33.499,111.988 -3.384,-5.116 c -0.39,-0.597 -0.447,-0.723 -0.7,-1.239 h -0.022 c 0.046,0.643 0.046,1.044 0.046,1.423 v 4.933 H 27.9 v -7.009 c 0,-0.402 -0.241,-0.597 -0.585,-0.654 l -0.493,-0.08 c 0.035,-0.253 0.138,-0.734 0.252,-0.976 h 2.856 l 2.891,4.348 c 0.413,0.62 0.688,1.171 0.952,1.756 h 0.023 a 11.296,11.296 0 0 1 -0.058,-1.193 v -4.91 h 1.538 v 8.719 h -1.777 z m 6.079,-6.917 c 0,0.619 -0.287,1.101 -0.803,1.101 -0.459,0 -0.803,-0.378 -0.803,-1.158 0,-0.654 0.287,-1.136 0.803,-1.136 0.516,0 0.803,0.459 0.803,1.193 z m 1.285,-0.069 c 0,-0.929 -0.677,-1.938 -1.973,-1.938 -1.296,0 -2.226,0.803 -2.226,2.042 0,1.182 0.975,1.881 2.065,1.881 1.021,-10e-4 2.134,-0.586 2.134,-1.985 z m 6.55,6.986 h -1.629 l -2.386,-7.124 c -0.092,-0.287 -0.264,-0.481 -0.608,-0.539 l -0.493,-0.08 c 0.046,-0.333 0.172,-0.814 0.252,-0.976 h 2.397 l 1.422,4.681 c 0.218,0.711 0.39,1.525 0.482,2.054 h 0.022 a 24.09,24.09 0 0 1 0.585,-2.111 l 1.548,-4.623 h 1.664 z m 6.252,-3.82 h -1.996 c 0,-0.699 0.206,-1.456 1.021,-1.456 0.837,0 0.986,0.767 0.975,1.456 z m 1.606,0.493 c 0,-1.709 -0.78,-3.028 -2.57,-3.028 -1.813,0 -2.811,1.48 -2.811,3.235 0,2.145 1.17,3.223 3.212,3.223 0.528,0 1.089,-0.068 1.572,-0.286 0.149,-0.355 0.252,-0.849 0.287,-1.216 -0.505,0.194 -0.976,0.31 -1.514,0.31 -0.987,0 -1.778,-0.585 -1.778,-1.663 h 3.556 c 0.023,-0.196 0.046,-0.38 0.046,-0.575 z m 4.611,-1.262 a 1.296,1.296 0 0 0 -0.688,-0.207 c -0.482,0 -0.769,0.207 -0.987,0.517 v 4.279 h -1.801 v -4.485 c 0,-0.39 -0.149,-0.608 -0.516,-0.688 0.034,-0.298 0.16,-0.814 0.275,-1.066 0.975,-0.058 1.48,0.126 1.847,0.871 h 0.023 c 0.54,-0.733 0.998,-0.986 1.767,-0.986 0.184,0 0.321,0.012 0.516,0.058 a 7.65,7.65 0 0 1 -0.436,1.707 z m 4.634,4.44 a 3.696,3.696 0 0 1 -1.365,0.252 c -1.228,0 -2.191,-0.539 -2.191,-1.881 v -5.931 c 0.482,-0.252 1.411,-0.527 1.893,-0.643 v 2.1 h 1.789 c -0.011,0.424 -0.103,0.93 -0.172,1.182 h -1.617 v 2.959 c 0,0.666 0.298,1.033 0.986,1.033 0.298,0 0.631,-0.081 0.895,-0.229 -0.023,0.263 -0.103,0.826 -0.218,1.158 z m 97.984,-4.176 c 0,3.314 -2.453,5.781 -6.537,5.781 H 67.601 c 1.801,-1.319 2.891,-3.418 2.891,-5.781 0,-2.363 -1.089,-4.451 -2.914,-5.771 h 88.455 c 4.049,0.001 6.467,2.478 6.467,5.771 z"
         fill="#ffffff"
         id="path213"
         style="clip-rule:evenodd;fill-rule:evenodd" />
    </g>
    <g
       id="g3550"
       transform="translate(0.9252288,11.610061)">
      <text
         xml:space="preserve"
         style="font-weight:bold;font-size:10.5729px;font-family:Verdana;-inkscape-font-specification:'Verdana, Bold';fill:#2f9c5c;fill-opacity:1;stroke:none;stroke-width:0.198236"
         x="83.869553"
         y="81.932297"
         id="text3007"
         transform="scale(0.89513374,1.1171515)"><tspan
           sodipodi:role="line"
           id="tspan3005"
           style="fill:#2f9c5c;fill-opacity:1;stroke:none;stroke-width:0.198236"
           x="83.869553"
           y="81.932297">0 805 69 00 09</tspan></text>
    </g>
  </g>
</svg>
