<?xml version="1.0" encoding="UTF-8" standalone="no"?>
<!-- Created with Inkscape (http://www.inkscape.org/) -->

<svg
   width="500"
   height="250"
   viewBox="0 0 500 250"
   version="1.1"
   id="svg1"
   inkscape:version="1.3 (0e150ed6c4, 2023-07-21)"
   xml:space="preserve"
   sodipodi:docname="car.svg"
   xmlns:inkscape="http://www.inkscape.org/namespaces/inkscape"
   xmlns:sodipodi="http://sodipodi.sourceforge.net/DTD/sodipodi-0.dtd"
   xmlns="http://www.w3.org/2000/svg"
   xmlns:svg="http://www.w3.org/2000/svg"
   xmlns:rdf="http://www.w3.org/1999/02/22-rdf-syntax-ns#"
   xmlns:cc="http://creativecommons.org/ns#"
   xmlns:dc="http://purl.org/dc/elements/1.1/"><sodipodi:namedview
     id="namedview1"
     pagecolor="#505050"
     bordercolor="#eeeeee"
     borderopacity="1"
     inkscape:showpageshadow="0"
     inkscape:pageopacity="0"
     inkscape:pagecheckerboard="0"
     inkscape:deskcolor="#505050"
     inkscape:document-units="px"
     showgrid="true"
     inkscape:zoom="0.723"
     inkscape:cx="210.23513"
     inkscape:cy="-29.737206"
     inkscape:window-width="1280"
     inkscape:window-height="961"
     inkscape:window-x="-8"
     inkscape:window-y="-8"
     inkscape:window-maximized="1"
     inkscape:current-layer="layer1"><inkscape:grid
       id="grid1"
       units="px"
       originx="232.17763"
       originy="490.33939"
       spacingx="1"
       spacingy="1"
       empcolor="#0099e5"
       empopacity="0.30196078"
       color="#0099e5"
       opacity="0.14901961"
       empspacing="5"
       dotted="false"
       gridanglex="30"
       gridanglez="30"
       visible="true" /><sodipodi:guide
       position="544.30529,-247.02766"
       orientation="0,500"
       id="guide1"
       inkscape:locked="false" /><sodipodi:guide
       position="733.65132,-307.9614"
       orientation="500,0"
       id="guide2"
       inkscape:locked="false" /><sodipodi:guide
       position="732.17763,-740.33936"
       orientation="0,-500"
       id="guide3"
       inkscape:locked="false" /><sodipodi:guide
       position="232.17763,-740.33936"
       orientation="-500,0"
       id="guide4"
       inkscape:locked="false" /></sodipodi:namedview><defs
     id="defs1">&#10;	&#10;	&#10;&#10;		&#10;		&#10;		&#10;		&#10;	&#10;		&#10;		&#10;		&#10;		&#10;	&#10;	&#10;	&#10;&#10;		&#10;		&#10;		&#10;		&#10;	&#10;		&#10;		&#10;		&#10;	&#10;	&#10;	&#10;&#10;		&#10;		&#10;		&#10;	</defs><g
     inkscape:label="Calque 1"
     inkscape:groupmode="layer"
     id="layer1"
     transform="translate(232.17763,490.33936)"><g
       id="g31"
       transform="matrix(0.78973516,0,0,0.91995027,-48.782681,-39.251552)"><g
         id="g30"
         transform="matrix(0.77142857,0,0,0.84420533,20.571429,-52.537504)"><path
           d="m -65.252431,-518.17511 c -5.800293,1.2449 -5.526694,1.07892 -5.909732,4.60615 -0.21888,1.74286 -0.492478,3.31974 -0.656637,3.52723 -0.328319,0.41496 -13.461058,4.35716 -32.28465,9.71025 -24.51445,6.92997 -57.56517,17.22118 -64.18626,20.04296 -4.26814,1.78437 -10.56091,3.77621 -13.67993,4.31567 -1.25856,0.20748 -5.36254,0.58096 -9.02876,0.78844 -3.66623,0.24899 -9.1382,0.78844 -12.14778,1.24491 -8.42685,1.2864 -18.60472,2.03334 -30.80722,2.36531 l -11.10811,0.24898 -2.35295,2.73879 c -3.22846,3.77621 -3.28319,3.9422 -1.42272,5.39459 2.02464,1.53538 2.07935,2.69729 0.16416,6.22452 -1.36799,2.57281 -1.47742,3.23676 -1.69631,10.62318 l -0.21888,7.88441 -2.07935,1.32789 c -4.9795,3.23676 -7.27772,8.67284 -7.33244,17.34567 0,8.05038 0.60191,16.43274 1.42271,20.00146 0.71136,2.94628 0.76607,3.07077 3.93983,5.06262 3.77566,2.40681 7.11356,5.35309 8.64572,7.63541 3.50206,5.2286 29.22034,8.75583 75.73212,10.3742 l 5.03421,0.166 -0.32832,-4.93813 c -0.32832,-5.89254 0.43777,-10.62319 2.68128,-15.89328 6.1286,-14.60688 21.55957,-25.81102 41.36812,-29.9607 4.92478,-1.07892 6.12862,-1.16191 15.21209,-1.16191 9.028758,0 10.287313,0.083 15.21209,1.12041 10.998668,2.32382 19.753827,6.30752 27.578751,12.53204 7.660764,6.01704 12.147783,12.15857 14.99321,20.41643 1.149114,3.27826 1.313274,4.52316 1.258554,11.57762 -0.05472,5.2701 -0.328318,8.88031 -0.875516,10.91366 l -0.820796,3.02927 164.487557,-0.29048 c 90.45173,-0.16599 164.54226,-0.33198 164.65171,-0.37347 0.0547,-0.0415 -0.43776,-1.53538 -1.0944,-3.36125 -1.03967,-2.78028 -1.20383,-4.35716 -1.20383,-10.74767 -0.0547,-6.88847 0.0548,-7.75991 1.47743,-11.57761 6.40221,-17.47016 25.55412,-30.54166 48.42698,-33.07296 6.51164,-0.70545 17.78391,-0.29049 23.63893,0.87143 13.07801,2.6143 24.78804,8.50685 32.88656,16.55723 3.83038,3.8177 8.42684,11.07965 10.12316,16.01777 1.31326,3.65172 1.47742,4.93812 1.47742,10.78917 0.0547,4.81363 -0.21887,7.51093 -0.87551,9.71025 -0.5472,1.70138 -0.87552,3.11227 -0.82079,3.15376 0.10943,0.0415 3.39262,-0.083 7.27772,-0.24898 14.55545,-0.66394 25.06164,-1.86736 28.72787,-3.27824 2.62654,-0.99593 5.30782,-3.36125 6.9494,-6.05854 l 1.31328,-2.15783 -0.87551,-6.515 c -0.8208,-6.30752 -0.8208,-6.76399 0.21887,-11.7851 3.44735,-16.10077 2.73599,-28.21783 -1.91519,-33.28045 -7.33244,-8.00888 -28.78259,-13.94292 -78.19452,-21.53685 -40.32844,-6.18302 -72.3395,-8.67283 -111.24523,-8.71433 -12.47611,0 -12.36667,0 -18.98776,-3.52722 -10.23259,-5.43609 -57.18213,-25.18857 -80.49274,-33.81991 -20.95767,-7.75991 -43.11916,-11.66061 -78.741714,-13.77694 -11.381707,-0.70545 -60.5200381,-0.66396 -76.6076426,0 -6.6210894,0.29048 -17.1819994,0.78843 -23.5294904,1.12041 -16.525363,0.91293 -15.649846,0.91293 -18.659433,-0.41497 -7.660764,-3.36124 -10.232592,-3.9007 -14.719611,-2.94627 z m 103.146718,13.81844 c 0.328319,1.53538 2.079351,9.87624 3.885102,18.50758 1.751032,8.67283 3.611503,17.51166 4.103982,19.66949 0.492477,2.15783 0.820795,3.98369 0.711356,4.02519 -0.601917,0.37347 -92.968846,-1.20341 -106.758222,-1.82586 -11.272267,-0.53945 -22.818133,-1.49389 -26.539076,-2.24083 -5.362535,-1.07891 -10.83451,-4.93812 -13.625219,-9.58576 -1.91519,-3.11226 -1.96991,-7.13745 -0.2736,-10.58169 0.930239,-1.86736 1.641596,-2.5313 3.720946,-3.56872 4.541739,-2.24084 7.387166,-3.31976 13.844096,-5.2701 18.659433,-5.64357 46.949541,-9.54427 79.8908271,-11.07965 14.7196119,-0.66395 14.7743309,-0.66395 27.9617889,-0.74694 l 12.421382,-0.083 z m 34.47344,-1.95035 c 14.446015,0.74694 42.517243,4.56465 56.306623,7.71841 10.17786,2.32382 24.35028,7.8014 41.36812,16.05926 11.54587,5.56057 14.99321,7.51093 13.67994,7.67691 -4.10399,0.49797 -7.27773,2.07484 -8.8646,4.39867 -1.03967,1.45239 -1.14912,5.64356 -0.21888,7.42792 l 0.60192,1.12042 -49.63081,-0.083 -49.57609,-0.12449 -3.228465,-6.63949 c -6.019172,-12.53203 -16.306484,-36.4342 -16.306484,-38.01108 0,-0.24898 5.198375,-0.083 15.868726,0.45646 z"
           id="path1"
           style="fill:#333333;stroke:none;stroke-width:0.0476519" /><path
           d="m -116.25123,-426.42565 c -12.20251,1.65987 -22.4351,5.85105 -31.08082,12.69803 -7.223,5.72656 -11.65531,11.7436 -14.33657,19.37901 -1.20383,3.44424 -1.42271,4.93812 -1.42271,10.24971 -0.0548,7.01296 0.5472,9.79325 3.55678,15.85179 4.76061,9.54426 14.82905,18.09261 26.97684,22.86474 4.65117,1.82586 9.74011,3.23676 14.82904,4.06669 5.85502,0.95443 17.07256,0.95443 22.927577,-0.0415 21.45014,-3.48573 38.249101,-15.5613 43.885235,-31.57908 1.258554,-3.56873 1.422713,-4.97962 1.477433,-10.54019 0.05472,-6.5565 -0.273598,-8.25786 -2.517108,-13.69394 -5.362535,-12.86402 -19.42551,-23.5287 -36.552789,-27.76137 -8.207962,-2.07484 -19.370788,-2.65581 -27.742908,-1.49389 z m 19.151908,12.49054 c 13.625216,2.32382 25.006923,10.24972 29.712821,20.70692 1.367993,2.98776 1.532153,3.94219 1.532153,9.12929 0.05472,6.34901 -0.820796,9.46128 -4.049262,14.3164 -5.143655,7.71841 -15.485687,13.98443 -26.539076,16.01777 -5.253094,0.99593 -14.664894,0.99593 -19.699114,0 -17.51031,-3.48573 -29.76753,-14.73137 -30.75249,-28.25933 -1.09439,-14.89736 11.43643,-27.92735 30.53362,-31.74506 5.14365,-0.99592 13.84409,-1.07892 19.261348,-0.16599 z"
           id="path2"
           style="fill:#333333;stroke:none;stroke-width:0.0476519" /><path
           d="m -118.05699,-408.66501 c -1.9699,0.53945 -4.65118,1.49389 -5.96444,2.11634 l -2.40767,1.16191 6.34748,4.77213 c 4.4323,3.40274 6.56637,4.73063 7.16829,4.56465 0.76608,-0.24899 0.87552,-1.20341 0.87552,-6.92997 0,-7.71841 0.32832,-7.38643 -6.01918,-5.68506 z"
           id="path3"
           style="fill:#333333;stroke:none;stroke-width:0.0476519" /><path
           d="m -100.54667,-403.02144 c 0,5.76805 0.10944,6.72247 0.875519,6.97146 0.601918,0.16598 2.735988,-1.16191 7.113567,-4.48165 l 6.292771,-4.73065 -1.532153,-0.91292 c -1.860471,-1.16192 -7.551324,-2.90478 -10.560911,-3.27826 l -2.188793,-0.29047 z"
           id="path4"
           style="fill:#333333;stroke:none;stroke-width:0.0476519" /><path
           d="m -135.45786,-398.33231 c -1.53216,1.49389 -5.03422,7.9259 -5.03422,9.33678 0,0.41497 1.86048,0.53947 9.02876,0.53947 8.26268,0 9.02876,-0.0415 9.02876,-0.74695 0,-0.62245 -11.27227,-9.62725 -12.09307,-9.62725 -0.21888,0 -0.60191,0.24897 -0.93023,0.49795 z"
           id="path5"
           style="fill:#333333;stroke:none;stroke-width:0.0476519" /><path
           d="m -84.021303,-394.30711 c -3.392625,2.44831 -6.128612,4.77213 -6.128612,5.1456 0,0.62245 0.930236,0.70545 9.028758,0.70545 7.168287,0 9.028758,-0.1245 9.028758,-0.53947 0,-1.65987 -3.775662,-8.50684 -5.198375,-9.41977 -0.383039,-0.24898 -2.626549,1.12041 -6.730529,4.10819 z"
           id="path6"
           style="fill:#333333;stroke:none;stroke-width:0.0476519" /><path
           d="m -108.15271,-393.51868 c -0.65664,0.91294 0.60192,2.57281 1.86047,2.57281 0.43776,0 1.14911,-0.41497 1.58687,-0.91293 1.0944,-1.16191 0.21888,-2.40681 -1.58687,-2.40681 -0.71136,0 -1.58687,0.33197 -1.86047,0.74693 z"
           id="path7"
           style="fill:#333333;stroke:none;stroke-width:0.0476519" /><path
           d="m -109.90374,-386.42272 c -1.75103,1.36939 -2.02464,2.78029 -0.76608,4.56465 1.58687,2.36532 5.69085,2.65579 8.26268,0.58095 2.900149,-2.36531 0.49248,-6.34901 -3.8851,-6.34901 -1.47743,0 -2.40767,0.33198 -3.6115,1.20341 z"
           id="path8"
           style="fill:#333333;stroke:none;stroke-width:0.0476519" /><path
           d="m -119.69857,-384.92883 c -1.42272,1.3279 0.71135,3.36124 2.62654,2.44831 1.31327,-0.66395 1.47743,-1.86736 0.32832,-2.53131 -1.25856,-0.70544 -2.13407,-0.66395 -2.95486,0.083 z"
           id="path9"
           style="fill:#333333;stroke:none;stroke-width:0.0476519" /><path
           d="m -95.840768,-384.88733 c -1.094395,0.78843 -1.094395,1.57687 -0.10944,2.24082 1.258554,0.78844 3.337904,0.33197 3.502064,-0.74694 0.383038,-1.82586 -1.751032,-2.78029 -3.392624,-1.49388 z"
           id="path10"
           style="fill:#333333;stroke:none;stroke-width:0.0476519" /><path
           d="m -140.49208,-378.70431 c 0,1.2034 2.24351,5.80955 3.93982,8.05038 l 1.69631,2.19933 6.40221,-4.85513 c 3.88511,-2.94627 6.3475,-5.1041 6.18334,-5.43608 -0.21888,-0.45647 -2.1888,-0.58095 -9.24764,-0.58095 -7.71549,0 -8.97404,0.083 -8.97404,0.62245 z"
           id="path11"
           style="fill:#333333;stroke:none;stroke-width:0.0476519" /><path
           d="m -90.149915,-378.57982 c 0,0.37347 2.790707,2.82178 6.238051,5.43608 l 6.238051,4.73064 1.696312,-2.24083 c 1.641592,-2.11633 3.885102,-6.84698 3.885102,-8.09188 0,-0.45647 -1.696312,-0.58095 -9.028758,-0.58095 -8.262682,0 -9.028758,0.0415 -9.028758,0.74694 z"
           id="path12"
           style="fill:#333333;stroke:none;stroke-width:0.0476519" /><path
           d="m -108.20743,-375.63355 c -0.38304,0.62245 -0.2736,0.99593 0.43776,1.70137 1.75103,1.65987 4.65118,0.16599 3.39262,-1.70137 -0.76608,-1.03742 -3.0643,-1.03742 -3.83038,0 z"
           id="path13"
           style="fill:#333333;stroke:none;stroke-width:0.0476519" /><path
           d="m -120.13634,-367.16819 c -3.3379,2.57279 -6.1286,4.77213 -6.1286,4.93811 0,0.74694 11.3817,4.48166 13.62521,4.48166 0.38304,0 0.60192,-2.24083 0.60192,-6.80548 0,-5.80955 -0.10944,-6.84697 -0.87552,-7.05446 -0.49248,-0.12448 -0.87551,-0.24898 -0.93024,-0.24898 -0.0548,0 -2.90014,2.11634 -6.29277,4.68915 z"
           id="path14"
           style="fill:#333333;stroke:none;stroke-width:0.0476519" /><path
           d="m -99.83531,-371.56686 c -0.8208,0.24899 -1.03968,13.81844 -0.21888,13.81844 2.517109,0 13.734657,-3.65172 13.734657,-4.48166 0,-0.37346 -12.202502,-9.62726 -12.585541,-9.58576 -0.164159,0 -0.601917,0.12449 -0.930236,0.24898 z"
           id="path15"
           style="fill:#333333;stroke:none;stroke-width:0.0476519" /><path
           d="m 325.17294,-426.17667 c -21.3407,3.48573 -38.08493,15.6028 -43.61163,31.49609 -1.69631,4.85512 -2.24351,12.11707 -1.31328,17.05519 1.80576,9.41978 8.20797,18.79806 17.40089,25.27156 14.61017,10.3742 35.1848,14.2749 54.3367,10.3327 6.40221,-1.3279 15.48569,-4.89662 20.79351,-8.13337 26.64851,-16.43274 28.34482,-46.80841 3.66622,-64.73503 -5.30782,-3.85921 -9.08348,-5.80956 -15.86873,-8.21637 -7.49661,-2.6558 -12.85914,-3.56873 -22.27094,-3.77622 -6.56637,-0.12448 -8.86459,0 -13.13274,0.70545 z m 24.3503,12.9885 c 13.02329,3.36124 22.38037,10.70618 26.59379,20.9974 1.6416,3.98369 1.80575,11.99257 0.2736,16.10075 -6.01917,16.59874 -28.07123,26.43348 -49.84969,22.2423 -8.15324,-1.57688 -17.12727,-6.10003 -21.99734,-11.07965 -9.63067,-9.87624 -11.10811,-22.1178 -3.8851,-33.07296 1.86047,-2.86328 3.28319,-4.27417 7.55133,-7.46943 4.21342,-3.23675 6.07389,-4.31567 9.90427,-5.76806 7.05884,-2.69729 11.32699,-3.36124 19.91799,-3.19525 5.96445,0.12449 7.82492,0.29048 11.49115,1.2449 z"
           id="path16"
           style="fill:#333333;stroke:none;stroke-width:0.0476519" /><path
           d="m 325.3371,-408.78951 c -2.95486,0.78845 -8.37212,2.94628 -8.37212,3.31975 0,0.12449 2.79071,2.36532 6.23806,4.93813 4.37757,3.31974 6.51165,4.64763 7.11356,4.48165 0.76607,-0.20749 0.87552,-1.20341 0.87552,-6.92997 v -6.63949 l -1.47743,0.0415 c -0.87552,0 -2.84543,0.37347 -4.37759,0.78844 z"
           id="path17"
           style="fill:#333333;stroke:none;stroke-width:0.0476519" /><path
           d="m 342.68326,-403.02144 c 0,5.76805 0.10944,6.72247 0.87552,6.97146 1.20383,0.33198 13.51577,-8.96331 12.80442,-9.62727 -0.93023,-0.82993 -8.91931,-3.48573 -11.32698,-3.77621 l -2.35296,-0.29047 z"
           id="path18"
           style="fill:#333333;stroke:none;stroke-width:0.0476519" /><path
           d="m 306.89655,-397.33639 c -1.58687,1.82587 -4.1587,6.84699 -4.1587,8.05039 0,0.78844 0.38304,0.82994 9.02876,0.82994 6.89469,0 9.02876,-0.1245 9.02876,-0.53947 0,-0.29047 -2.79071,-2.61429 -6.23806,-5.22859 l -6.23805,-4.73064 z"
           id="path19"
           style="fill:#333333;stroke:none;stroke-width:0.0476519" /><path
           d="m 358.71615,-394.18263 c -3.3379,2.57281 -5.96446,4.93813 -5.8003,5.1871 0.32832,0.62246 18.22168,0.78845 18.22168,0.166 0,-1.86736 -4.81533,-10.00073 -5.90973,-10.00073 -0.21888,0 -3.11903,2.11633 -6.51165,4.64763 z"
           id="path20"
           style="fill:#333333;stroke:none;stroke-width:0.0476519" /><path
           d="m 335.13194,-393.76766 c -0.93024,0.70545 -0.8208,1.3279 0.38304,2.15784 0.87551,0.58095 1.25855,0.62245 2.24351,0.24898 1.69631,-0.70545 1.31328,-2.6558 -0.5472,-2.82179 -0.76608,-0.083 -1.69631,0.1245 -2.07935,0.41497 z"
           id="path21"
           style="fill:#333333;stroke:none;stroke-width:0.0476519" /><path
           d="m 333.16203,-386.33972 c -3.72094,3.36124 0.93024,8.05038 6.01917,5.97554 4.87006,-1.99185 3.06431,-7.26195 -2.5171,-7.26195 -1.6416,0 -2.40767,0.24899 -3.50207,1.28641 z"
           id="path22"
           style="fill:#333333;stroke:none;stroke-width:0.0476519" /><path
           d="m 323.53136,-384.97033 c -1.03968,0.95442 -0.43777,2.53131 0.98495,2.65579 2.40767,0.29048 3.66623,-1.32789 1.96991,-2.57279 -1.03967,-0.82994 -2.07935,-0.82994 -2.95486,-0.083 z"
           id="path23"
           style="fill:#333333;stroke:none;stroke-width:0.0476519" /><path
           d="m 347.38916,-385.01183 c -1.14911,0.66395 -0.98495,1.86736 0.38304,2.53131 2.02463,0.95443 4.21342,-1.45239 2.24351,-2.53131 -0.5472,-0.29047 -1.14911,-0.53945 -1.31327,-0.53945 -0.16416,0 -0.76608,0.24898 -1.31328,0.53945 z"
           id="path24"
           style="fill:#333333;stroke:none;stroke-width:0.0476519" /><path
           d="m 302.73785,-378.49683 c 0,1.20341 2.35295,5.85105 4.04926,8.09188 l 1.53215,1.99185 6.3475,-4.81363 c 4.43229,-3.36124 6.18332,-4.97962 5.96445,-5.43608 -0.32832,-0.58096 -1.58688,-0.66395 -9.13819,-0.66395 -8.31741,0 -8.75517,0.0415 -8.75517,0.82993 z"
           id="path25"
           style="fill:#333333;stroke:none;stroke-width:0.0476519" /><path
           d="m 352.91585,-378.8288 c -0.16416,0.29047 2.57183,2.73878 6.0739,5.39459 l 6.34749,4.89662 1.47743,-1.78436 c 1.47744,-1.82586 4.32286,-7.34494 4.32286,-8.42386 0,-0.49796 -1.53215,-0.58095 -8.97403,-0.58095 -6.67582,0 -9.08349,0.12448 -9.24765,0.49796 z"
           id="path26"
           style="fill:#333333;stroke:none;stroke-width:0.0476519" /><path
           d="m 335.07722,-375.63355 c -0.76608,1.03742 -0.2736,1.99185 1.0944,2.32382 1.47743,0.37347 2.7907,-0.53945 2.57183,-1.82585 -0.21889,-1.41089 -2.79071,-1.78437 -3.66623,-0.49797 z"
           id="path27"
           style="fill:#333333;stroke:none;stroke-width:0.0476519" /><path
           d="m 323.09359,-367.16819 c -3.3379,2.57279 -6.12861,4.77213 -6.12861,4.93811 0,0.82994 10.99867,4.48166 13.51578,4.48166 0.5472,0 0.71136,-1.41089 0.71136,-6.80548 0,-5.80955 -0.10945,-6.84697 -0.87552,-7.05446 -0.49248,-0.12448 -0.87551,-0.24898 -0.93023,-0.24898 -0.0548,0 -2.90015,2.11634 -6.29278,4.68915 z"
           id="path28"
           style="fill:#333333;stroke:none;stroke-width:0.0476519" /><path
           d="m 343.39462,-371.56686 c -0.5472,0.12449 -0.71136,1.95035 -0.71136,7.01296 0,3.73471 0.21889,6.80548 0.43776,6.80548 1.96991,0 10.17788,-2.5313 13.07802,-4.06669 0.87551,-0.41497 -11.81946,-10.04223 -12.80442,-9.75175 z"
           id="path29"
           style="fill:#333333;stroke:none;stroke-width:0.0476519" /></g><path
         d="m 364.62756,-286.58091 c 16.76012,2.73755 29.91036,12.2538 34.25079,24.73574 1.33223,3.81301 1.76197,9.51625 1.0314,13.39444 -1.41817,7.39792 -6.4462,14.76323 -13.66594,19.84725 -11.47423,8.14748 -27.6327,11.21093 -42.67383,8.11489 -5.02803,-1.04287 -12.16181,-3.8456 -16.33035,-6.38762 -20.92866,-12.90561 -22.26088,-36.7614 -2.87931,-50.84025 4.16854,-3.03086 7.13379,-4.56259 12.46265,-6.4528 5.88753,-2.08575 10.09904,-2.80273 17.49067,-2.96568 5.15697,-0.0978 6.9619,0 10.31392,0.55403 z m -19.12371,10.20064 c -10.22798,2.63978 -17.57663,8.40819 -20.88568,16.49049 -1.28924,3.12863 -1.41817,9.41849 -0.21488,12.64489 4.72721,13.03596 22.046,20.75975 39.14991,17.46817 6.40322,-1.2384 13.45106,-4.7907 17.2758,-8.7015 7.56354,-7.7564 8.72386,-17.37042 3.0512,-25.97415 -1.46114,-2.2487 -2.57848,-3.35676 -5.9305,-5.86617 -3.30904,-2.54203 -4.77018,-3.38935 -7.7784,-4.53 -5.54374,-2.11834 -8.89576,-2.63979 -15.64278,-2.50943 -4.68424,0.0978 -6.14537,0.22813 -9.02467,0.9777 z"
         id="path16-8-0"
         style="font-variation-settings:normal;vector-effect:none;fill:#b3b3b3;fill-opacity:1;stroke:#007f00;stroke-width:1.37271;stroke-linecap:butt;stroke-linejoin:miter;stroke-miterlimit:4;stroke-dasharray:none;stroke-dashoffset:0;stroke-opacity:1;-inkscape-stroke:none;stop-color:#000000" /><path
         d="m 364.49864,-272.92575 c 2.32063,0.61921 6.57512,2.31389 6.57512,2.60721 0,0.0978 -2.19171,1.85762 -4.89911,3.87819 -3.43798,2.6072 -5.11398,3.65006 -5.5867,3.5197 -0.60165,-0.16295 -0.6876,-0.94509 -0.6876,-5.4425 v -5.21438 l 1.16032,0.0326 c 0.68759,0 2.23467,0.2933 3.43797,0.6192 z"
         id="path17-1-2"
         style="font-variation-settings:normal;vector-effect:none;fill:#b3b3b3;fill-opacity:1;stroke:#007f00;stroke-width:1.37271;stroke-linecap:butt;stroke-linejoin:miter;stroke-miterlimit:4;stroke-dasharray:none;stroke-dashoffset:0;stroke-opacity:1;-inkscape-stroke:none;stop-color:#000000" /><path
         d="m 350.87568,-268.39574 c 0,4.53 -0.086,5.27955 -0.6876,5.47509 -0.94544,0.26072 -10.61474,-7.03941 -10.05606,-7.56085 0.73056,-0.6518 7.00486,-2.73755 8.89575,-2.96567 l 1.84791,-0.22813 z"
         id="path18-6-5"
         style="font-variation-settings:normal;vector-effect:none;fill:#b3b3b3;fill-opacity:1;stroke:#007f00;stroke-width:1.37271;stroke-linecap:butt;stroke-linejoin:miter;stroke-miterlimit:4;stroke-dasharray:none;stroke-dashoffset:0;stroke-opacity:1;-inkscape-stroke:none;stop-color:#000000" /><path
         d="m 378.9811,-263.93092 c 1.24625,1.43394 3.26607,5.37733 3.26607,6.32243 0,0.61922 -0.30082,0.65181 -7.09082,0.65181 -5.41481,0 -7.09081,-0.0978 -7.09081,-0.42367 0,-0.22814 2.19171,-2.05318 4.89911,-4.10634 l 4.8991,-3.71524 z"
         id="path19-7-9"
         style="font-variation-settings:normal;vector-effect:none;fill:#b3b3b3;fill-opacity:1;stroke:#007f00;stroke-width:1.37271;stroke-linecap:butt;stroke-linejoin:miter;stroke-miterlimit:4;stroke-dasharray:none;stroke-dashoffset:0;stroke-opacity:1;-inkscape-stroke:none;stop-color:#000000" /><path
         d="m 338.2841,-261.4541 c 2.62146,2.02057 4.68424,3.8782 4.55532,4.07375 -0.25785,0.48884 -14.31056,0.6192 -14.31056,0.13036 0,-1.46655 3.78177,-7.85417 4.64126,-7.85417 0.1719,0 2.44956,1.66208 5.11398,3.65006 z"
         id="path20-3-1"
         style="font-variation-settings:normal;vector-effect:none;fill:#b3b3b3;fill-opacity:1;stroke:#007f00;stroke-width:1.37271;stroke-linecap:butt;stroke-linejoin:miter;stroke-miterlimit:4;stroke-dasharray:none;stroke-dashoffset:0;stroke-opacity:1;-inkscape-stroke:none;stop-color:#000000" /><path
         d="m 356.80617,-261.1282 c 0.73057,0.55404 0.64462,1.04288 -0.30082,1.69467 -0.68759,0.45627 -0.98841,0.48886 -1.76196,0.19554 -1.33221,-0.55403 -1.03138,-2.08575 0.42976,-2.21611 0.60164,-0.0652 1.3322,0.0978 1.63302,0.3259 z"
         id="path21-3-8"
         style="font-variation-settings:normal;vector-effect:none;fill:#b3b3b3;fill-opacity:1;stroke:#007f00;stroke-width:1.37271;stroke-linecap:butt;stroke-linejoin:miter;stroke-miterlimit:4;stroke-dasharray:none;stroke-dashoffset:0;stroke-opacity:1;-inkscape-stroke:none;stop-color:#000000" /><path
         d="m 358.35326,-255.2946 c 2.92228,2.63977 -0.73056,6.32244 -4.7272,4.69295 -3.82475,-1.56432 -2.40658,-5.70325 1.97683,-5.70325 1.28923,0 1.89088,0.19554 2.75037,1.0103 z"
         id="path22-9-5"
         style="font-variation-settings:normal;vector-effect:none;fill:#b3b3b3;fill-opacity:1;stroke:#007f00;stroke-width:1.37271;stroke-linecap:butt;stroke-linejoin:miter;stroke-miterlimit:4;stroke-dasharray:none;stroke-dashoffset:0;stroke-opacity:1;-inkscape-stroke:none;stop-color:#000000" /><path
         d="m 365.9168,-254.21914 c 0.81652,0.74957 0.3438,1.98799 -0.77355,2.08576 -1.89088,0.22813 -2.87929,-1.04289 -1.54707,-2.02057 0.81651,-0.65181 1.63302,-0.65181 2.32062,-0.0652 z"
         id="path23-1-6"
         style="font-variation-settings:normal;vector-effect:none;fill:#b3b3b3;fill-opacity:1;stroke:#007f00;stroke-width:1.37271;stroke-linecap:butt;stroke-linejoin:miter;stroke-miterlimit:4;stroke-dasharray:none;stroke-dashoffset:0;stroke-opacity:1;-inkscape-stroke:none;stop-color:#000000" /><path
         d="m 347.17986,-254.25173 c 0.90247,0.52145 0.77354,1.46654 -0.30083,1.98799 -1.59005,0.74956 -3.30905,-1.14065 -1.76195,-1.98799 0.42974,-0.22813 0.90246,-0.42367 1.03138,-0.42367 0.12893,0 0.60165,0.19554 1.0314,0.42367 z"
         id="path24-9-3"
         style="font-variation-settings:normal;vector-effect:none;fill:#b3b3b3;fill-opacity:1;stroke:#007f00;stroke-width:1.37271;stroke-linecap:butt;stroke-linejoin:miter;stroke-miterlimit:4;stroke-dasharray:none;stroke-dashoffset:0;stroke-opacity:1;-inkscape-stroke:none;stop-color:#000000" /><path
         d="m 382.24717,-249.13511 c 0,0.9451 -1.84792,4.59517 -3.18012,6.35502 l -1.2033,1.56432 -4.98505,-3.78043 c -3.48095,-2.63977 -4.85614,-3.91078 -4.68424,-4.26927 0.25785,-0.45627 1.24626,-0.52145 7.17677,-0.52145 6.53214,0 6.87594,0.0326 6.87594,0.65181 z"
         id="path25-1-3"
         style="font-variation-settings:normal;vector-effect:none;fill:#b3b3b3;fill-opacity:1;stroke:#007f00;stroke-width:1.37271;stroke-linecap:butt;stroke-linejoin:miter;stroke-miterlimit:4;stroke-dasharray:none;stroke-dashoffset:0;stroke-opacity:1;-inkscape-stroke:none;stop-color:#000000" /><path
         d="m 342.83942,-249.39584 c 0.12892,0.22814 -2.01981,2.15095 -4.77019,4.23669 l -4.98506,3.84561 -1.16031,-1.40136 c -1.16032,-1.43395 -3.395,-5.76842 -3.395,-6.61576 0,-0.39108 1.2033,-0.45626 7.04784,-0.45626 5.24291,0 7.1338,0.0978 7.26272,0.39108 z"
         id="path26-3-9"
         style="font-variation-settings:normal;vector-effect:none;fill:#b3b3b3;fill-opacity:1;stroke:#007f00;stroke-width:1.37271;stroke-linecap:butt;stroke-linejoin:miter;stroke-miterlimit:4;stroke-dasharray:none;stroke-dashoffset:0;stroke-opacity:1;-inkscape-stroke:none;stop-color:#000000" /><path
         d="m 356.84914,-246.88641 c 0.60165,0.81474 0.21488,1.56432 -0.85948,1.82503 -1.16032,0.29331 -2.1917,-0.42366 -2.01981,-1.43396 0.17189,-1.10804 2.1917,-1.40136 2.87929,-0.39107 z"
         id="path27-1-3"
         style="font-variation-settings:normal;vector-effect:none;fill:#b3b3b3;fill-opacity:1;stroke:#007f00;stroke-width:1.37271;stroke-linecap:butt;stroke-linejoin:miter;stroke-miterlimit:4;stroke-dasharray:none;stroke-dashoffset:0;stroke-opacity:1;-inkscape-stroke:none;stop-color:#000000" /><path
         d="m 366.2606,-240.23807 c 2.62145,2.02057 4.81316,3.74783 4.81316,3.87819 0,0.65181 -8.63791,3.51972 -10.61474,3.51972 -0.42975,0 -0.55867,-1.10806 -0.55867,-5.34475 0,-4.56258 0.086,-5.37733 0.6876,-5.54028 0.38677,-0.0978 0.68759,-0.19553 0.73056,-0.19553 0.043,0 2.27767,1.66208 4.94209,3.68265 z"
         id="path28-8-3"
         style="font-variation-settings:normal;vector-effect:none;fill:#b3b3b3;fill-opacity:1;stroke:#007f00;stroke-width:1.37271;stroke-linecap:butt;stroke-linejoin:miter;stroke-miterlimit:4;stroke-dasharray:none;stroke-dashoffset:0;stroke-opacity:1;-inkscape-stroke:none;stop-color:#000000" /><path
         d="m 350.317,-243.6926 c 0.42976,0.0978 0.55868,1.53173 0.55868,5.50769 0,2.93309 -0.17189,5.34475 -0.3438,5.34475 -1.54708,0 -7.99328,-1.98799 -10.27094,-3.19381 -0.6876,-0.32591 9.28252,-7.88675 10.05606,-7.65863 z"
         id="path29-4-3"
         style="font-variation-settings:normal;vector-effect:none;fill:#b3b3b3;fill-opacity:1;stroke:#007f00;stroke-width:1.37271;stroke-linecap:butt;stroke-linejoin:miter;stroke-miterlimit:4;stroke-dasharray:none;stroke-dashoffset:0;stroke-opacity:1;-inkscape-stroke:none;stop-color:#000000" /><path
         style="font-variation-settings:normal;vector-effect:none;fill:#b3b3b3;fill-opacity:1;stroke:#007f00;stroke-width:1.37271;stroke-linecap:butt;stroke-linejoin:miter;stroke-miterlimit:4;stroke-dasharray:none;stroke-dashoffset:0;stroke-opacity:1;-inkscape-stroke:none;stop-color:#000000"
         d="m 235.08864,-229.53299 c 0.10388,-0.0596 0.28514,-0.37494 0.40279,-0.70092 0.11764,-0.32597 0.29723,-0.82467 0.39908,-1.10822 0.23984,-0.66767 0.54321,-0.92022 1.19434,-0.99428 0.72506,-0.0825 0.93618,0.0587 1.78311,1.19258 0.6318,0.84579 0.84117,1.09045 0.96378,1.12613 0.29224,0.085 1.08645,-0.0686 1.40488,-0.27182 0.36236,-0.23124 0.35435,-0.0476 0.0812,-1.85808 -0.11497,-0.762 -0.11012,-0.86527 0.0494,-1.04989 0.20277,-0.23468 0.88841,-0.52404 1.2417,-0.52403 0.14067,1e-5 0.77893,0.3099 1.54682,0.75101 0.71903,0.41305 1.38263,0.75211 1.47467,0.75347 0.24389,0.003 1.02409,-0.44711 1.15706,-0.66843 0.15957,-0.26558 0.0799,-0.4343 -0.69436,-1.47057 -0.41135,-0.55051 -0.68168,-1.00474 -0.68192,-1.14578 -4e-4,-0.30673 0.46289,-0.80577 0.84112,-0.90577 0.23715,-0.0627 0.55754,-0.0286 1.53325,0.16342 0.6784,0.13347 1.42782,0.25925 1.66536,0.2795 0.39724,0.0339 0.45494,0.0139 0.71888,-0.24851 0.17082,-0.16984 0.30748,-0.42324 0.33761,-0.62603 0.0577,-0.38792 0.0764,-0.37191 -1.577,-1.34675 -1.06905,-0.63031 -1.18886,-0.79668 -0.95622,-1.32784 0.25285,-0.57728 0.36867,-0.62251 2.05391,-0.80183 0.82554,-0.0878 1.60037,-0.2081 1.72183,-0.26723 0.34228,-0.16666 0.48668,-0.98183 0.22246,-1.25586 -0.079,-0.082 -0.75388,-0.27483 -1.68236,-0.48085 -0.85274,-0.18921 -1.61446,-0.39321 -1.69273,-0.45334 -0.0782,-0.0601 -0.20007,-0.27436 -0.27065,-0.47606 -0.18331,-0.52377 -0.0241,-0.76599 0.72324,-1.10057 0.32816,-0.1469 0.87904,-0.39247 1.22417,-0.54572 1.19323,-0.52979 1.32356,-0.7473 0.86284,-1.44016 l -0.23532,-0.35388 -0.67981,0.003 c -0.3739,0.002 -1.1483,0.045 -1.72088,0.0957 -0.80661,0.0714 -1.10031,0.0707 -1.30409,-0.003 -0.31163,-0.1134 -0.73632,-0.64796 -0.73765,-0.9285 -3.9e-4,-0.12833 0.35347,-0.55465 1.00358,-1.20833 1.13424,-1.14048 1.1462,-1.18215 0.4956,-1.72828 -0.26142,-0.21942 -0.46148,-0.31524 -0.65821,-0.31524 -0.15545,0 -0.87483,0.24983 -1.59862,0.55518 -1.54951,0.65373 -1.78111,0.68016 -2.37769,0.27143 -0.22781,-0.15607 -0.43907,-0.34345 -0.46947,-0.4164 -0.0305,-0.0729 0.0908,-0.56091 0.26945,-1.08439 0.44321,-1.29907 0.47256,-1.51593 0.23288,-1.72071 -0.26845,-0.22935 -1.05447,-0.48348 -1.32811,-0.42939 -0.12432,0.0246 -0.48488,0.30069 -0.80125,0.61359 -0.79192,0.78322 -1.35902,1.28566 -1.54329,1.36731 -0.23825,0.10558 -1.06344,0.007 -1.36435,-0.16398 -0.35939,-0.20348 -0.37518,-0.25209 -0.71433,-2.19986 -0.0961,-0.55205 -0.39184,-0.75847 -1.08656,-0.75847 -0.91622,0 -0.85245,-0.078 -1.66158,2.03188 -0.11908,0.3105 -0.2916,0.61183 -0.38337,0.66959 -0.0918,0.0577 -0.44695,0.12038 -0.7893,0.13915 -0.79192,0.0434 -0.82835,0.0185 -1.78195,-1.21999 -0.42335,-0.54982 -0.84747,-1.00622 -0.97646,-1.05079 -0.29008,-0.10022 -0.99252,0.0341 -1.36914,0.26186 l -0.27268,0.16487 0.1234,0.86988 c 0.2278,1.60565 0.2306,1.70721 0.053,1.91283 -0.22168,0.25657 -1.00154,0.53917 -1.31994,0.47832 -0.13651,-0.0261 -0.77778,-0.35163 -1.42503,-0.72342 -0.64726,-0.37177 -1.29294,-0.69805 -1.43484,-0.72507 -0.4872,-0.0927 -1.31034,0.44184 -1.31034,0.85097 0,0.0967 0.32944,0.62685 0.7321,1.17805 0.8485,1.16152 0.89323,1.36227 0.39868,1.78944 -0.52506,0.45349 -0.61339,0.45746 -2.39133,0.10788 -1.8445,-0.36268 -1.87413,-0.35863 -2.28857,0.31239 -0.2052,0.33226 -0.22975,0.44064 -0.13537,0.59773 0.0634,0.10553 0.68303,0.5357 1.37695,0.95594 1.23342,0.74696 1.26167,0.77115 1.26167,1.08058 0,0.38888 -0.23078,0.82828 -0.48794,0.92901 -0.185,0.0724 -0.66184,0.14079 -2.33591,0.33466 -1.06871,0.12377 -1.10207,0.1335 -1.23917,0.36168 -0.17167,0.28573 -0.15444,1.02467 0.0266,1.13857 0.0809,0.0509 0.78004,0.22971 1.55378,0.39739 1.63873,0.35515 1.83093,0.4226 1.96477,0.68955 0.13113,0.26156 0.12707,0.79428 -0.008,0.98498 -0.0588,0.0835 -0.72305,0.42784 -1.4759,0.76531 -0.78812,0.35326 -1.40239,0.68205 -1.44795,0.77498 -0.11072,0.22585 0.17305,0.92391 0.44773,1.10146 0.24501,0.15835 0.25834,0.15811 2.49372,-0.0449 0.87922,-0.0798 1.04104,-0.0755 1.26087,0.0337 0.35775,0.17777 0.7589,0.78045 0.67883,1.01993 -0.0355,0.10595 -0.4924,0.62093 -1.01551,1.1444 -0.82824,0.82883 -0.94362,0.98251 -0.89315,1.18971 0.0701,0.2879 0.79674,0.83279 1.11057,0.83279 0.12293,0 0.81571,-0.24984 1.53951,-0.55519 0.81528,-0.34397 1.43594,-0.5552 1.63131,-0.5552 0.41271,0 1.06905,0.34987 1.203,0.64129 0.10924,0.23763 0.10472,0.2567 -0.39796,1.67718 -0.11935,0.33726 -0.217,0.71472 -0.217,0.83878 0,0.36665 0.64151,0.72911 1.29041,0.72911 0.3191,0 0.42399,-0.0584 0.86971,-0.48408 1.12468,-1.07418 1.62321,-1.48502 1.85564,-1.52926 0.33882,-0.0645 1.19454,0.17141 1.36528,0.37638 0.0778,0.0933 0.19158,0.4195 0.253,0.72485 0.32037,1.59264 0.37862,1.79513 0.55023,1.9129 0.24888,0.17081 1.34056,0.23582 1.58714,0.0945 z m -1.51543,-9.72224 c -1.60838,-0.60045 -2.56639,-1.9832 -2.28438,-3.29719 0.37134,-1.73026 2.51609,-2.94356 4.72618,-2.67363 1.4018,0.1712 2.61148,0.85911 3.21496,1.82826 0.24111,0.38724 0.27161,0.53421 0.27161,1.30868 0,0.78858 -0.0273,0.91461 -0.28406,1.31109 -0.37149,0.5736 -0.89348,1.02827 -1.54396,1.34482 -0.79618,0.38745 -1.2781,0.47799 -2.41599,0.45397 -0.88524,-0.0187 -1.08124,-0.0509 -1.68436,-0.276 z m -24.29721,-2.53401 c 0.48838,-0.0902 0.5401,-0.2071 0.60562,-1.36874 0.0343,-0.60825 0.11072,-1.17443 0.16982,-1.25817 0.19977,-0.28307 1.58126,-0.57765 1.96969,-0.42002 0.10911,0.0443 0.52268,0.47942 0.91904,0.96696 0.39635,0.48753 0.82295,0.93726 0.94798,0.99938 0.29688,0.14752 0.98529,8.4e-4 1.41571,-0.30169 0.33228,-0.23352 0.33225,-0.23661 -0.015,-1.33666 -0.10329,-0.32717 -0.22018,-0.75882 -0.25974,-0.95926 -0.0705,-0.35683 -0.0629,-0.36984 0.36373,-0.62608 0.40633,-0.24405 1.03103,-0.46529 1.33656,-0.47333 0.0727,-0.002 0.56691,0.3049 1.09816,0.68182 1.19263,0.84617 1.36157,0.93243 1.69989,0.86805 0.40489,-0.077 1.09627,-0.58768 1.09627,-0.80965 0,-0.10428 -0.28237,-0.59383 -0.62751,-1.08788 -0.35815,-0.51269 -0.62752,-0.9989 -0.62752,-1.13266 0,-0.17555 0.12467,-0.32586 0.49678,-0.59895 0.83275,-0.61115 0.75088,-0.612 2.3783,0.0247 1.31271,0.51356 1.45746,0.5529 1.68871,0.45906 0.29918,-0.12143 0.87473,-0.75256 0.87473,-0.95923 0,-0.0795 -0.46986,-0.52851 -1.04413,-0.99764 -0.58635,-0.47901 -1.04488,-0.92203 -1.04587,-1.01047 -0.002,-0.21829 0.49953,-0.94947 0.79757,-1.16181 l 0.24635,-0.1755 1.07212,0.1853 c 1.49261,0.258 2.13189,0.2897 2.38191,0.11811 0.29563,-0.20289 0.56048,-0.86415 0.42373,-1.05792 -0.0605,-0.0857 -0.61643,-0.39541 -1.23549,-0.68829 -1.55296,-0.73472 -1.52523,-0.71236 -1.44588,-1.16599 0.0857,-0.49005 0.40771,-1.05426 0.64028,-1.12194 0.10089,-0.0294 0.77614,-0.0724 1.50055,-0.0958 0.7244,-0.0233 1.41933,-0.058 1.54428,-0.077 0.41068,-0.0625 0.66651,-1.09613 0.33376,-1.34848 -0.0899,-0.0681 -0.77049,-0.26491 -1.51259,-0.43731 -1.61374,-0.3749 -1.71532,-0.44286 -1.71532,-1.14742 0,-0.85005 -0.0113,-0.8417 1.71017,-1.26027 1.75582,-0.42692 1.8236,-0.47968 1.5995,-1.24499 -0.168,-0.57371 -0.31877,-0.62137 -1.97035,-0.62282 -1.63233,-0.002 -1.76781,-0.0611 -2.03536,-0.89601 -0.2247,-0.7012 -0.16644,-0.7759 1.03391,-1.32595 1.12567,-0.51581 1.64966,-0.8399 1.64826,-1.01946 -0.002,-0.22274 -0.48808,-0.93655 -0.67519,-0.99101 -0.0977,-0.0284 -0.27964,-0.0517 -0.40437,-0.0518 -0.22909,-7e-5 -1.86268,0.27236 -2.40091,0.40045 -0.1828,0.0435 -0.38291,0.0379 -0.53634,-0.0151 -0.27929,-0.0965 -1.00234,-0.97426 -1.00234,-1.21681 0,-0.0928 0.44176,-0.53041 1.04278,-1.03288 0.57353,-0.47948 1.04417,-0.93603 1.04587,-1.01453 0.005,-0.20854 -0.24697,-0.53863 -0.60949,-0.79996 -0.41299,-0.29773 -0.59188,-0.268 -2.05439,0.34137 -0.63275,0.26364 -1.23631,0.48003 -1.34124,0.48086 -0.10494,8.3e-4 -0.46968,-0.20023 -0.81055,-0.4468 -0.4701,-0.34005 -0.61975,-0.50226 -0.61975,-0.67176 0,-0.12421 0.27874,-0.60747 0.62752,-1.08796 0.36545,-0.50343 0.62751,-0.96167 0.62751,-1.09723 0,-0.2667 -0.49354,-0.67674 -0.98309,-0.81674 -0.37462,-0.10714 -0.67225,0.0373 -1.87565,0.91029 -0.56465,0.40962 -0.89915,0.59435 -1.07618,0.59435 -0.54477,0 -1.71275,-0.59371 -1.71275,-0.87062 0,-0.0699 0.0639,-0.322 0.14187,-0.56018 0.594,-1.81305 0.591,-1.85007 -0.17313,-2.13058 -0.89632,-0.32906 -1.09218,-0.23438 -2.11694,1.02335 -0.33765,0.41442 -0.66311,0.7797 -0.72323,0.81174 -0.33233,0.17718 -1.74465,-0.078 -1.98659,-0.35883 -0.10299,-0.11956 -0.1745,-0.53673 -0.22485,-1.31164 -0.085,-1.30901 -0.10806,-1.33844 -1.1058,-1.415 -0.81684,-0.0627 -0.86894,-0.008 -1.49329,1.56876 -0.14876,0.37565 -0.36447,0.74752 -0.47935,0.82636 -0.43243,0.29678 -1.99095,0.19634 -2.13565,-0.13764 -0.0245,-0.0565 -0.21774,-0.53102 -0.42946,-1.05449 -0.49104,-1.21401 -0.54241,-1.25977 -1.35218,-1.20445 -0.50683,0.0346 -0.67146,0.0826 -0.86284,0.25131 -0.2191,0.19317 -0.23651,0.28356 -0.23651,1.22868 0,0.56109 -0.0293,1.07814 -0.0652,1.14901 -0.1436,0.28376 -1.49366,0.60725 -2.01283,0.48228 -0.12614,-0.0304 -0.52548,-0.42783 -0.95906,-0.95457 -0.40861,-0.4964 -0.81043,-0.94503 -0.89294,-0.99695 -0.27881,-0.17549 -1.35442,0.0611 -1.63762,0.36012 -0.15347,0.16205 0.002,0.92591 0.44483,2.18032 0.12789,0.36258 -0.0389,0.55077 -0.76874,0.86745 -0.86877,0.37695 -0.99512,0.35033 -2.129,-0.44842 -1.16192,-0.8185 -1.38024,-0.92198 -1.73159,-0.82067 -0.40142,0.11574 -1.0203,0.60107 -1.0203,0.80014 0,0.0984 0.30592,0.60908 0.67981,1.13492 0.37391,0.52584 0.67982,1.02113 0.67982,1.10063 0,0.17825 -1.19157,1.09632 -1.42292,1.09632 -0.0923,0 -0.74454,-0.23199 -1.44935,-0.51554 -0.70481,-0.28354 -1.38849,-0.51554 -1.51931,-0.51554 -0.26371,0 -0.90357,0.46754 -1.05602,0.77162 -0.13209,0.26347 -0.0102,0.40957 1.07178,1.28503 0.68587,0.55494 0.92446,0.80264 0.92446,0.95978 0,0.23094 -0.42914,0.90371 -0.72182,1.13161 -0.264,0.20556 -0.32897,0.20219 -2.15432,-0.11166 -1.25468,-0.21573 -1.48089,-0.19356 -1.752,0.17167 -0.10075,0.13574 -0.21219,0.38438 -0.24765,0.55253 -0.056,0.26551 -0.026,0.33273 0.22761,0.51099 0.16064,0.1129 0.54673,0.32032 0.85797,0.46095 0.8059,0.36407 0.88003,0.39884 1.212,0.56829 0.40348,0.20597 0.47365,0.3931 0.3269,0.87182 -0.17106,0.55805 -0.41504,0.88815 -0.69908,0.94585 -0.13173,0.0267 -0.83137,0.0492 -1.55476,0.0497 -1.24361,8.4e-4 -1.3278,0.0112 -1.54566,0.18707 -0.27013,0.21806 -0.41386,0.89387 -0.24193,1.1375 0.11899,0.16862 0.47133,0.28284 1.89368,0.61391 1.18307,0.27538 1.33723,0.36113 1.42224,0.79103 0.0834,0.42195 -0.0217,0.96175 -0.21583,1.10904 -0.13976,0.10598 -0.40777,0.17839 -1.95952,0.52942 -0.95466,0.21596 -1.22786,0.37895 -1.22704,0.73209 3.9e-4,0.38648 0.19636,0.83927 0.39619,0.91775 0.0982,0.0386 0.81381,0.0888 1.59037,0.11174 0.77655,0.0229 1.49198,0.0663 1.58982,0.0965 0.25076,0.0773 0.54714,0.71569 0.55097,1.18685 0.003,0.39344 -0.003,0.40089 -0.57199,0.69949 -0.31637,0.166 -0.64582,0.32759 -0.7321,0.35908 -0.0863,0.0315 -0.40411,0.17607 -0.70628,0.32127 -0.75477,0.36269 -0.83155,0.67071 -0.3284,1.31741 0.19795,0.25443 0.2624,0.28103 0.68087,0.28103 0.25424,0 0.80259,-0.0679 1.21857,-0.15095 1.10238,-0.22001 1.60303,-0.26836 1.82902,-0.17665 0.25756,0.10454 0.86217,0.96391 0.86217,1.22546 0,0.14559 -0.27223,0.41957 -0.98132,0.98769 -0.53972,0.43241 -1.01411,0.86457 -1.05419,0.96033 -0.093,0.22225 0.45704,0.89623 0.83921,1.02827 0.23999,0.083 0.40948,0.0377 1.64576,-0.43901 0.75803,-0.2923 1.4691,-0.52627 1.58016,-0.51992 0.25333,0.0145 1.30605,0.79334 1.38244,1.02281 0.0388,0.11653 -0.16156,0.47172 -0.63177,1.12008 -0.88026,1.21378 -0.88908,1.3581 -0.10805,1.76561 0.24791,0.12935 0.55151,0.23518 0.67467,0.23518 0.13729,0 0.6731,-0.30956 1.38518,-0.80028 1.32077,-0.91017 1.34249,-0.91438 2.34412,-0.45401 0.602,0.27668 0.77628,0.48239 0.65944,0.77841 -0.043,0.10906 -0.13547,0.41244 -0.2054,0.67417 -0.0699,0.26174 -0.16915,0.57935 -0.22046,0.70582 -0.17498,0.43124 -0.11555,0.82608 0.14373,0.95492 0.45836,0.22776 1.12652,0.36574 1.34387,0.27752 0.17835,-0.0724 0.82631,-0.77667 1.54618,-1.68063 0.3019,-0.37908 0.59101,-0.43126 1.43242,-0.25854 1.0156,0.20847 1.0819,0.30383 1.08096,1.55467 -3.9e-4,0.56268 0.0471,1.09087 0.10561,1.17378 0.22475,0.31845 1.50284,0.45084 1.80766,0.18724 0.14686,-0.12701 0.91779,-1.86145 0.91779,-2.06486 0,-0.33049 1.73128,-0.48603 2.17694,-0.19558 0.13036,0.085 0.36229,0.50797 0.59792,1.09056 0.51012,1.26129 0.55511,1.31102 1.1757,1.29948 0.27192,-0.005 0.58851,-0.0266 0.70356,-0.0479 z m -5.75226,-4.78936 c -6.27997,-0.60331 -11.77754,-4.04736 -13.80002,-8.64528 -0.70311,-1.59841 -0.82644,-2.20912 -0.83122,-4.11594 -0.004,-1.48488 0.0265,-1.81286 0.23363,-2.53804 1.49511,-5.2332 6.52537,-9.04742 13.40403,-10.16367 1.4972,-0.24297 4.7435,-0.26288 6.3275,-0.0388 6.84888,0.96886 12.14088,4.86694 13.66019,10.06205 0.15896,0.5436 0.22943,1.13843 0.27031,2.28188 0.0479,1.34029 0.0257,1.67786 -0.16611,2.53037 -1.04408,4.63921 -5.34213,8.49426 -11.18656,10.03357 -2.5137,0.66206 -5.14546,0.85959 -7.91175,0.59384 z m 4.86328,-0.42111 c 3.64254,-0.48682 6.56527,-1.62314 9.09572,-3.5363 1.8626,-1.40823 3.22125,-3.07381 4.02122,-4.92965 0.63611,-1.4757 0.74108,-2.04107 0.73405,-3.95347 -0.006,-1.44649 -0.0407,-1.82276 -0.23306,-2.47982 -1.1258,-3.84522 -4.3985,-7.02714 -8.95279,-8.70446 -3.66221,-1.34876 -7.80273,-1.62359 -11.7612,-0.78068 -5.10583,1.08725 -9.45224,4.25 -11.10205,8.07862 -0.62964,1.46118 -0.77194,2.18259 -0.77442,3.926 -0.002,1.3559 0.0322,1.70721 0.23513,2.41906 0.49857,1.74915 1.29246,3.1927 2.51013,4.56428 2.36929,2.66879 5.9097,4.50126 10.11697,5.23645 1.09017,0.19049 1.50354,0.22085 3.28645,0.24135 1.35798,0.0156 2.30156,-0.0116 2.82385,-0.0814 z m -3.5,-9.28914 c -1.29354,-0.25551 -2.31925,-0.88818 -2.86096,-1.76465 -0.25077,-0.40575 -0.2803,-0.54542 -0.2803,-1.32597 0,-0.8045 0.0239,-0.90952 0.30734,-1.34833 0.39222,-0.60732 1.19273,-1.21439 1.99356,-1.51183 0.57866,-0.21491 0.71713,-0.23307 1.77798,-0.23307 1.04786,0 1.20356,0.0198 1.74578,0.2217 1.72999,0.64425 2.69878,2.01616 2.3859,3.37868 -0.29578,1.28804 -1.52437,2.28734 -3.19039,2.59499 -0.72097,0.13314 -1.1602,0.13044 -1.87891,-0.0115 z"
         id="path32" /><path
         style="font-variation-settings:normal;vector-effect:none;fill:#b3b3b3;fill-opacity:1;stroke:#007f00;stroke-width:1.37271;stroke-linecap:butt;stroke-linejoin:miter;stroke-miterlimit:4;stroke-dasharray:none;stroke-dashoffset:0;stroke-opacity:1;-inkscape-stroke:none;stop-color:#000000"
         d="m -194.1177,-227.24598 c 26.51726,-2.33119 40.26387,-24.09943 25.63413,-40.59257 -17.71684,-19.97345 -58.5701,-12.6274 -62.76817,11.28668 -2.85012,16.23548 16.05928,31.15862 37.13404,29.30589 z m 3.86564,-6.38225 c 0.5471,-1.46259 1.08232,-2.59915 1.27686,-2.71143 1.82863,-1.05536 2.52719,-1.55412 4.0387,-2.8836 1.95506,-1.71961 4.46329,-4.24096 6.23656,-6.2692 1.17692,-1.34616 1.17692,-1.34616 3.73305,-1.35363 1.40585,-0.004 3.46902,-0.0654 4.5848,-0.1363 2.53538,-0.161 2.46248,-0.24228 1.50541,1.67831 -3.5645,7.15297 -11.48934,12.42 -21.48796,14.28139 -0.95331,0.17748 -0.95657,0.25269 0.11258,-2.60554 z m -17.63881,1.64759 c -7.98129,-2.27852 -14.70768,-7.52295 -17.55571,-13.68782 -0.75817,-1.64119 -0.95655,-1.47872 1.60866,-1.31747 1.17156,0.0736 3.27124,0.13931 4.66596,0.14592 2.53586,0.0121 2.53586,0.0121 3.83193,1.48026 3.39365,3.84442 7.20524,7.34541 9.22416,8.47251 1.24598,0.6956 1.24598,0.6956 2.2094,3.25669 0.52988,1.40862 0.96355,2.60804 0.9637,2.6654 3.9e-4,0.13994 -3.20535,-0.51796 -4.9481,-1.01549 z m 7.53535,-18.24181 c -2.48427,-0.58189 -3.96405,-2.00876 -3.40809,-3.28625 1.13247,-2.60226 8.89645,-3.2254 11.9107,-0.95596 3.45037,2.5978 -2.61129,5.62215 -8.50261,4.24221 z m 5.86975,-0.27823 c 3.30503,-0.89205 4.20884,-2.4992 2.17062,-3.85976 -4.11388,-2.74614 -13.48753,-0.44738 -10.62165,2.60481 1.20877,1.28735 5.80325,1.96962 8.45103,1.25495 z m 25.74849,-3.5778 c -2.80196,-0.61559 -7.1522,-1.73431 -9.56766,-2.46045 -10.55726,-3.17374 -25.87438,-3.35464 -35.99817,-0.42517 -4.92569,1.42533 -11.9641,3.20234 -12.68418,3.20241 -0.61186,6e-5 0.33705,-4.53148 1.4622,-6.98284 7.40577,-16.13487 34.58603,-20.61939 50.20031,-8.28265 3.90081,3.08201 6.4585,6.72006 7.69414,10.94409 0.42274,1.44508 0.75292,4.32142 0.49609,4.32142 -0.0885,0 -0.80966,-0.14256 -1.60273,-0.31681 z"
         id="path31" /><path
         id="path3-0"
         d="m -45.817201,-277.72268 c 3.915038,0 7.087805,2.51374 7.087805,5.61484 v 37.74359 c 0,3.10161 -3.172767,5.61484 -7.087805,5.61484 H -72.0032 c -3.915061,0 -7.088678,-2.51391 -7.088678,-5.61484 h 7.09e-4 v -37.74359 c 0,-3.1011 3.173133,-5.61484 7.090435,-5.61484 z m 0.429191,3.40092 h -27.271236 c -1.385755,0 -2.396913,0.84588 -2.396913,2.0452 v 7.92275 l 3.95e-4,3e-4 c 0,1.19951 1.010944,2.27503 2.396467,2.27503 h 27.271236 c 1.38573,0 2.62114,-1.07485 2.62114,-2.27537 v -7.92272 c 0,-1.19932 -1.23541,-2.0452 -2.62114,-2.0452 z m 0.576336,13.77373 h -3.739227 c -1.018217,0 -1.839394,0.60201 -1.839394,1.32317 v 2.28532 c 0,0.72117 0.821177,1.32284 1.839394,1.32284 h 3.739227 c 1.018237,0 2.045679,-0.60167 2.045679,-1.32284 v -2.28532 c 0,-0.72116 -1.027442,-1.32317 -2.045679,-1.32317 z m -8.268082,0 h -3.739232 c -1.018213,0 -1.866542,0.60201 -1.866542,1.32317 v 2.28532 h -0.0016 c 0,0.72117 0.848752,1.32284 1.866991,1.32284 h 3.740103 c 1.018221,0 2.018081,-0.60167 2.018081,-1.32284 v -2.28532 c 0,-0.72116 -0.99986,-1.32317 -2.018081,-1.32317 z m -8.296551,0 h -3.739229 c -1.018216,0 -1.866554,0.60201 -1.866554,1.32317 v 2.28532 h -0.0016 c 0,0.72117 0.848759,1.32284 1.866996,1.32284 h 3.740102 c 1.018217,0 2.018081,-0.60167 2.018081,-1.32284 v -2.28532 c 0,-0.72116 -0.999864,-1.32317 -2.018081,-1.32317 z m -8.072318,0 h -3.739231 c -1.018221,0 -1.866551,0.60201 -1.866551,1.32317 v 2.28532 h -0.0014 c 0,0.72117 0.848756,1.32284 1.866984,1.32284 h 3.740249 c 1.018217,0 2.018077,-0.60167 2.018077,-1.32284 v -2.28532 c 0,-0.72116 -0.99986,-1.32317 -2.018077,-1.32317 z m 24.636951,5.44148 h -3.739227 c -1.018217,0 -1.839394,0.602 -1.839394,1.32316 v 2.28533 c 0,0.72117 0.821177,1.32284 1.839394,1.32284 h 3.739227 c 1.018237,0 2.045679,-0.60167 2.045679,-1.32284 v -2.28533 c 0,-0.72116 -1.027442,-1.32316 -2.045679,-1.32316 z m -8.268082,0 h -3.739232 c -1.018213,0 -1.866542,0.602 -1.866542,1.32316 v 2.28533 h -0.0016 c 0,0.72117 0.848752,1.32284 1.866991,1.32284 h 3.740103 c 1.018221,0 2.018081,-0.60167 2.018081,-1.32284 v -2.28533 c 0,-0.72116 -0.99986,-1.32316 -2.018081,-1.32316 z m -8.296551,0 h -3.739229 c -1.018224,0 -1.866554,0.602 -1.866554,1.32316 v 2.28533 h -0.0016 c 0,0.72117 0.848759,1.32284 1.866996,1.32284 h 3.740102 c 1.018217,0 2.018081,-0.60167 2.018081,-1.32284 v -2.28533 c 0,-0.72116 -0.999864,-1.32316 -2.018081,-1.32316 z m -8.072318,0 h -3.739231 c -1.018221,0 -1.866551,0.602 -1.866551,1.32316 v 2.28533 h -0.0014 c 0,0.72117 0.848756,1.32284 1.866984,1.32284 h 3.740249 c 1.018217,0 2.018077,-0.60167 2.018077,-1.32284 v -2.28533 c 0,-0.72116 -0.99986,-1.32316 -2.018077,-1.32316 z m 24.636951,5.44147 h -3.739227 c -1.018225,0 -1.839394,0.60201 -1.839394,1.32317 v 2.28533 c 0,0.72116 0.821169,1.32283 1.839394,1.32283 h 3.739227 c 1.018237,0 2.045679,-0.60167 2.045679,-1.32283 v -2.28533 c 0,-0.72116 -1.027442,-1.32317 -2.045679,-1.32317 z m -8.268082,0 h -3.739232 c -1.018221,0 -1.866542,0.60201 -1.866542,1.32317 v 2.28533 h -0.0016 c 0,0.72116 0.848752,1.32283 1.866991,1.32283 h 3.740103 c 1.018221,0 2.018081,-0.60167 2.018081,-1.32283 v -2.28533 c 0,-0.72116 -0.99986,-1.32317 -2.018081,-1.32317 z m -8.296551,0 h -3.739229 c -1.018224,0 -1.866554,0.60201 -1.866554,1.32317 v 2.28533 h -0.0016 c 0,0.72116 0.848759,1.32283 1.866996,1.32283 h 3.740102 c 1.01822,0 2.018081,-0.60167 2.018081,-1.32283 v -2.28533 c 0,-0.72116 -0.999861,-1.32317 -2.018081,-1.32317 z m -8.072318,0 h -3.739231 c -1.018221,0 -1.866551,0.60201 -1.866551,1.32317 v 2.28533 h -0.0014 c 0,0.72116 0.848756,1.32283 1.866984,1.32283 h 3.740249 c 1.018224,0 2.018077,-0.60167 2.018077,-1.32283 v -2.28533 c 0,-0.72116 -0.999853,-1.32317 -2.018077,-1.32317 z m 24.636951,5.44148 h -3.739227 c -1.018225,0 -1.839394,0.60201 -1.839394,1.32316 v 2.28533 c 0,0.72117 0.821169,1.32284 1.839394,1.32284 h 3.739227 c 1.018237,0 2.045679,-0.60167 2.045679,-1.32284 v -2.28533 c 0,-0.72115 -1.027442,-1.32316 -2.045679,-1.32316 z m -8.268082,0 h -3.739232 c -1.018221,0 -1.866542,0.60201 -1.866542,1.32316 v 2.28533 h -0.0016 c 0,0.72117 0.848752,1.32284 1.866991,1.32284 h 3.740103 c 1.018221,0 2.018081,-0.60167 2.018081,-1.32284 v -2.28533 c 0,-0.72115 -0.99986,-1.32316 -2.018081,-1.32316 z m -8.296551,0 h -3.739229 c -1.018224,0 -1.866554,0.60201 -1.866554,1.32316 v 2.28533 h -0.0016 c 0,0.72117 0.848759,1.32284 1.866996,1.32284 h 3.740102 c 1.01822,0 2.018081,-0.60167 2.018081,-1.32284 v -2.28533 c 0,-0.72115 -0.999861,-1.32316 -2.018081,-1.32316 z m -7.669849,0 h -4.394832 c -0.891769,0 -1.614735,0.54843 -1.614735,1.22453 v 7.92407 c 0,0.67628 0.723186,1.22421 1.614735,1.22421 h 4.394832 c 0.891765,0 1.614297,-0.5481 1.614297,-1.22421 v -7.92407 c 0,-0.67628 -0.722752,-1.22453 -1.614297,-1.22453 z m 24.234482,5.44147 h -3.739227 c -1.018225,0 -1.839394,0.60201 -1.839394,1.32317 v 2.28532 c 0,0.72117 0.821169,1.32285 1.839394,1.32285 h 3.739227 c 1.018237,0 2.045679,-0.60168 2.045679,-1.32285 v -2.28532 c 0,-0.72116 -1.027442,-1.32317 -2.045679,-1.32317 z m -8.268082,0 h -3.739232 c -1.018221,0 -1.866542,0.60201 -1.866542,1.32317 v 2.28532 h -0.0016 c 0,0.72117 0.848752,1.32285 1.866991,1.32285 h 3.740103 c 1.018228,0 2.018081,-0.60168 2.018081,-1.32285 v -2.28532 c 0,-0.72116 -0.999853,-1.32317 -2.018081,-1.32317 z m -8.296551,0 h -3.739229 c -1.018224,0 -1.866554,0.60201 -1.866554,1.32317 v 2.28532 h -0.0016 c 0,0.72117 0.848759,1.32285 1.866996,1.32285 h 3.740102 c 1.018229,0 2.018081,-0.60168 2.018081,-1.32285 v -2.28532 c 0,-0.72116 -0.999852,-1.32317 -2.018081,-1.32317 z"
         style="font-variation-settings:normal;vector-effect:none;fill:#b3b3b3;fill-opacity:1;stroke:#007f00;stroke-width:1.37271;stroke-linecap:butt;stroke-linejoin:miter;stroke-miterlimit:4;stroke-dasharray:none;stroke-dashoffset:0;stroke-opacity:1;-inkscape-stroke:none;stop-color:#000000" /><path
         style="fill:#b3b3b3;stroke:#007f00;stroke-width:1.37271;stroke-dasharray:none;stroke-opacity:1"
         d="m 103.82731,-226.26885 7.68854,-5.83375 h 8.23176 8.23174 l 0.98698,-0.74848 0.98698,-0.74848 v -8.16724 -8.16724 h 3.48348 3.48346 v 8.91572 c 0,7.45544 0.066,8.91572 0.40263,8.91572 0.8245,0 3.19776,-1.44883 3.78634,-2.31148 0.57518,-0.84303 0.6043,-1.27281 0.68255,-10.07841 0.0775,-8.72394 0.11039,-9.21959 0.63783,-9.61959 1.04638,-0.7935 1.21373,-1.99533 1.11577,-8.01252 l -0.0936,-5.75094 -0.79405,-1.1421 c -1.07347,-1.54396 -2.48515,-2.34206 -4.93915,-2.79242 l -0.7983,-0.14649 v 9.02997 9.03 h -3.48346 -3.48348 v -8.15297 c 0,-7.31091 -0.0511,-8.21213 -0.49476,-8.7256 -0.87472,-1.01242 -1.91778,-1.17302 -7.61846,-1.17302 h -5.229 l -0.17766,-0.60538 c -0.35167,-1.19838 -0.50779,-1.49284 -1.23088,-2.32146 -0.40376,-0.46268 -1.33221,-1.1079 -2.06321,-1.43379 l -1.32908,-0.59253 -7.8378,-0.11008 -7.83781,-0.11007 v -1.87121 -1.87119 l 7.09507,-0.0591 c 8.55676,-0.0712 8.1451,0.0593 8.1451,-2.58267 0,-1.46709 -0.0989,-1.87083 -0.53085,-2.16729 -0.48445,-0.33246 -2.51367,-0.36432 -23.202401,-0.36432 -20.223422,0 -22.720783,0.0373 -23.127688,0.34593 -0.571706,0.43355 -0.658916,4.03522 -0.107832,4.45314 0.252214,0.19127 2.335228,0.26418 7.547521,0.26418 h 7.199176 v 1.98127 1.98127 H 69.920481 60.68823 l -1.516549,0.57309 c -2.811693,1.06256 -3.822647,2.72504 -3.822647,6.28627 v 2.16643 h -5.63836 c -5.628425,0 -5.639929,0.003 -6.523012,0.56449 -1.176557,0.75079 -1.478658,1.7024 -1.480597,4.66387 l -0.0016,2.47658 h -2.467449 -2.467461 v -3.85247 -3.85247 h -8.53647 -8.536431 l -0.869007,1.59603 c -1.508182,2.76997 -2.521552,6.05236 -3.449146,11.17216 -0.708944,3.91292 -0.702914,15.41922 0.01017,19.48251 0.859851,4.8993 2.104313,8.8449 3.593206,11.3923 l 0.739827,1.26581 h 8.523864 8.523875 v -3.85247 -3.85247 h 2.428022 2.42801 l 0.139315,3.24708 c 0.154806,3.60845 0.46236,4.36921 2.310105,5.7143 1.969983,1.43408 0.990473,1.38525 27.78551,1.38525 h 24.277093 z"
         id="path30" /></g></g><metadata
     id="metadata4"><rdf:RDF><cc:Work
         rdf:about=""><dc:creator><cc:Agent><dc:title>MisterLab Renov</dc:title></cc:Agent></dc:creator><dc:language>Franais</dc:language><dc:date>26/09/2023</dc:date><dc:subject><rdf:Bag><rdf:li>Didactronic</rdf:li></rdf:Bag></dc:subject></cc:Work></rdf:RDF></metadata></svg>
